<?xml version="1.0" ?><svg id="Layer_1" style="enable-background:new 0 0 228.064 190.684;" version="1.1" viewBox="0 0 228.064 190.684" xml:space="preserve" xmlns="http://www.w3.org/2000/svg" xmlns:xlink="http://www.w3.org/1999/xlink"><g><path d="M154.263,12.49c-1.321-7.664-15.811-4.193-19.435,4.015C147.192,14.693,155.506,19.703,154.263,12.49z"/><path d="M133.095,0.682c-5.125-3.42-11.032,6.8-8.291,13.359C130.505,5.947,137.918,3.901,133.095,0.682z"/><path d="M147.307,29.281c0.084-5.388-10.227-4.883-13.747,0.24C142.211,29.874,147.228,34.351,147.307,29.281z"/><path d="M78.84,99.641c-2.737-1.099-5.438,0.099-5.552,0.151c-0.501,0.227-0.723,0.816-0.498,1.319   c0.226,0.502,0.817,0.726,1.32,0.504c0.021-0.009,2.068-0.896,4.001-0.112c1.238,0.503,2.206,1.604,2.876,3.272   c0.157,0.391,0.532,0.628,0.928,0.628c0.124,0,0.25-0.023,0.372-0.073c0.513-0.206,0.761-0.788,0.555-1.3   C81.959,101.829,80.612,100.352,78.84,99.641z"/><path d="M85.845,103.298c0.112,0,0.226-0.019,0.336-0.059c0.521-0.186,0.791-0.758,0.605-1.278   c-1.19-3.329-3.091-5.608-5.652-6.775c-3.897-1.776-7.85-0.271-8.017-0.207c-0.513,0.201-0.767,0.778-0.567,1.292   c0.199,0.514,0.778,0.77,1.292,0.572c0.034-0.013,3.363-1.26,6.48,0.17c2.041,0.937,3.582,2.828,4.581,5.62   C85.049,103.043,85.434,103.298,85.845,103.298z"/><polygon points="16.179,189.555 22.147,190.174 26.638,146.865 62.728,146.865 67.219,190.174 73.187,189.555 68.475,144.115    71.558,144.115 71.558,138.115 25.84,138.115 5.782,65.648 0,67.248 20.996,143.103  "/><path d="M103.621,63.523c12.426,0,22.5-10.072,22.5-22.5c0-12.426-10.074-22.5-22.5-22.5c-12.426,0-22.5,10.074-22.5,22.5   C81.121,53.451,91.195,63.523,103.621,63.523z M116.835,39.058c1.933,0,3.5,1.567,3.5,3.5c0,1.933-1.567,3.5-3.5,3.5   c-1.933,0-3.5-1.567-3.5-3.5C113.335,40.625,114.902,39.058,116.835,39.058z"/><path d="M69.541,68.411c1.967-3.957,0.354-8.758-3.603-10.726c-3.955-1.964-8.758-0.353-10.726,3.603l-14.417,29   c-1.594,3.208-0.862,7.084,1.792,9.489l7.773,7.044h23.827L57.819,91.988L69.541,68.411z"/><path d="M127.249,183.408c2.139,4.506,6.623,7.143,11.301,7.143c1.796,0,3.621-0.39,5.352-1.211   c6.236-2.96,8.893-10.416,5.932-16.652l-26.786-56.427c-1.788-3.768-5.314-6.351-9.354-6.984v-2.321v-3.591h94.5v87.32h7v-87.32   h12.871v-8H93.822v8h12.871v3.457v2.3h-57.22l-8.43-7.64c-3.4-3.082-4.35-8.105-2.307-12.217l14.417-29   c1.754-3.526,5.291-5.716,9.232-5.716c1.598,0,3.137,0.362,4.575,1.077c5.087,2.529,7.167,8.724,4.64,13.809L60.654,91.453   l6.825,6.185c1.934-7.36,4.388-14.461,6.603-20.761l7.222,11.056c1.477,2.262,3.996,3.625,6.698,3.625h37.667c4.418,0,8-3.582,8-8   s-3.582-8-8-8H92.332L75.866,50.35c-0.053-0.082-0.115-0.155-0.17-0.234c-1.328-2.086-3.124-3.738-5.418-4.661   c-8.163-3.283-21.058-0.392-28.059,13.419c-9.515,19.046-12.77,31.851-13.263,54.211c0.885,16.379,11.588,19.533,20.681,20.678   c2.395,0.302,4.446,0.492,6.193,0.36h1.999h46.024l2.842,5.986v5.363v45.214h7v-30.468v-5.363L127.249,183.408z"/><path d="M135.835,91.392h46.333c1.093,0,2.099-0.594,2.627-1.551l24.917-45.167l-5.254-2.898l-24.061,43.616h-44.562V91.392z"/></g></svg>