<?xml version="1.0" ?><svg id="Layer_1" style="enable-background:new 0 0 352.333 230.287;" version="1.1" viewBox="0 0 352.333 230.287" xml:space="preserve" xmlns="http://www.w3.org/2000/svg" xmlns:xlink="http://www.w3.org/1999/xlink"><g><path d="M119.004,64.533c2.542,3.024,8.388,5.437,10.404,8.103c0.647,0.18,1.336,0.32,1.924,0.32c0.594,0,1.289-0.142,1.941-0.325   c2.02-2.664,7.861-5.076,10.401-8.098c4.454-5.3,4.612-7.874,4.612-7.874l1.049-6.955c-4.75-1.312-10.771-2.341-18.001-2.341   c-7.224,0-13.242,1.028-17.99,2.338l1.049,6.958C114.392,56.659,114.549,59.233,119.004,64.533z"/><path d="M143.569,83.311c-5.661-0.433-9.695-4.129-10.733-7.339c-0.499,0.114-1.016,0.193-1.504,0.193   c-0.484,0-0.997-0.077-1.492-0.189c-1.04,3.209-5.073,6.903-10.732,7.336c-3.033,0.232-5.594-0.424-7.512-1.663   c1.093,4.041,1.72,7.897,1.456,11.013c-0.857,10.077-5.931,14.285-7.369,23.434c4.037,2.265,18.585,10.143,25.649,10.143   c7.065,0,21.611-7.877,25.649-10.143c-1.436-9.15-6.512-13.358-7.367-23.434c-0.265-3.114,0.361-6.966,1.452-11.003   C149.15,82.89,146.595,83.542,143.569,83.311z"/><path d="M105.051,120.85c-0.025,0.593-0.038,1.235-0.038,1.933c0,3.095,0.135,5.7,0.356,7.99l-12.761,87.163   c-0.8,5.465,2.981,10.543,8.446,11.343c5.463,0.8,10.543-2.981,11.343-8.446l10.82-73.91c2.309-4.61,4.287-8.895,5.297-11.123   C123.861,131.355,124.164,128.008,105.051,120.85z"/><path d="M134.15,135.799c1.01,2.227,2.986,6.51,5.294,11.118l10.821,73.916c0.8,5.465,5.88,9.246,11.343,8.446   c5.465-0.8,9.246-5.878,8.446-11.343l-12.76-87.16c0.221-2.291,0.357-4.896,0.357-7.993c0-0.698-0.013-1.34-0.038-1.933   C138.501,128.007,138.803,131.354,134.15,135.799z"/><path d="M110.678,50.503c-4.302,1.414-7.271,2.965-8.835,3.887c-0.253,0.108-0.503,0.228-0.745,0.371L79.828,67.279l-24.024-24.46   c-1.153-1.173-2.641-1.81-4.16-1.922L41.386,8.352l-1.03,0.325c-1.358-4.829-2.651-6.851-4.334-6.851c-0.012,0-0.023,0-0.035,0   c-3.242,0.054-5.097,7.921-8.981,25.709C22.232,49.389,15.736,79.106,4.458,85.347c-0.474-0.438-1.102-0.711-1.798-0.711   c-1.469,0-2.66,1.191-2.66,2.66s1.191,2.66,2.66,2.66s2.66-1.191,2.66-2.66c0-0.047-0.011-0.09-0.014-0.137   c12.164-6.626,18.787-36.921,23.653-59.198c0.036-0.163,0.072-0.328,0.107-0.492c-0.086,0.488-0.172,0.978-0.26,1.483   c-4.088,23.39-10.176,58.182-21.325,66.362c-0.47-0.417-1.082-0.679-1.76-0.679c-1.469,0-2.66,1.191-2.66,2.66   s1.191,2.66,2.66,2.66s2.66-1.191,2.66-2.66c0-0.054-0.013-0.105-0.016-0.158c12.012-8.382,17.995-42.575,22.411-67.842   c0.421-2.41,0.854-4.889,1.291-7.306c-0.257,2.153-0.533,4.536-0.835,7.173C28.43,53.674,24.272,90.003,14.39,99.227   c-0.27-0.092-0.554-0.153-0.855-0.153c-1.469,0-2.66,1.191-2.66,2.66s1.191,2.66,2.66,2.66s2.66-1.191,2.66-2.66   c0-0.432-0.113-0.835-0.296-1.196C26.233,90.465,30.241,55.444,33.22,29.39c1.207-10.556,2.452-21.444,3.639-23.983   c0.103,0.201,0.231,0.497,0.382,0.912c0.037,0.103,0.074,0.21,0.112,0.325c0,0.002,0.001,0.003,0.002,0.005   c0.167,0.5,0.351,1.118,0.548,1.866c0.026,0.098,0.051,0.196,0.078,0.299c0.031,0.121,0.062,0.244,0.094,0.371   c0.015,0.062,0.032,0.132,0.047,0.196L36.379,9.93l10.316,32.731c-0.027,0.026-0.057,0.048-0.084,0.074   c-2.562,2.516-2.598,6.631-0.083,9.192l4.546,4.629l1.787,5.671l2.888-0.91l18.361,18.694c1.257,1.279,2.939,1.945,4.64,1.945   c1.13,0,2.269-0.294,3.295-0.898l24.149-14.212c0.68,1.549,1.368,3.186,2.036,4.873C109.153,67.048,111.25,59.802,110.678,50.503z"/><path d="M211.091,88.814l0.079-0.038l0.082-0.031c1.904-0.735,3.734-1.41,5.519-2.044l-31.255-10.716L162.6,55.515   c-0.545-0.487-1.151-0.859-1.788-1.13c-1.564-0.922-4.525-2.468-8.813-3.878c-0.57,9.283,1.519,16.52,2.444,21.191   c0.601-1.517,1.218-2.993,1.831-4.402l22.541,20.134l23.198,7.953C204.121,92.985,207.054,90.737,211.091,88.814z"/><path d="M110,11.642c-8.049-0.96-19.49,0.132-23.8,18.832c-3.767,16.343-9.905,17.525-14.252,16.207   c-4.347-1.318,4.251,9.795,17.21,1.727c11.206-6.976,8.716-30.575,19.031-30.035c0.101-0.884,0.248-1.771,0.454-2.657   C108.974,14.295,109.436,12.938,110,11.642z"/><path d="M154.622,21.418c4.433,6.522,4.973,21.641,13.565,26.99c12.959,8.068,21.557-3.045,17.21-1.727   c-4.347,1.318-10.486,0.136-14.252-16.207c-3.437-14.912-11.411-18.624-18.583-19.031   C153.953,14.525,154.685,17.922,154.622,21.418z"/><path d="M110.884,16.237c-2.631,11.295,4.392,22.58,15.688,25.211c11.293,2.629,22.578-4.395,25.209-15.688   c2.629-11.293-4.394-22.58-15.685-25.208C124.802-2.077,113.515,4.944,110.884,16.237z M142.71,13.572   c1.383,2.089,0.811,4.905-1.279,6.288c-2.089,1.383-4.905,0.811-6.288-1.279C133.76,16.491,141.327,11.482,142.71,13.572z    M145.956,24.283c0,0-5.933,18.465-20.677,5.597C125.279,29.88,138.58,30.541,145.956,24.283z M130.201,19.94   c0,2.541-2.06,4.601-4.601,4.601c-2.541,0-4.601-2.06-4.601-4.601S130.201,17.399,130.201,19.94z"/><polygon points="338.349,150.756 352.333,150.756 352.333,143.256 336.667,143.256  "/><polygon points="328.206,143.256 329.888,150.756 335.274,150.756 333.592,143.256  "/><polygon points="268.333,143.256 268.333,150.756 326.813,150.756 325.131,143.256  "/><path d="M263.837,94.169c1.783-1.314,3.895-2.009,6.104-2.009c3.262,0,6.364,1.566,8.298,4.19l10.02,13.598   c1.336-1.972,2.108-4.197,2.089-6.586c-0.073-8.798-7.652-19.623-23.088-20.841c-21.233-1.55-34.315,0.314-55.18,8.367   c-14.808,7.051-13.653,18.15-11.25,26.994c1.166,4.291,2.233,7.369,4.54,8.917l32.626,37.351l-3.191,52.884   c-0.416,6.891,4.834,12.814,11.725,13.23c0.257,0.016,0.511,0.022,0.765,0.022c6.559,0,12.065-5.112,12.466-11.747l3.5-58   c0.197-3.278-0.902-6.503-3.063-8.977l-26.051-29.823c12.209-2.304,24.988-2.665,34.83-3.235l-7.321-9.934   C258.287,103.999,259.265,97.538,263.837,94.169z"/><ellipse cx="318.304" cy="93.317" rx="22.5" ry="22.5" transform="matrix(0.9683 -0.2498 0.2498 0.9683 -13.2193 82.4659)"/><path d="M339.415,139.706c4.418,0,8-3.582,8-8c0-4.418-3.582-8-8-8h-7.133l3.589,16H339.415z"/><path d="M295.54,123.706l-19.152-25.991c-2.62-3.556-7.627-4.317-11.187-1.694c-3.557,2.621-4.315,7.63-1.694,11.187l21.551,29.245   c1.508,2.046,3.898,3.254,6.44,3.254h32.837l-3.589-16H295.54z"/><polygon points="323.821,123.706 327.41,139.706 332.796,139.706 329.207,123.706  "/></g></svg>