<?xml version="1.0" ?><svg enable-background="new 0 0 325.9623 232.5899" id="Layer_1" version="1.1" viewBox="0 0 325.9623 232.5899" xml:space="preserve" xmlns="http://www.w3.org/2000/svg" xmlns:xlink="http://www.w3.org/1999/xlink"><g><path d="M30.6941,209.6181c1.8174,1.3999,3.9639,2.0771,6.0937,2.0771c2.9961,0,5.9609-1.3418,7.9297-3.8994l4.4705-5.8056   l-19.4915,6.7342C30.0078,209.0381,30.3343,209.341,30.6941,209.6181z"/><path d="M64.334,171.4439c1.5508,0,3.0674,0.2886,4.5098,0.8569l2.4592,0.9692l0.0542-0.0704l0.1311,0.1434l31.1238,12.2663   l-0.6768,2.2054l-33.9355-13.3745c-2.2197-0.875-4.6777-0.9268-6.9326-0.1479l-54.3301,18.771   c-5.2197,1.8032-7.9893,7.4971-6.1865,12.7173c1.4307,4.1392,5.3057,6.7373,9.4521,6.7373   c1.082-0.0005,2.1846-0.1777,3.2656-0.5513l50.8369-17.564l31.9451,12.5903l9.8035,3.8638l15.7991-0.5706   c8.3705-3.0262,15.0498-4.5493,20.5376-5.1428l18.4413-22.1044c1.764-2.1141,4.3541-3.2643,7.1068-3.1563   c1.9536,0.0767,3.7819,0.7808,5.2866,2.0356c1.8054,1.506,2.9166,3.6245,3.1277,5.9656c0.212,2.3412-0.5011,4.6246-2.0076,6.4296   l-10.8938,13.0579c4.0004,1.0884,7.5354,1.9172,11.9231,0.9728c7.9224-1.7041,12.4943-6.0933,14.1598-11.2578l-12.4576-17.0314   c-1.4562-1.6946-3.0022-3.9035-4.3799-6.4103c-4.6033-3.3534-9.6252-6.7913-12.5886-8.1436   c0.0959-0.2827,0.1338-0.5892,0.0815-0.9044c-0.1692-1.0224-1.1353-1.7141-2.1576-1.5449   c-0.9982,0.1652-1.6752,1.0907-1.5494,2.0859c-5.7351,1.229-12.5521,6.6816-9.4104,13.7291   c-19.7766,3.4268-34.7673,1.4579-43.2388,0.0087L78.0857,150.913c-1.9941-2.1821-4.8613-3.3633-7.8037-3.2461   c-2.9521,0.1245-5.6992,1.5483-7.502,3.8901l-20.6782,26.8547l18.2146-6.2931C61.6123,171.6709,62.9639,171.4439,64.334,171.4439z"/><path d="M171.5523,183.6848c-2.7576-2.2994-6.8544-1.9286-9.1547,0.8276L139.513,211.943l-38.0353,1.3734   c-3.5869,0.1294-6.3909,3.1428-6.261,6.7303c0.1238,3.4206,2.8683,6.1284,6.2338,6.2606c0.1641,0.0064,0.3301,0.0066,0.4966,0.0004   l40.9341-1.478c1.845-0.0663,3.5739-0.9142,4.7563-2.3318l24.7419-29.6578C174.6797,190.0833,174.309,185.9846,171.5523,183.6848z"/><path d="M227.7119,207.8839c2.28-1.3483,4.355-3.1279,6.0725-5.3523c7.2571-9.3985,5.521-22.9004-3.8776-30.1573   c-4.464-3.4469-9.8517-4.8414-15.0585-4.3732c-4.1619,1.8408-8.0613,4.069-11.292,6.8597L227.7119,207.8839z"/><path d="M239.0662,71.1905c0.3955,0,0.7969,0.0229,1.1924,0.0686l3.0262,0.3478c-3.0682-2.4302-7.4777-4.3684-13.7932-5.3803   c-16.5602-2.6533-18.1544-8.6981-17.1331-13.1243s-9.4854,4.9031-0.5599,17.2875c3.6533,5.0692,10.816,6.824,17.3645,8.3619   C230.3733,74.3492,234.3794,71.1905,239.0662,71.1905z"/><path d="M253.4126,122.8581c10.8955,4.7206,23.5548-0.2851,28.2754-11.1805c2.1316-4.9195,2.2743-10.1967,0.7931-14.9423   c-0.098,0.0027-0.1952,0.0109-0.2938,0.0109c-0.3916,0-0.7881-0.0227-1.1787-0.0674l-37.6475-4.3274   c-0.4127,0.7142-0.793,1.4561-1.1289,2.2313C237.5116,105.4781,242.5174,118.1374,253.4126,122.8581z"/><path d="M297.0496,40.4742c1.3613,0,2.6934,0.2673,3.958,0.7947c5.2422,2.1841,7.7305,8.2263,5.5459,13.4688l-14.8623,35.6697   c-0.4513,1.0826-1.0754,2.0526-1.8252,2.8947c0.3804,4.3183,0.4828,8.6109,0.1562,12.7595   c-0.0103,2.4081,0.1069,4.4156,0.3499,6.1007l-20.6523,26.3933l10.6531,3.527l29.3506-30.2261   c1.6729-1.7212,3.915-2.6689,6.3145-2.6689c2.3018,0,4.4785,0.8833,6.1299,2.4868c0.0511,0.0496,0.0951,0.1044,0.1448,0.155   c0.8118-1.2278,1.3789-2.553,1.7111-3.9191c0.689-1.8443,1.2223-3.9548,1.5577-6.3843   c1.3672-22.3231-0.8118-35.3562-8.7096-55.1267c-5.8285-14.3453-18.4385-18.2963-26.8466-15.7056   c-8.4058,2.5925-11.5026,14.6921-8.0935,24.4705c0.2578,1.0182,0.5317,2.0776,0.8123,3.157l4.7939-11.5064   C289.1433,42.9629,292.8767,40.4742,297.0496,40.4742z"/><path d="M280.0769,160.524l-20.0398-6.6349c-0.1731,1.4556-0.1006,2.9457,0.2517,4.4058l15.1924,62.9727   c1.3818,5.7261,6.5,9.5713,12.1416,9.5713c0.9697,0,1.9561-0.1138,2.9414-0.3516c6.7109-1.6191,10.8389-8.3721,9.2197-15.083   l-13.3235-55.2247c-1.1305,0.5099-2.3635,0.7907-3.6179,0.7907C281.9002,160.9702,280.9705,160.8203,280.0769,160.524z"/><ellipse cx="258.9625" cy="22.5006" rx="22.5" ry="22.5" transform="matrix(0.9755 -0.2199 0.2199 0.9755 1.3924 57.5074)"/><path d="M281.2703,94.3936c0.3066,0.0352,0.6133,0.0525,0.917,0.0525c3.1973,0,6.1279-1.9175,7.3809-4.9233l14.8623-35.6697   c1.6992-4.0784-0.2295-8.7622-4.3076-10.4614c-4.0762-1.6992-8.7617,0.2285-10.4619,4.3076L277.115,77.8106l-37.1191-4.2666   c-4.4062-0.5071-8.3564,2.6455-8.8604,7.0342c-0.5049,4.3894,2.6445,8.3567,7.0342,8.8613L281.2703,94.3936z"/><path d="M203.5242,212.5899H167.908c-5.5225,0-10,4.4771-10,10s4.4775,10,10,10h55.3213c3.7666,0,7.2129-2.1162,8.917-5.4746   c1.7051-3.3584,1.3779-7.3896-0.8457-10.4292l-30.8125-42.1235c7.6152-7.5029,19.374-11.3164,28.8564-13.9458   c3.4502,14.2046,13.9414,10.2412,18.3271,4.7827c0.3857,0.2637,0.8672,0.3877,1.3643,0.3057   c1.0225-0.1694,1.7148-1.1353,1.5449-2.1577c-0.1299-0.7891-0.7363-1.376-1.4756-1.5273   c0.1533-2.4995-0.3047-6.7891-0.8955-10.9795c0.0579-0.3256,0.1182-0.6636,0.1819-1.0071l-9.2122-3.05   c-2.2314-0.7388-4.042-2.3022-5.0977-4.4028c-1.0557-2.1001-1.2295-4.4854-0.4912-6.7168   c1.1963-3.6108,4.5537-6.0361,8.3545-6.0361c0.9385,0,1.8691,0.1509,2.7666,0.4482l11.6038,3.8418   c-1.8616-8.5213-9.7572-14.7208-21.9133-11.5205c-13.2998,3.5-11.9092,18.1992-49.4609,22.5859   c-21.9121,2.5596-14.4121,24.022-6.2627,33.4399L203.5242,212.5899z"/><path d="M243.9881,132.459c-3.4062-1.1289-7.085,0.7202-8.2139,4.1274c-1.1279,3.4077,0.7197,7.0854,4.1279,8.2134l40.8984,13.541   c0.6699,0.2222,1.3584,0.3296,2.042,0.3296c1.7295,0,3.4199-0.6904,4.6641-1.9717L320.7,122.5157   c2.501-2.5757,2.4404-6.6909-0.1348-9.1914c-2.5752-2.5015-6.6904-2.4399-9.1914,0.1348l-30.3555,31.2602L243.9881,132.459z"/></g></svg>