<?xml version="1.0" ?><svg enable-background="new 0 0 251.4497 185.2065" id="Layer_1" version="1.1" viewBox="0 0 251.4497 185.2065" xml:space="preserve" xmlns="http://www.w3.org/2000/svg" xmlns:xlink="http://www.w3.org/1999/xlink"><g><path d="M147.9728,55.3305c-0.6042-1.788-1.9767-3.2999-3.8825-4.0121c-3.3618-1.2568-7.1069,0.4521-8.3638,3.8135l-1.6496,4.4149   c1.3011-0.5556,2.7504-1.0543,4.4025-1.4633C142.0118,57.2089,145.1553,56.2868,147.9728,55.3305z"/><path d="M85.5684,120.8432c-4.4746-1.8765-6.5884-7.0435-4.7119-11.5186c1.3755-3.2793,4.562-5.3979,8.1187-5.3979   c1.1699,0,2.314,0.2305,3.3999,0.686l9.292,3.8969c-0.0792-0.761-0.207-1.509-0.3831-2.2401l25.5887-1.418   c2.5771-0.1426,4.8257-1.7969,5.729-4.2148l2.038-5.4541c-2.7314-2.6455-5.5373-6.2587-7.5776-10.2588   c-3.5591,9.3901-12.8664,15.8708-23.4241,15.353c-5.8126-0.2852-11.0388-2.6467-15.0029-6.3267l-6.1882,0.3428   c-0.7112,0.0396-1.3873,0.196-2.0159,0.4429c-0.2213,0.0408-0.4343,0.0906-0.6491,0.1383   c-0.5374,6.6898-1.4266,13.9305-6.1729,18.6141c-7.4319,7.3342-14.562,6.1738-17.2822,5.3346   c-2.5027-0.7721-5.2646-2.5261-4.8127-4.9283c0.2125-1.1328,1.2516-2.3972,3.4787-2.2355   c1.6913,0.1227,2.9822-0.2853,4.0624-1.2853c0.9715-0.8989,2.0508-2.5647,2.8118-5.6318   c-6.506,3.1909-15.9135,5.8035-32.3753,5.4745c-24.8843-0.4973-15.9477,27.9308-8.0728,35.6373   c0.6044,0.7222,1.3082,1.3799,2.1238,1.9373l22.873,15.6309H10.5c-5.7988,0-10.5,4.7012-10.5,10.5s4.7012,10.5,10.5,10.5h69.8911   c4.605,0,8.6724-3,10.0317-7.3994c1.3599-4.3994-0.3057-9.1719-4.1074-11.7695l-40.2665-27.5166   c6.7852-2.5095,15.1569-4.8217,25.3377-6.1965c1.4693,14.3452,12.1301,12.1084,17.302,7.4231   c0.2994,0.2397,0.6744,0.3892,1.088,0.3892c0.9665,0,1.75-0.7834,1.75-1.75c0-0.641-0.3484-1.1956-0.8624-1.5005   c0.5815-2.3384,0.7319-6.9574,0.7139-11.4863c0.1221-0.3792,0.2489-0.771,0.3843-1.1744L85.5684,120.8432z"/><path d="M81.0325,75.3397c0.0593-1.2097,0.2097-2.3936,0.4419-3.5466c-7.5842,1.4244-16.233,6.1489-16.3123,23.2142   c-0.0779,16.7712-5.806,19.2751-10.3366,18.9458s6.302,8.6196,17.1683-2.1023c8.3714-8.26,3.2438-26.9872,9.2224-32.2102   C81.0303,78.2382,80.9608,76.8019,81.0325,75.3397z"/><path d="M125.6534,81.76c-1.4224-3.7239-2.0609-7.6356-1.3048-11.3186c0.1158-0.5641,0.2754-1.1526,0.4822-1.7535   c-2.99-7.646-10.2429-13.2281-18.974-13.6563c-11.8599-0.5817-21.9457,8.5611-22.5274,20.421   c-0.5817,11.8599,8.5611,21.9457,20.421,22.5275C114.165,98.4907,123.2094,91.5017,125.6534,81.76z"/><path d="M209.2139,43.2319c-1.7808-9.8208-10.9897-16.7939-23.9609-11.5552c-12.7524,5.148-9.521,19.5542-46.2207,28.6392   c-22.6338,5.6025-10.0117,28.0117-0.4292,35.2598l3.3984,3.6118l4.3081-4.1104c1.644-1.5693,3.8013-2.4336,6.0737-2.4336   c2.4302,0,4.6914,0.9683,6.3682,2.7261c1.6226,1.7002,2.4858,3.9312,2.4307,6.2808c-0.0557,2.3501-1.0225,4.5376-2.7236,6.1602   l-4.3964,4.1948l12.7797,13.582l-7.6006,48.0552c-0.8633,5.4551,2.8594,10.5767,8.3145,11.4399   c0.5298,0.0835,1.0552,0.124,1.5747,0.124c4.834-0.0005,9.0859-3.5137,9.8652-8.439l8.3667-52.8989   c0.4793-3.0298-0.4615-6.1078-2.5443-8.3555l-0.072,0.3174c-0.9146,4.0361-4.4414,6.855-8.5762,6.855   c-0.6528,0-1.3096-0.0737-1.9521-0.2192c-2.292-0.5195-4.2446-1.9009-5.498-3.8896s-1.6572-4.3462-1.1377-6.6387l2.6948-11.8853   l-12.9775-13.792c4.8138-3.8453,10.9732-8.0802,18.8516-12.1152l6.1835-27.272c0.9146-4.0356,4.4409-6.8545,8.5762-6.8545   c0.6533,0,1.3096,0.0732,1.9512,0.2188c2.293,0.5195,4.2456,1.9009,5.499,3.8896s1.6572,4.3462,1.1377,6.6387l-6.3037,27.8021   c4.5934,0.6689,9.239-3.2267,11.1353-7.0349c0.79,0.229,1.6563-0.1244,2.044-0.8843c0.4392-0.8609,0.0974-1.9149-0.7635-2.3541   c-0.2822-0.144-0.5844-0.1963-0.8796-0.1817c-0.153-1.3306-0.4758-2.9991-0.8908-4.8111   c-0.3766-1.6447-0.8291-3.4055-1.3054-5.1495C202.717,54.4374,202.848,49.5646,209.2139,43.2319z"/><path d="M225.3906,2.9445c-6.041-3.818-14.6351-5.3967-26.0839,4.5956c-12.6356,11.0281-18.3009,8.3854-21.0488,4.7682   c-2.7479-3.6172-2.3016,10.4266,12.9266,11.4923c6.1508,0.4305,12.0081-3.8303,17.3236-7.8327   C211.8011,9.1304,218.1476,4.3687,225.3906,2.9445z"/><ellipse cx="229.9444" cy="26.3007" rx="21.5" ry="21.5" transform="matrix(0.8645 -0.5026 0.5026 0.8645 17.9303 119.1241)"/><path d="M197.2554,50.2573c0.7939-3.501-1.4004-6.9829-4.9014-7.7764c-3.5034-0.793-6.9834,1.4009-7.7764,4.9014l-14.7524,65.0645   c-0.7939,3.501,1.4004,6.9829,4.9014,7.7764c0.4844,0.1099,0.9673,0.1626,1.4434,0.1626c2.9683,0,5.6494-2.0474,6.333-5.064   L197.2554,50.2573z"/><path d="M123.397,120.1166l-31.9116-13.3828c-3.3101-1.3882-7.1196,0.1704-8.5078,3.4805   c-1.3882,3.3105,0.1699,7.1196,3.4805,8.5078l35.8345,15.0278c0.8115,0.3403,1.665,0.5059,2.5122,0.5059   c1.6406,0,3.2559-0.6211,4.4883-1.7969l27.5781-26.3125c2.5977-2.478,2.6943-6.5923,0.2163-9.1895   c-2.478-2.5977-6.5933-2.6943-9.1899-0.2158L123.397,120.1166z"/></g></svg>