<?xml version="1.0" ?><svg id="Layer_1" style="enable-background:new 0 0 293.481 117.803;" version="1.1" viewBox="0 0 293.481 117.803" xml:space="preserve" xmlns="http://www.w3.org/2000/svg" xmlns:xlink="http://www.w3.org/1999/xlink"><g><path d="M181.037,67.655c7.971,1.878,17.624,5.13,28.57,10.951c1.701,12.586,11.658,15.294,17.461,12.813l-4.73-20.377   c-0.531-2.29-0.14-4.649,1.104-6.644c1.243-1.995,3.189-3.386,5.479-3.917c0.656-0.152,1.327-0.229,1.995-0.229   c4.113,0,7.636,2.801,8.566,6.811l2.65,11.416c0.437,0.019,0.864,0.032,1.329,0.071c5.969-7.264,5.742-17.917-4.656-24.564   c-3.873,0.237-7.67-0.175-11.008-2.048c-0.799-0.448-1.513-0.916-2.19-1.392c-8.653-0.085-19.446,0.772-40.578-14.459   c-13.155-9.482-21.472-0.698-25.094,9.566l1.357-0.24c0.593-0.105,1.199-0.159,1.8-0.159c5.002,0,9.264,3.579,10.135,8.51   c0.479,2.71-0.126,5.443-1.703,7.697s-3.938,3.759-6.647,4.237l-5.614,0.992l6.949,30.113H119.91c-5.799,0-10.5,4.701-10.5,10.5   s4.701,10.5,10.5,10.5h59.5c3.2,0,6.225-1.459,8.217-3.963c1.992-2.504,2.733-5.78,2.015-8.897L181.037,67.655z"/><path d="M237.242,67.583c-0.812-3.497-4.301-5.672-7.802-4.862c-3.497,0.812-5.674,4.305-4.862,7.801l9.75,42   c0.685,2.945,3.309,5.03,6.332,5.03h43.25c3.59,0,6.5-2.91,6.5-6.5s-2.91-6.5-6.5-6.5h-38.086L237.242,67.583z"/><path d="M228.923,49.933c10.261,5.757,26.85-4.382,33.521-0.072c1.291-0.564,2.646-1.027,4.065-1.361   c1.179-0.278,2.358-0.462,3.53-0.558c-3.47-6.892-10.407-13.893-26.826-9.24c-16.136,4.573-20.129-0.237-21.068-4.681   S215.609,42.463,228.923,49.933z"/><ellipse cx="271.976" cy="71.662" rx="21.5" ry="21.5" transform="matrix(0.9733 -0.2297 0.2297 0.9733 -9.1888 64.3971)"/><path d="M93.31,21.748c1.674-1.086,3.609-1.66,5.599-1.66c3.508,0,6.74,1.755,8.648,4.694l5.34,8.229   c1.981-3.297,2.743-6.961,1.632-10.441C111.851,14.189,101.404,6.098,86.3,9.51c-20.738,4.814-32.68,10.472-50.219,24.348   c-12.052,11.124-7.659,21.381-2.743,29.116c1.004,1.579,1.927,2.955,2.859,4.084l17.015,25.331L12.5,92.389   c-6.904,0-12.5,5.597-12.5,12.5s5.597,12.5,12.5,12.5l64.167-0.001c4.618,0,8.859-2.546,11.031-6.621s1.92-9.016-0.655-12.849   L61.308,59.607c11.107-6.714,24.14-11.376,34.44-15.178l-5.472-8.434C87.185,31.231,88.545,24.841,93.31,21.748z"/><ellipse cx="141.268" cy="22.503" rx="22.5" ry="22.5" transform="matrix(0.8386 -0.5448 0.5448 0.8386 10.547 80.5978)"/><path d="M164.475,63.433c4.352-0.769,7.255-4.919,6.486-9.27c-0.769-4.352-4.933-7.257-9.27-6.486l-37.699,6.661l-18.365-28.305   c-2.405-3.706-7.359-4.762-11.065-2.356s-4.762,7.359-2.356,11.065l21.25,32.75c1.491,2.299,4.031,3.646,6.709,3.646   c0.462,0,0.929-0.04,1.394-0.122L164.475,63.433z"/></g></svg>