<?xml version="1.0" ?><svg enable-background="new 0 0 269.2224 244.9363" id="Layer_1" version="1.1" viewBox="0 0 269.2224 244.9363" xml:space="preserve" xmlns="http://www.w3.org/2000/svg" xmlns:xlink="http://www.w3.org/1999/xlink"><g><path d="M259.4766,95.5245l-42.7656,9.554l-29.9531-24.5637c-0.3509-0.2877-0.7222-0.5317-1.103-0.7501   c-2.4048-1.9388-5.4611-2.7268-8.7085-2.5514c-1.3625-0.6951-2.9396-1.0093-4.5771-0.8164l-49.4717,5.8718L85.1611,51.0794   c-0.467-0.3859-0.9667-0.7039-1.4853-0.9669c-1.8121-1.0945-3.8214-1.7183-5.9633-1.7057   c-8.7985,0.05-19.641,7.6051-20.8958,23.0383c-0.4923,6.5308-0.6563,12.2877-0.4193,17.741L44.2771,61.8383   c-0.6641-2.3482-1.6577-4.556-2.915-6.4796c-0.2809-0.4975-0.6095-0.9541-0.9767-1.3682   c-2.6495-3.3949-6.2082-5.6074-10.2325-5.5839c-8.7985,0.05-19.641,7.6051-20.8958,23.0383   c-1.6005,21.2303,0.2318,34.3148,8.235,55.1986c3.9993,8.4508,9.3257,11.7137,14.8057,12.5196l12.4014,39.694l-10.79,50.8323   c-1.4336,6.7532,2.8789,13.3896,9.6318,14.8232c0.875,0.1858,1.748,0.2751,2.6084,0.2751   c5.7773-0.0002,10.9668-4.0291,12.2148-9.907l11.4697-54.0327c0.4453-2.0984,0.3438-4.2759-0.2959-6.3232L54.004,124.8036   c-0.2089-0.9691-0.4825-2.0225-0.8195-3.164l-11.1786-4.2028c-2.5713-0.967-4.6836-2.9631-5.7959-5.4763l-16.208-36.666   c-2.2959-5.1946,0.0625-11.2886,5.2568-13.5847c1.3223-0.585,2.7217-0.8816,4.1592-0.8816c4.0772,0,7.7764,2.4089,9.4258,6.1372   l14.459,32.7109l32.7823,12.3248c-0.6109-0.686-1.1355-1.454-1.5499-2.2946L67.7461,75.6885   c-2.5137-5.0933-0.415-11.2815,4.6777-13.7947c1.4326-0.7068,2.9639-1.0649,4.5518-1.0649c3.9531,0,7.4941,2.2004,9.2432,5.7427   l7.1722,14.5325c-0.05-0.8729-0.0957-1.7295-0.1404-2.5811l22.0932,18.2599c1.4414,1.1912,3.2461,1.8335,5.0967,1.8335   c0.3135,0,0.6279-0.0183,0.9434-0.0557l29.9596-3.5559c-5.1214,4.959-10.8045,10.1647-16.8823,14.7154l6.9236,2.655   c5.3037,2.0337,7.9629,8.0024,5.9297,13.3049c-1.5166,3.9563-5.3828,6.6145-9.6191,6.6145c-1.2607,0-2.5-0.2305-3.6855-0.6851   l-20.5212-7.8691c-0.2854,0.3398-0.5339,0.6766-0.7484,1.0111c-3.8668,4.6387-3.9125,11.5202,0.1885,16.2113l34.4531,39.4153   l-27.0146,45.6946c-3.5137,5.9426-1.5449,13.6082,4.3984,17.1216c1.9961,1.1807,4.1865,1.7422,6.3496,1.7419   c4.2744-0.0002,8.4385-2.1943,10.7715-6.1404l31.6162-53.4763c2.7461-4.6443,2.2021-10.5261-1.3486-14.5881l-23.7101-27.1245   c11.8098-6.37,20.012-12.4786,28.1-21.0438l-11.0071-19.6464c-2.7754-4.9551-1.0029-11.2444,3.9521-14.0203   c1.5361-0.8604,3.2744-1.3149,5.0264-1.3149c3.7285,0,7.1748,2.0181,8.9941,5.2668l6.5978,11.7763   c0.0718-0.1667,0.1406-0.3329,0.2084-0.4993l19.2621,15.7962c1.4443,1.1843,3.2412,1.814,5.0732,1.814   c0.5811,0,1.166-0.0632,1.7441-0.1924l46.5694-10.4036c4.3125-0.9634,7.0264-5.2397,6.0635-9.5518   C268.0654,97.2754,263.7881,94.5623,259.4766,95.5245z"/><path d="M181.5029,93.9722c-2.1592-3.8555-7.0371-5.2271-10.8896-3.0691c-3.8545,2.1594-5.2285,7.0349-3.0693,10.8894   l20.7246,36.991c1.1016,1.9661,2.9814,3.3762,5.1768,3.884l45.3301,10.4861c0.6064,0.1404,1.2129,0.2075,1.8096,0.2075   c3.6396,0,6.9316-2.5007,7.7871-6.1987c0.9961-4.3047-1.6865-8.6013-5.9912-9.5972l-41.8828-9.6887L181.5029,93.9722z"/><ellipse cx="106.1751" cy="33.5147" rx="22.5" ry="22.5" transform="matrix(0.5101 -0.8601 0.8601 0.5101 23.1872 107.74)"/><ellipse cx="206.0834" cy="60.8725" rx="22.5" ry="22.5" transform="matrix(0.5101 -0.8601 0.8601 0.5101 48.6 207.0737)"/><path d="M95.9787,117.0261c2.4171,2.7662,3.2805,6.7403,1.9002,10.4129c-1.502,3.9939-5.377,6.6775-9.6426,6.6775   c-1.2373,0-2.4561-0.2224-3.624-0.6609l-19.796-7.4427c0.0811,0.2134,0.153,0.4156,0.2354,0.6307   c3.9992,8.4508,9.3256,11.7137,14.8057,12.5196l12.4014,39.694l-10.79,50.8323c-1.4336,6.7532,2.8789,13.3896,9.6318,14.8232   c0.875,0.1858,1.748,0.2751,2.6084,0.2751c5.7773-0.0002,10.9668-4.0291,12.2148-9.907l11.4697-54.0327   c0.4453-2.0984,0.3438-4.2759-0.2959-6.3232l-15.5339-49.7208c-0.2883-1.3378-0.6962-2.8307-1.2303-4.5035   c-0.2476-0.614-0.4694-1.2462-0.6992-1.8729L95.9787,117.0261z"/><path d="M90.9072,112.6182l43.9258,16.844c0.9424,0.3613,1.9102,0.5325,2.8623,0.5325c3.2178,0,6.251-1.9546,7.4717-5.1379   c1.582-4.1252-0.4805-8.752-4.6055-10.334l-41.002-15.7227L84.1562,67.5896c-1.9561-3.9627-6.7529-5.5877-10.7148-3.6333   c-3.9619,1.9553-5.5879,6.7524-3.6328,10.7144l16.7891,34.0183C87.4883,110.4944,89.0273,111.8973,90.9072,112.6182z"/><ellipse cx="22.5054" cy="22.5055" rx="22.5" ry="22.5" transform="matrix(0.8082 -0.5889 0.5889 0.8082 -8.9368 17.568)"/><path d="M91.0527,116.326l-39.4629-14.8367L36.7402,67.8958c-1.7881-4.0425-6.5137-5.8687-10.5518-4.0825   c-4.041,1.7864-5.8691,6.5103-4.083,10.5513l16.208,36.6655c0.8691,1.9648,2.4912,3.4978,4.502,4.2539l42.6064,16.0186   c0.9277,0.3486,1.8789,0.5139,2.8145,0.5139c3.2363,0,6.2832-1.9785,7.4893-5.1868   C97.2803,122.4939,95.1885,117.8809,91.0527,116.326z"/></g></svg>