<?xml version="1.0" ?><svg data-name="Layer 1" id="Layer_1" viewBox="0 0 10 10" xmlns="http://www.w3.org/2000/svg"><title/><path d="M5.34408,1.90267a.07068.07068,0,0,0-.03228-.03876A.28894.28894,0,0,0,5.249,1.59772a.44511.44511,0,0,0-.28089-.13932.46841.46841,0,0,0-.493.2985.39232.39232,0,0,0-.02281.16714.31736.31736,0,0,0,.01741.07992.66369.66369,0,0,0,.04649.07968.01042.01042,0,0,0,.019-.00843.35364.35364,0,0,1-.00634-.09266.65484.65484,0,0,1,.00381-.0791.46742.46742,0,0,1,.03756-.14414.36786.36786,0,0,1,.23464-.19707.38477.38477,0,0,1,.30659.03865.33653.33653,0,0,1,.15795.25555.07756.07756,0,0,0-.02925.01072.09059.09059,0,0,0-.03863.04878c-.00909.02858.00372.04212.01142.06851a.01087.01087,0,0,0,.02147-.00339c-.00038-.01125.01153-.0211.01922-.02787l.0186-.01785c.01192.0056.02171.0779.02406.091a.46225.46225,0,0,1-.009.1733.02209.02209,0,0,0,.03565.01912.16768.16768,0,0,0,.05182-.13885A.5749.5749,0,0,0,5.34408,1.90267Z"/><path d="M6.02032,2.6477a.33537.33537,0,0,0-.22693-.088.65364.65364,0,0,1-.2379-.07193.96383.96383,0,0,1-.10911-.0676.98638.98638,0,0,1-.10542-.0729c-.00884-.00857-.02108.003-.016.01306a.45857.45857,0,0,0,.0535.10456.50731.50731,0,0,0,.08888.08148.5931.5931,0,0,0,.22722.09724.7362.7362,0,0,1,.24155.051.45182.45182,0,0,1,.14693.18487c.00617.01181.02165.00233.01967-.00881A.42667.42667,0,0,0,6.02032,2.6477Z"/><path d="M5.2459,2.34633c-.00872-.014-.02785-.00591-.03354.00558-.02007.04052-.03435.08263-.0566.12274a.25343.25343,0,0,1-.09709.10815c-.01461.00841-.03055.02766-.04565.03351-.01623.0063-.03728-.01138-.05324-.01989a1.00875,1.00875,0,0,1-.10336-.05981.79416.79416,0,0,1-.163-.16411c-.00541-.0068-.03205-.04531-.05066-.07285l.0025-.0007L4.647,2.29833l.00387-.00114L4.655,2.295l.008-.00619.00079-.00059.00269-.0012a.0217.0217,0,0,0-.01215-.04122.05883.05883,0,0,0-.02686.0105l-.007.00882a.45169.45169,0,0,1-.05789-.11105c-.00293-.01143-.02109-.00875-.01829.00289a1.17966,1.17966,0,0,0,.028.13871.59661.59661,0,0,0,.067.1292.54191.54191,0,0,0,.06987.08237,2.48535,2.48535,0,0,0-.2139.23739.54444.54444,0,0,0-.038.384.01858.01858,0,0,0,.03552.00355,1.0418,1.0418,0,0,0,.01539-.2045.30983.30983,0,0,1,.07506-.16276c.05808-.07086.1416-.12959.16967-.21862a.80392.80392,0,0,0,.11118.076.24944.24944,0,0,0,.12825.04438c.06148-.00284.0857-.03584.13224-.07011a.35375.35375,0,0,0,.11869-.1101A.14592.14592,0,0,0,5.2459,2.34633Z"/><path d="M5.12741,1.90756a.57466.57466,0,0,1-.138-.00646.21286.21286,0,0,1-.08523-.02549L4.908,1.86649A.50382.50382,0,0,0,4.92581,1.742a.01438.01438,0,0,0-.02766-.00642.4395.4395,0,0,1-.06807.10332.54486.54486,0,0,1-.09555.07671.44106.44106,0,0,0-.15471.18774.01212.01212,0,0,0,.01887.01349c.03684-.02609.06621-.06212.103-.089.03942-.02873.08339-.04837.12486-.07364a.29287.29287,0,0,0,.03405-.024.14152.14152,0,0,0,.09269.05516.206.206,0,0,0,.18811-.04657C5.15266,1.927,5.14647,1.9043,5.12741,1.90756Z"/><path d="M5.80056,3.853a.08358.08358,0,0,0-.03627.00245.43757.43757,0,0,0-.01288-.15142.97513.97513,0,0,1-.03346-.255.60361.60361,0,0,0,.00639-.23187.60189.60189,0,0,0-.05116-.10539c-.01707-.03063-.03146-.06341-.05039-.09283a.01345.01345,0,0,0-.02292.00381.36232.36232,0,0,0,.036.18863.96749.96749,0,0,1,.02928.116.35976.35976,0,0,1-.00715.1314.57275.57275,0,0,0-.01641.12161,1.04191,1.04191,0,0,0,.01093.11629,1.47414,1.47414,0,0,0,.03309.20759c-.02141.01934-.04038.04043-.055.0565a1.24279,1.24279,0,0,0-.13043.17744c-.03871.06145-.07679.12347-.11831.18309-.02149.03086-.04481.06068-.069.08951a.28849.28849,0,0,0-.06782.09358c-.00169.00555.0027.01322.00937.01145a.38617.38617,0,0,0,.16762-.122,1.47382,1.47382,0,0,0,.13346-.17929A2.00841,2.00841,0,0,1,5.68045,4.039a.73.73,0,0,1,.07328-.0748c.02379-.0214.0582-.04446.06923-.0753A.02712.02712,0,0,0,5.80056,3.853Z"/><path d="M5.22226,4.87874a.03114.03114,0,0,0-.03768-.04606.75151.75151,0,0,0-.13852.10319.46613.46613,0,0,1-.079.06347.23553.23553,0,0,1-.08886.00484,1.58008,1.58008,0,0,0-.16427.02274.72587.72587,0,0,1-.177.00375.01484.01484,0,0,0-.00662.02855.72939.72939,0,0,0,.17938.06057A.3462.3462,0,0,0,4.901,5.10461a.40745.40745,0,0,0,.06037-.04139,1.02546,1.02546,0,0,0,.001.14223c.00347.06932.0089.13854.01236.20787.00345.06908.008.13808.01444.207.00706.07506.02845.15.02861.22534,0,.01791.02781.021.028.0028.00084-.0719.01965-.142.02419-.21392a2.0092,2.0092,0,0,0,.001-.21124c-.003-.072-.00639-.14432-.01283-.21613a.716.716,0,0,0-.03131-.17549.25987.25987,0,0,0,.046-.01974.73462.73462,0,0,1,.02413.08762,1.45324,1.45324,0,0,1,.00693.15315c.00128.046.00466.09218.00828.13808.00427.0541.019.10908.01967.16315.00021.01548.02417.01836.02437.00244.00069-.05559.0154-.11176.01976-.16741.00439-.05608.00757-.11226.009-.16848a.41329.41329,0,0,0-.04672-.25233A.32451.32451,0,0,0,5.22226,4.87874Z"/><path d="M4.97126,4.6077a.032.032,0,0,0-.01248-.01852.1971.1971,0,0,0-.11312-.03136c-.03491-.00194-.09864.00164-.11889-.03384-.00781-.01368-.03237-.0095-.02854.00842a.12722.12722,0,0,0,.1139.09905c.01841.003.03687.00477.05532.00672l-.01319.00843c-.037.02239-.07154.04827-.10792.07158a.462.462,0,0,1-.11949.0534.553.553,0,0,1-.12418.03158c-.01576.00058-.01246.023.00073.02564a.43653.43653,0,0,0,.24879-.04253c.04331-.01863.08636-.03911.12761-.062.03717-.02059.0881-.03823.10428-.07972A.03057.03057,0,0,0,4.97126,4.6077Z"/><path d="M5.18094,4.52752c-.02317-.01971-.05488-.00861-.083-.0159a.92109.92109,0,0,1-.0992-.03519.25032.25032,0,0,0-.0922-.018c-.033.00006-.06285.01193-.09506.01337-.01132.00051-.00845.01788.00275.01738.12541-.0056.21533.12526.34437.103a.04014.04014,0,0,0,.03248-.03439l.00111-.00565A.02717.02717,0,0,0,5.18094,4.52752Z"/><path d="M4.77934,4.79548c-.05132.008-.10054.0311-.15094.04386-.05089.01288-.10371.02088-.154.03552-.008.00232-.01261.01611-.00187.01871A.41182.41182,0,0,0,4.637,4.894a.37924.37924,0,0,0,.16068-.05746A.02345.02345,0,0,0,4.77934,4.79548Z"/><path d="M4.78431,4.90354a.34113.34113,0,0,0-.13209.01709c-.047.01049-.09206.02618-.13855.0376a.01115.01115,0,0,0,.00063.022.4289.4289,0,0,0,.28318-.03308A.025.025,0,0,0,4.78431,4.90354Z"/><path d="M4.775,4.34753A.3843.3843,0,0,0,4.65365,4.278a.527.527,0,0,0-.00124-.13259.62778.62778,0,0,1,.0066-.17265A.95365.95365,0,0,0,4.67865,3.815c.00183-.05328.00622-.10552.01222-.15848a.92666.92666,0,0,0-.02245-.29889c-.011-.05219-.02116-.10494-.03674-.156-.01664-.05452-.04161-.10578-.059-.16014-.00615-.01919-.03446-.00871-.03247.00958.00569.05253.00387.10532.00955.15771a1.52438,1.52438,0,0,0,.02856.15471.80605.80605,0,0,1,.027.308c-.00841.05027-.02391.09913-.0326.14933a.58512.58512,0,0,0-.00364.15332.83031.83031,0,0,1-.00324.1576.62612.62612,0,0,0-.00769.12947.27149.27149,0,0,0-.03985.00245.29527.29527,0,0,0-.12391.0493,1.5121,1.5121,0,0,1,.00794-.24924c.01132-.09281.01984-.187.03429-.27933.00759-.0485.026-.09138.03777-.13835a1.02871,1.02871,0,0,0,.02091-.13469c.00543-.04859.009-.09787.00985-.14674.00084-.04959-.00973-.09912-.00619-.14845A.0111.0111,0,0,0,4.47679,3.214a1.01812,1.01812,0,0,1-.03405.14442q-.017.07609-.03191.15274a.77519.77519,0,0,0-.0216.1455.66972.66972,0,0,1-.01945.15391,2.33536,2.33536,0,0,0-.05635.28238.3525.3525,0,0,0,.044.24831.43561.43561,0,0,0-.04288.04283.83156.83156,0,0,0-.1431.53109c-.00076.04685.00039.09381.00328.14058a.8157.8157,0,0,1,.00457.14632.31016.31016,0,0,1-.02554.08788.4928.4928,0,0,0-.13442.04067.15464.15464,0,0,0-.105.10007.6705.6705,0,0,0-.01508.17291.96452.96452,0,0,0,.01441.20131A.01553.01553,0,0,0,3.94425,5.804,1.40558,1.40558,0,0,0,3.959,5.6341a.47821.47821,0,0,1,.01783-.15921c.02463-.05524.08328-.0762.13583-.10267a.57144.57144,0,0,0-.03437.07737.58918.58918,0,0,0,.09941.52235.55012.55012,0,0,1,.0972.14142c.01512.0412.01831.08545.03507.12646a.27925.27925,0,0,0,.18272.17577A.0295.0295,0,0,0,4.51825,6.368a.83422.83422,0,0,1-.14514-.15609.58881.58881,0,0,1-.039-.09561c-.0143-.03958-.03807-.07365-.05481-.112-.016-.03673-.02794-.07472-.041-.11252-.01378-.04-.03357-.0778-.04786-.11774a.62418.62418,0,0,1-.03717-.25418.521.521,0,0,1,.07843-.225.37151.37151,0,0,0,.0416-.22334,1.21566,1.21566,0,0,1,.05123-.51175.40579.40579,0,0,1,.04764-.08945.4488.4488,0,0,0-.0208.14232.94834.94834,0,0,0,.02759.16422c.00286.01523.02854.01608.02838-.00081a1.09145,1.09145,0,0,1,.01173-.13283.67685.67685,0,0,1,.02531-.13779.48661.48661,0,0,1,.04573-.10087.28483.28483,0,0,1,.037-.0428.92157.92157,0,0,1,.238.01208A.01467.01467,0,0,0,4.775,4.34753Z"/><path d="M5.157,3.38793c-.01647-.02276-.04408-.031-.06579-.04751-.01845-.014-.03292-.033-.05187-.04608a.01946.01946,0,0,0-.02917.009.13034.13034,0,0,0,.11953.15621A.04461.04461,0,0,0,5.157,3.38793Z"/><path d="M4.68061,6.27185a.70855.70855,0,0,0-.04939-.20766c-.02662-.06647-.06936-.12394-.10036-.18815a1.03054,1.03054,0,0,1-.07746-.41842,3.80791,3.80791,0,0,0-.0435-.47361.01409.01409,0,0,0-.02782.0044C4.39124,5.15,4.35,5.307,4.34785,5.468a1.07612,1.07612,0,0,0,.066.41164c.02671.06694.069.12476.10023.18929A.67276.67276,0,0,1,4.571,6.2601a3.8019,3.8019,0,0,1,.02135.41568c.00092.01945.03116.021.03685.00368A1.058,1.058,0,0,0,4.68061,6.27185Z"/><path d="M4.76214,5.86127a2.32788,2.32788,0,0,1-.11843-.2938c-.01318-.05409-.02344-.10955-.03291-.16441a.82021.82021,0,0,0-.033-.1549.02257.02257,0,0,0-.0414.00126.69982.69982,0,0,0,.0024.30391,1.50611,1.50611,0,0,0,.11208.3,1.52757,1.52757,0,0,1,.0876.64332.0111.0111,0,0,0,.02208.00221A1.06669,1.06669,0,0,0,4.76214,5.86127Z"/><path d="M4.97164,5.72227a.88114.88114,0,0,0-.2142-.50425c-.00824-.009-.02611-.00316-.02319.01039a1.754,1.754,0,0,0,.07945.24069,1.05627,1.05627,0,0,1,.06519.26783,1.62414,1.62414,0,0,1,.00836.27435.51789.51789,0,0,1-.029.12544.15957.15957,0,0,0-.00522.10955.02069.02069,0,0,0,.03552.00355.90875.90875,0,0,0,.05512-.11168.40325.40325,0,0,0,.0364-.1253A1.46934,1.46934,0,0,0,4.97164,5.72227Z"/><path d="M5.78817,4.98463a.24646.24646,0,0,0-.12435.04442c-.04869.02615-.09781.052-.14536.08016-.09938.0589-.19149.12868-.28961.189-.011.00677-.00415.02482.00843.019.10825-.04978.22137-.08825.32863-.141.05-.02461.10059-.05052.14824-.07941.03362-.02039.08158-.05353.08807-.095A.01591.01591,0,0,0,5.78817,4.98463Z"/><path d="M6.4243,7.5393a2.3701,2.3701,0,0,1-.0362-.256,3.79629,3.79629,0,0,0-.05076-.49671.94723.94723,0,0,0-.076-.222c-.03687-.07306-.0904-.13616-.12361-.21115a1.44186,1.44186,0,0,1-.07255-.2357c-.02207-.088-.04528-.17564-.068-.26344-.04535-.17524-.08922-.35082-.13406-.52616a.68224.68224,0,0,0,.0567-.05333.27332.27332,0,0,0,.0611-.10359A.17947.17947,0,0,0,5.9976,5.061a.02668.02668,0,0,0-.04586-.00459c-.02047.02963-.02225.06584-.04563.09549a1.06148,1.06148,0,0,1-.0795.08836,1.72584,1.72584,0,0,1-.20536.16484c-.07822.058-.1574.11457-.23616.17181a1.8839,1.8839,0,0,0-.23707.19543.01092.01092,0,0,0,.01128.01835,1.515,1.515,0,0,0,.27534-.15321c.09212-.06173.18265-.12636.27209-.1919.03283-.02406.06685-.04785.1-.07272a1.91993,1.91993,0,0,0,.07021.41941c.04242.16713.08017.33729.13366.5013.05118.15691.16412.28013.21062.43885a2.29185,2.29185,0,0,1,.062.48794,1.65716,1.65716,0,0,0,.03672.28065c.01069.04356.02572.08579.0393.12848a.68877.68877,0,0,0,.0451.14059.02082.02082,0,0,0,.038-.00115A.40378.40378,0,0,0,6.4243,7.5393Z"/><path d="M6.1778,3.61446A.957.957,0,0,0,6.16,3.31265a1.52238,1.52238,0,0,1-.04756-.3188c.00045-.01163-.01733-.01738-.021-.00487A.64914.64914,0,0,0,6.071,3.2656a1.35813,1.35813,0,0,1,.02816.31c-.00936.10357-.05239.20126-.05661.30543a1.86391,1.86391,0,0,1-.01807.27549,1.38914,1.38914,0,0,1-.123.16062,1.31814,1.31814,0,0,1-.17181.13337c-.06686.04568-.1334.09174-.199.13916-.0356.02572-.07057.05158-.10443.07957-.03346.02765-.06371.06135-.09867.08661-.01278.00924.00249.02663.01522.0186.03956-.025.08593-.042.12743-.0647.03879-.02118.0758-.045.11316-.06861L5.653,4.59666l.00264.02444c.003.03448.00671.06892.0106.10331a.63322.63322,0,0,0,.0507.19732A.01234.01234,0,0,0,5.74032,4.918a.66926.66926,0,0,0,.00524-.09032.44993.44993,0,0,1,.044.03111.61568.61568,0,0,1,.05474.05871c.0216.02341.06675.06221.10064.043a.01193.01193,0,0,0,.00589-.01525c-.00675-.01813-.026-.03173-.03738-.04748-.01458-.0201-.029-.04078-.04514-.05976a.214.214,0,0,0-.12574-.0791L5.7383,4.713c-.00367-.03444-.00678-.06892-.00992-.10342a.42286.42286,0,0,0-.0064-.0581q.0414-.02745.08237-.05551a1.0454,1.0454,0,0,0,.17575-.14516A.52448.52448,0,0,0,6.075,4.22052L6.079,4.21525A.56089.56089,0,0,0,6.118,3.92546C6.12453,3.81934,6.16294,3.71916,6.1778,3.61446Z"/><path d="M4.193,6.76007a.713.713,0,0,0-.05342-.18431,1.19125,1.19125,0,0,1-.05009-.192c-.0152-.07717-.03083-.15413-.04816-.23085-.01811-.08016-.05283-.158-.067-.23864a.01271.01271,0,0,0-.0251.004c.01228.0698.00727.14312.01426.21375s.01768.14138.02885.21144c.00857.05371.01747.10753.02942.16064a1.76748,1.76748,0,0,1-.18669.47047.906.906,0,0,1-.16224.20384c-.032.02889-.06488.05683-.0949.08781-.01456.015-.03058.0299-.0439.04605a.53192.53192,0,0,1-.04385.06127c-.01.00915-.00013.0285.01319.02145.02038-.01079.045-.01358.06615-.02231a.31838.31838,0,0,0,.05834-.0352.531.531,0,0,0,.10156-.09752,2.57514,2.57514,0,0,0,.16877-.22069,1.24081,1.24081,0,0,0,.167-.35722c.00657.02352.01258.04715.01722.07108a.32317.32317,0,0,1-.00759.17593.5414.5414,0,0,1-.11027.14513,1.40054,1.40054,0,0,0-.21422.28919.6704.6704,0,0,0-.02825.06207.09477.09477,0,0,0-.034.01086.28164.28164,0,0,1-.08732.02865c-.02253.0031-.076.01418-.09206-.00645-.00938-.01206-.027.00268-.01824.01492.01538.02153.0203.03969.04477.0529a.1331.1331,0,0,0,.06769.014.31012.31012,0,0,0,.08944-.01712l-.00614.03261a.31088.31088,0,0,0,.04262.196.01092.01092,0,0,0,.02067-.00609A.93712.93712,0,0,1,3.7749,7.53a.55061.55061,0,0,1,.06452-.17257.71449.71449,0,0,1,.10965-.14624c.04265-.04343.09011-.08091.13043-.12675A.46.46,0,0,0,4.193,6.76007Z"/><path d="M5.3513,7.5082a.51178.51178,0,0,0-.24348-.36232c-.00365-.0169-.00787-.03369-.0129-.05028-.02062-.068-.05248-.1322-.0688-.20154a.55834.55834,0,0,1-.00574-.20869,2.52915,2.52915,0,0,1,.128-.41349.56852.56852,0,0,0,.035-.39524.01651.01651,0,0,0-.03128.005,1.28619,1.28619,0,0,1-.03028.22313,2.20764,2.20764,0,0,1-.07892.21047,1.46747,1.46747,0,0,0-.11215.41489.64816.64816,0,0,0,.01611.20708c.01726.06648.04626.12907.06565.19485.01808.06136.021.12567.03744.18735a.44065.44065,0,0,0,.02919.08229.65021.65021,0,0,0,.05716.07661c.009.01331.02822-.00257.01931-.0158a.23771.23771,0,0,1-.021-.09038c-.00421-.03044-.00595-.06105-.00835-.09166l-.00418-.04454a.44242.44242,0,0,1,.07562.08245.45494.45494,0,0,1,.06635.16129.58443.58443,0,0,1-.03865.37093.59879.59879,0,0,1-.66247.24518.514.514,0,0,1-.1411-.05874.35381.35381,0,0,1-.14035-.19154c-.02408-.09828-.0076-.19974-.02238-.29835a.01122.01122,0,0,0-.02-.00468.41985.41985,0,0,0-.0346.35639l.00921.026.00855.026c-.02448.00632-.04905.01582-.07263.01953a.31594.31594,0,0,1-.1368-.00655.46643.46643,0,0,1-.1067-.05017A.22336.22336,0,0,1,3.803,7.81785a.012.012,0,0,0-.022.00973.62334.62334,0,0,0,.06946.13687.28607.28607,0,0,0,.13646.0883.36319.36319,0,0,0,.17082.01229.26507.26507,0,0,0,.10512-.039l.00995.0122a.4943.4943,0,0,0,.18552.12887.67848.67848,0,0,0,.23442.04823.23794.23794,0,0,1-.072.06489,1.79846,1.79846,0,0,1-.1675.06875c-.0568.02483-.11117.05507-.16687.08222-.0251.01223-.05009.02468-.07531.03667a.20748.20748,0,0,1-.09364.03126.01294.01294,0,0,0-.00257.02574.68885.68885,0,0,0,.1012.01955.30131.30131,0,0,0,.09538-.01856,1.07472,1.07472,0,0,0,.18726-.09347,1.31039,1.31039,0,0,0,.16355-.11253c.0269-.02224.05079-.04731.07677-.07051l.04184-.03617a.80823.80823,0,0,0,.15985-.02909.61719.61719,0,0,0,.34906-.23919A.5709.5709,0,0,0,5.3513,7.5082Z"/><path d="M4.5174,6.80336A.49827.49827,0,0,0,4.50125,6.668a.02191.02191,0,0,0-.04013.00122.56632.56632,0,0,0-.0238.11578c-.00833.04149-.0162.083-.02328.12473-.00662.039-.01527.07713-.02446.11557-.01035.04331-.009.08872-.02208.13134-.00354.01155.01087.02511.021.015a.41938.41938,0,0,0,.08234-.09345A.45527.45527,0,0,0,4.511,6.94038.57869.57869,0,0,0,4.5174,6.80336Z"/><path d="M4.54063,7.27986a.16171.16171,0,0,0-.059.04522c-.01342.01474-.03274.03188-.03252.05337a.017.017,0,0,0,.01074.01722.08365.08365,0,0,0,.06094-.01742.16925.16925,0,0,0,.0601-.04924A.03322.03322,0,0,0,4.54063,7.27986Z"/><path d="M4.16069,7.30985c-.01081-.01581-.02649-.04014-.04622-.0449a.0127.0127,0,0,0-.016.00734.12571.12571,0,0,0,.00887.06147c.00667.02708.0085.05265.03588.06593a.03121.03121,0,0,0,.03939-.018C4.19457,7.3562,4.17474,7.33039,4.16069,7.30985Z"/><path d="M4.28509,8.12959A.01706.01706,0,0,0,4.259,8.12338c-.0317.02217-.03378.06621-.06476.0907a.8748.8748,0,0,0-.09183.07616.41138.41138,0,0,0-.06691.09177.44728.44728,0,0,0-.02422.09844c-.003.01128.01345.018.01735.00645.01242-.0366.05356-.06388.08315-.0882.03148-.02588.06766-.04516.099-.07153a.20093.20093,0,0,0,.05961-.09112A.152.152,0,0,0,4.28509,8.12959Z"/><path d="M3.96354,8.39845a.352.352,0,0,1-.01818-.08551.48.48,0,0,1,.01124-.08239.16115.16115,0,0,0-.0167-.1349.01264.01264,0,0,0-.02207.00666c-.01985.09434-.13687.29044.024.32615C3.95948,8.43238,3.96758,8.41183,3.96354,8.39845Z"/><path d="M6.09511,7.37708c-.06678-.17438-.1426-.34467-.22275-.51326a1.04945,1.04945,0,0,1-.08592-.26231.87467.87467,0,0,0-.089-.24924c-.05173-.09786-.10658-.19457-.16424-.289-.02866-.047-.05617-.09479-.08582-.14112-.03053-.04769-.06773-.09072-.09932-.13768-.00809-.012-.02622.0004-.02106.01295.03735.0909.06983.18185.11143.27117q.06195.133.12982.263a1.18711,1.18711,0,0,1,.10869.2388,1.76943,1.76943,0,0,0,.07007.2588c.07056.16539.1531.32488.2199.49216q.05138.12868.09755.2594a1.44477,1.44477,0,0,1,.07691.26013.32979.32979,0,0,1-.054.25615c-.04532.05748-.12418.11161-.1033.19484a.032.032,0,0,0,.06118.00612c.02855-.06994.08952-.11059.1296-.17219A.41185.41185,0,0,0,6.2357,7.897,1.54289,1.54289,0,0,0,6.09511,7.37708Z"/><path d="M6.51006,7.9531a.08927.08927,0,0,0-.01551-.08618.01347.01347,0,0,0-.02261.0139c.00752.02546-.027.06308-.03436.08846a.24154.24154,0,0,0-.00669.08425c.004.058.02616.12674-.00487.18081-.02762.04813-.08732.06379-.13466.08636a.38393.38393,0,0,1-.19493.04655.01582.01582,0,0,0-.01063.02842.24334.24334,0,0,0,.21585.01789.32583.32583,0,0,0,.17576-.12832.30467.30467,0,0,0,.03019-.20951A.4622.4622,0,0,1,6.51006,7.9531Z"/><path d="M5.95484,6.593l.00031.00008Z"/><path d="M5.95515,6.593,5.9516,6.59221A.036.036,0,0,0,5.93443,6.591l-.00528-.0003-.019-.00318c-.01565-.00478-.04009-.01374-.05232.00274-.01818.0245.00285.05384.02163.07a.08868.08868,0,0,0,.078.023A.04559.04559,0,0,0,5.95515,6.593Z"/><path d="M4.962,2.14932a.07115.07115,0,0,0-.07308.00223c-.01205.006-.02327.013-.03467.02011a.14586.14586,0,0,1-.03178.01938.01235.01235,0,0,0-.00236.02357.0886.0886,0,0,0,.07309.00063A.2896.2896,0,0,0,4.963,2.17757.01786.01786,0,0,0,4.962,2.14932Z"/></svg>