<?xml version="1.0" ?><svg id="Layer_1" style="enable-background:new 0 0 252.899 223.284;" version="1.1" viewBox="0 0 252.899 223.284" xml:space="preserve" xmlns="http://www.w3.org/2000/svg" xmlns:xlink="http://www.w3.org/1999/xlink"><g><path d="M143.174,141.688c-0.868-5.054,2.538-9.871,7.592-10.74c0.522-0.089,1.052-0.135,1.575-0.135   c4.542,0,8.396,3.25,9.165,7.728l0.949,5.527c1.241-0.77,2.69-1.514,4.424-2.209c2.2-9.736-3.551-19.754-17.538-20.002   c-13.188-0.236-16.191,13.101-49.347,8.915l13.23,24.416c0.582,1.074,0.94,2.208,1.114,3.351   c6.619-1.056,14.343-1.671,23.237-1.406c2.02,6.521,6.109,9.923,10.132,10.942L143.174,141.688z"/><path d="M95.11,165.002l-15.7-28.973c-4.108,7.279-1.869,19.156,1.678,25.8l15.746,39.309H85.918l1.423,4.433   c1.44,4.487,0.644,9.438-2.133,13.245c-0.949,1.302-2.108,2.409-3.396,3.322h30.54c3.485,0,6.743-1.729,8.696-4.615   c1.953-2.887,2.347-6.554,1.051-9.789l-15.12-37.744c-0.913,0.26-1.856,0.407-2.806,0.407   C100.387,170.396,96.914,168.33,95.11,165.002z"/><path d="M159.239,138.929c-0.654-3.812-4.281-6.364-8.084-5.715c-3.811,0.655-6.369,4.274-5.715,8.084l13.083,76.167   c0.586,3.41,3.545,5.816,6.891,5.816c0.394,0,0.793-0.033,1.193-0.102c3.811-0.655,6.369-4.274,5.715-8.084L159.239,138.929z"/><path d="M167.296,94.278c-7.022-3.199-16.814-4.312-26.699,9.599c-9.714,13.672-15.84,12.423-19.356,9.547   c-3.516-2.876,0.194,10.676,15.251,8.16c11.604-1.939,18.186-20.234,26.085-21.052c0.653-1.248,1.42-2.458,2.316-3.608   C165.638,95.969,166.442,95.087,167.296,94.278z"/><path d="M180.398,117.919c-4.807,0-9.037-3.413-10.059-8.116c-1.203-5.551,2.332-11.047,7.881-12.252l17.465-3.79   c-9.289-6.285-21.981-4.398-28.978,4.578c-7.3,9.365-5.626,22.875,3.738,30.175c9.365,7.3,22.875,5.626,30.175-3.738   c2.791-3.581,4.26-7.767,4.499-11.981l-22.528,4.89C181.869,117.84,181.13,117.919,180.398,117.919z"/><ellipse cx="96.863" cy="52.674" rx="22.5" ry="22.5" transform="matrix(0.1937 -0.9811 0.9811 0.1937 26.4236 137.4992)"/><path d="M62.593,83.373c1.503-0.815,3.197-1.246,4.899-1.246c3.787,0,7.261,2.067,9.064,5.394l5.214,9.622   c3.837-8.999,2.2-20.267-5.32-23.799c-7.963-3.742-21.001-1.591-28.778,11.799c-10.583,18.474-14.563,31.072-16.329,53.367   c-0.036,12.024,5.602,17.25,12.164,19.839l12.6,39.246H12.5c-6.903,0-12.5,5.596-12.5,12.5c0,6.903,5.597,12.5,12.5,12.5h60.75   c3.993,0,7.747-1.908,10.1-5.135c2.354-3.227,3.022-7.383,1.802-11.186L66.03,146.718c0.674-8.204,2.981-16.688,5.776-24.723   l-13.362-24.66C55.738,92.342,57.6,86.078,62.593,83.373z"/><path d="M74.534,88.617c-2.105-3.885-6.964-5.327-10.846-3.222c-3.885,2.105-5.327,6.96-3.223,10.845l36.667,67.667   c1.449,2.673,4.2,4.19,7.041,4.19c1.287,0,2.594-0.312,3.805-0.968c3.885-2.105,5.327-6.96,3.223-10.845L74.534,88.617z"/><path d="M216.962,48.308c-8.406,2.593-11.503,14.692-8.094,24.47c1.282,5.064,2.892,10.93,4.352,17.176l0.106-0.023l0.701-26.091   c0.147-5.527,4.756-10.024,10.272-10.024l0.307,0.005c5.67,0.151,10.165,4.895,10.013,10.572l-0.917,34.167   c-0.127,4.754-3.462,8.779-8.11,9.789l-8.841,1.919c0.417,4.412,0.537,8.8,0.228,13.045l-28.683,20.257   c-4.075,2.878-6.049,7.903-5.021,12.785l12,57c1.24,5.888,6.433,9.928,12.219,9.928c0.853,0,1.72-0.088,2.588-0.271   c6.755-1.422,11.079-8.051,9.657-14.807l-10.307-48.956l34.702-24.509c0.951-0.671,1.768-1.458,2.47-2.318   c2.869-2.799,5.045-6.987,5.915-13.282c1.367-22.323-0.812-35.356-8.71-55.127C237.98,49.669,225.37,45.718,216.962,48.308z"/><ellipse cx="207.918" cy="22.501" rx="22.5" ry="22.5" transform="matrix(0.9985 -0.0547 0.0547 0.9985 -0.9194 11.405)"/><path d="M231.403,98.499l0.917-34.167c0.118-4.417-3.366-8.094-7.782-8.212c-4.389-0.131-8.094,3.366-8.212,7.782l-0.749,27.895   l-36.868,8.002c-4.317,0.938-7.058,5.197-6.121,9.516c0.813,3.746,4.127,6.305,7.811,6.305c0.563,0,1.133-0.06,1.705-0.184   l43-9.333C228.703,105.32,231.304,102.181,231.403,98.499z"/></g></svg>