<?xml version="1.0" ?><svg id="Layer_1" style="enable-background:new 0 0 326 336.084;" version="1.1" viewBox="0 0 326 336.084" xml:space="preserve" xmlns="http://www.w3.org/2000/svg" xmlns:xlink="http://www.w3.org/1999/xlink"><g><path d="M170.141,116.411c5.526-0.227,10.343,0.331,11.939,3.738l4.336-0.662c0.507-3.728,4.937-5.696,10.281-7.128   c4.636-1.243,8.652-1.732,10.952,0.151c1.983-6.541,3.989-12.598,5.411-16.773c0.725-0.583,1.439-1.171,2.13-1.771   c4.037-3.528,7.455-7.331,9.988-11.299c2.502-3.973,4.253-8.142,4.291-12.727c0.008-2.319-0.521-4.756-1.725-6.938   c-1.804-3.314-4.967-5.72-8.644-7.117c-3.711-1.419-8.058-2.044-13.286-2.053c-3.237,0.001-6.828,0.256-10.81,0.774   c3.148,3.101,5.365,7.067,6.339,11.404c1.615-0.119,3.111-0.18,4.471-0.179c5.648-0.027,9.024,1.039,10.349,1.926   c0.686,0.443,0.912,0.756,1.06,1.012c0.137,0.262,0.238,0.557,0.247,1.17c0.037,1.174-0.642,3.547-2.412,6.281   c-2.604,4.122-7.373,8.929-13.162,12.887c-5.78,3.985-12.575,7.162-19.114,8.557c-6.471,1.394-13.793,2.213-20.353,2.209   c-6.043,0.021-11.491-0.746-14.697-1.999c-1.608-0.605-2.574-1.303-2.913-1.689c-0.334-0.426-0.255-0.295-0.299-0.648   c-0.004-0.303,0.11-1.13,0.848-2.502c1.422-2.801,5.396-7.225,12.487-12.813c-1.914-4.352-2.432-9.156-1.448-13.877   c-6.755,4.791-11.871,9.1-15.656,13.088c-2.57,2.72-4.54,5.303-5.953,7.925c-1.4,2.612-2.272,5.336-2.277,8.179   c-0.043,3.345,1.398,6.62,3.514,8.825c3.198,3.348,7.285,4.939,11.726,6.03c2.13,0.503,4.378,0.858,6.711,1.097   c1.068,1.759,2.958,4.978,4.956,8.887C160.811,117.446,165.008,116.622,170.141,116.411z"/><path d="M203.688,126.649c-1.061,0.614-2.229,1.113-3.488,1.451c-5.761,1.543-11.339-0.702-13.213-5.064l-4.393,0.67   c-0.488,4.723-5.143,8.53-11.102,8.775c-2.743,0.113-5.317-0.555-7.418-1.754c1.934,5.115,3.267,10.308,2.941,14.446   c-0.378,4.807-1.846,8.273-3.431,11.58c6.145-4.689,14.001-7.505,22.565-7.505c5.926,0,11.508,1.355,16.424,3.738   c-0.865-2.269-1.547-4.768-1.785-7.812C200.477,141.199,201.77,134.275,203.688,126.649z"/><ellipse cx="178.902" cy="71.011" rx="20.995" ry="20.995" transform="matrix(0.2268 -0.9739 0.9739 0.2268 69.1665 229.146)"/><path d="M95.521,192.581c0,4.326,3.507,7.833,7.832,7.833c4.327,0,7.834-3.507,7.834-7.833c0-4.326-3.507-7.833-7.834-7.833   C99.028,184.748,95.521,188.254,95.521,192.581z M108.961,193.415c0,2.669-2.164,4.832-4.834,4.832   c-2.668,0-4.832-2.163-4.832-4.832c0-2.67,2.164-4.833,4.832-4.833C106.797,188.582,108.961,190.745,108.961,193.415z"/><path d="M61.283,267.929c-2.885-1.338-5.049-4.019-5.635-7.329c-0.193-1.094-0.193-2.176-0.037-3.218   c-1.484-0.849-2.863-1.845-4.122-2.965H43.5c-2.209,0-4,1.791-4,4v14c0,2.209,1.791,4,4,4h23.784   C63.938,274.966,61.544,271.738,61.283,267.929z"/><path d="M109.764,230.522c0,0.048,0.008,0.102,0.006,0.148c-0.023,0.83-0.145,1.589-0.939,2.875   c-0.805,1.266-2.436,3.049-5.59,5.067c-6.275,4.061-18.502,8.734-39.143,12.364c-4.35,0.771-7.252,4.924-6.481,9.274   c0.688,3.878,4.063,6.604,7.869,6.604c0.463,0,0.932-0.041,1.402-0.125c16.365-2.906,28.279-6.409,37.117-10.422   c8.799-4.02,14.728-8.599,18.309-14.151c2.373-3.677,3.477-7.771,3.455-11.487c-0.051-6.464-2.828-11.322-5.191-14.579   c-0.046-0.063-0.091-0.116-0.137-0.178c-2.363-3.16-4.539-4.962-4.861-5.235h-0.002c-3.41-2.809-8.451-2.32-11.26,1.09   c-1.585,1.926-2.118,4.372-1.67,6.642c-0.027,0.061-0.064,0.122-0.088,0.182c-2.811,7.28-5.619,14.559-8.428,21.838   c3.723-1.566,6.256-2.848,8.029-3.502C104.629,236.018,107.252,233.522,109.764,230.522z"/><path d="M63.752,249.006c11.371-2,19.6-4.472,25.609-6.693c0.216-0.756,0.396-1.529,0.535-2.321   c2.15-12.237-6.029-23.898-18.266-26.047c-12.236-2.145-23.897,6.033-26.045,18.27c-1.652,9.422,2.819,18.498,10.548,23.157   C57.334,252.164,60.14,249.648,63.752,249.006z"/><path d="M4,336.084h24c2.209,0,4-1.791,4-4v-6h262v6c0,2.209,1.791,4,4,4h24c2.209,0,4-1.791,4-4v-71.333c0-2.209-1.791-4-4-4h-24   c-2.209,0-4,1.791-4,4v18.666h-29.973c0.238-0.731,0.51-1.456,0.799-2.176c0.27-0.672,0.56-1.338,0.87-2h3.874   c6.904,0,12.5-5.597,12.5-12.5c0-2.454-0.717-4.734-1.938-6.665c0.506-0.491,0.998-0.959,1.477-1.405   c3.749-3.496,6.559-5.586,6.559-5.586c-7.444-12.21-55.155-26.9-95.487-34.041c-8.205-1.453-16.104-2.592-23.297-3.335   c-16.814-1.737-29.772-1.306-33.737,2.376c-1.652,1.535-3.473,4.011-5.364,7.151c-1.975-0.809-3.905-1.695-5.767-2.663   c2.147,3.921,3.222,7.906,3.256,12.086c0.012,2.05-0.296,4.136-0.877,6.172c4.197-9.555,8.412-16.974,11.473-19.817   c0.412-0.381,3.039-2.291,14.322-2.291c18.26,0,48.598,4.998,77.291,12.732c30.119,8.12,46.318,15.934,52.418,21.137   c-7.488,6.357-24.602,22.865-23.727,40.357c-0.061,0.219-1.721,3.721-23.938,3.721c-13.494,0-30.713-1.249-47.363-2.457   l-0.199-0.015c-16.688-1.213-33.941-2.464-47.414-2.464c-13.582,0-21.654,1.209-26.17,3.92c-0.375,0.225-0.672,0.371-0.898,0.469   c-0.932-2.976-0.418-14.15,6.727-35.734c1.639-4.947,3.42-9.768,5.244-14.264c-0.215,0.376-0.431,0.751-0.666,1.116   c-3.771,5.852-10.039,10.721-19.16,14.89c-9.475,4.301-21.773,7.759-37.602,10.572c-0.576,0.101-1.164,0.153-1.746,0.153   c-0.725,0-1.43-0.086-2.113-0.233c0.656,3.758,3.928,6.618,7.873,6.618H95.18h6.595h8.297c-0.303,1.44-0.569,2.835-0.798,4.176H32   v-88c0-2.209-1.791-4-4-4H4c-2.209,0-4,1.791-4,4v140.667C0,334.293,1.791,336.084,4,336.084z"/><path d="M82.961,202.688c4.05,0,7.332-3.282,7.332-7.332c0-4.051-3.282-7.333-7.332-7.333c-4.051,0-7.333,3.282-7.333,7.333   C75.628,199.406,78.91,202.688,82.961,202.688z M83.961,191.523c2.669,0,4.832,2.163,4.832,4.833c0,2.669-2.163,4.832-4.832,4.832   c-2.67,0-4.833-2.163-4.833-4.832C79.128,193.686,81.291,191.523,83.961,191.523z"/><path d="M116.604,184.355c5.386,0,9.75-4.364,9.75-9.749c0-5.385-4.364-9.75-9.75-9.75c-5.384,0-9.748,4.365-9.748,9.75   C106.855,179.991,111.22,184.355,116.604,184.355z M116.877,168.856c3.637,0,6.584,2.947,6.584,6.584   c0,3.635-2.947,6.582-6.584,6.582c-3.635,0-6.582-2.947-6.582-6.582C110.295,171.803,113.242,168.856,116.877,168.856z"/><path d="M178.918,163.905c10.12,10.508,25.574,15.199,40.561,10.859c0.419-0.122,0.82-0.274,1.232-0.408   c15.361-4.979,25.828-18.32,27.759-33.489c23.414-7.258,40.42-29.085,40.42-54.885c0-31.731-25.723-57.455-57.453-57.455   c-1.693,0-3.365,0.088-5.02,0.232C218.674,11.796,201.574,0,181.709,0c-20.596,0-38.223,12.68-45.526,30.654   c-2.325-0.986-4.884-1.531-7.568-1.531c-10.723,0-19.416,8.693-19.416,19.416c0,1.594,0.213,3.134,0.575,4.616   c-17.355,7.522-29.5,24.798-29.5,44.918c0,21.984,14.496,40.582,34.451,46.758c-0.324,3.346,0.196,6.816,1.725,10.082   c3.523,7.523,11.253,11.709,19.072,11.109c2.403,6.881,8.038,12.235,15.081,14.276c2.004,0.581,4.114,0.908,6.306,0.908   C167.573,181.206,176.513,173.831,178.918,163.905z M151.503,174.701c-6.184-0.918-11.622-4.119-15.418-8.729   c2.087-0.222,4.174-0.768,6.182-1.708c1.052-0.493,2.026-1.082,2.944-1.729c-10.115,2.135-20.732-2.86-25.305-12.626   c-2.221-4.745-2.66-9.863-1.599-14.609c-0.934,1.294-1.69,2.697-2.279,4.168c-16.618-6.907-28.306-23.289-28.306-42.407   c0-17.194,9.458-32.17,23.449-40.037c1.152,2.365,2.764,4.459,4.73,6.167c-1.495-2.769-2.346-5.937-2.346-9.304   c0-10.832,8.781-19.614,19.613-19.614c0.564,0,1.119,0.038,1.671,0.084c-1.469,4.664-2.265,9.626-2.265,14.775   c0,1.21,0.059,2.405,0.145,3.593c1.813-24.605,22.336-44.009,47.404-44.009c16.443,0,30.936,8.349,39.475,21.038   c-7.555,1.583-14.561,4.651-20.705,8.883c7.74-4.173,16.595-6.545,26.004-6.545c30.309,0,54.879,24.571,54.879,54.879   c0,21.745-12.647,40.533-30.986,49.416c0.059-3.934-0.453-7.943-1.605-11.919c-1.042-3.6-2.548-6.938-4.42-9.982   c0.233,0.675,0.452,1.359,0.653,2.053c6.097,21.053-5.44,43.028-25.906,50.135c-0.683,0.237-1.374,0.459-2.076,0.662   c-12.85,3.721-26.041,0.87-35.988-6.567c0.071-0.729,0.109-1.469,0.109-2.216c0-1.093-0.082-2.165-0.23-3.217   c-2.331,11.214-12.268,19.642-24.173,19.642C153.913,174.979,152.695,174.878,151.503,174.701z"/><path d="M36.691,148.866c19.887-37.049-2.293-38.76-8.568-35.352c-6.275,3.408-5.585,9.283-5.585,9.283s-4.553-3.779-10.826-0.373   C5.434,125.832-5.213,145.364,36.691,148.866z"/><path d="M72.369,153.513c-4.295-1.952-7.117,0.749-7.117,0.749s0.181-3.904-4.111-5.857c-4.296-1.955-18.831,0.203-4.004,23.691   C84.585,167.842,76.662,155.466,72.369,153.513z"/></g></svg>