<?xml version="1.0" ?><svg enable-background="new 0 0 306.3796 167.6453" id="Layer_1" version="1.1" viewBox="0 0 306.3796 167.6453" xml:space="preserve" xmlns="http://www.w3.org/2000/svg" xmlns:xlink="http://www.w3.org/1999/xlink"><g><path d="M227.8701,93.807c1.9375-0.4912,3.542-1.8457,4.3506-3.6729l3.4709-7.8503c-0.4507-2.2726-0.9866-4.6311-1.6211-7.0751   c-1.4609,0.3208-2.8408,0.4824-4.1201,0.4824c-1.8923,0-3.5972-0.381-5.082-1.0774l-3.2571,7.367l-33.1851,8.3988   c5.3519,2.7117,11.201,5.8046,16.9938,9.1096L227.8701,93.807z"/><path d="M124.4373,48.7599c-4.6606-4.8049-12.176-7.8831-25.0203-2.4688c-15.4543,6.5146-20.0066,2.2301-21.4829-2.0659   c-1.4764-4.296-5.4523,9.1807,8.6755,14.9634c9.5508,3.9092,22.437-4.9163,30.2832-4.8088   C118.9753,52.0599,121.5222,50.131,124.4373,48.7599z"/><path d="M84.7557,88.3964c-3.6055-3.2476-3.8965-8.8228-0.6494-12.4282c1.667-1.8496,4.0508-2.9106,6.54-2.9106   c2.1777,0,4.2686,0.8032,5.8887,2.2612l6.7626,6.0914c0.7806-0.7949,1.667-1.606,2.7062-2.436   c-0.704-9.9562-9.1014-17.888-22.5651-14.0886c-13.236,3.733-11.5878,18.405-49.0569,23.4511   c-23.6841,3.1896-12.4696,27.9519-3.6047,35.5928l20.6741,23.4839H10c-5.5225,0-10,4.4775-10,10s4.4775,10,10,10h63.5781   c3.9297,0,7.4941-2.3008,9.1123-5.8818c1.6182-3.5801,0.9902-7.7764-1.6064-10.7256l-30.8364-35.0269   c6.9617-4.3584,16.3315-9.0958,28.8022-12.7911c3.8826,14.8387,15.1638,9.5427,18.9968,3.6332   c0.7034,0.1781,1.4712-0.0887,1.8916-0.7294c0.53-0.8081,0.3047-1.893-0.5034-2.4232c-0.1849-0.1213-0.3853-0.1984-0.5891-0.2427   c-0.0037-0.6636-0.0413-1.418-0.1027-2.2308L84.7557,88.3964z"/><path d="M118.9663,74.9491l23.5669,2.1736l5.5126-4.9852c1.6211-1.4658,3.7168-2.2729,5.9004-2.2729   c0.7225,0,1.4332,0.0994,2.1232,0.2714c-0.0129-1.5787-0.1947-3.1797-0.5728-4.7812   c-2.7278-11.5565-14.3075-18.7136-25.864-15.9858c-11.5566,2.7278-18.7136,14.3076-15.9858,25.8641   c0.03,0.1273,0.067,0.251,0.0991,0.3772c1.2898-0.4617,2.6683-0.7129,4.0886-0.7129   C118.2095,74.8973,118.5864,74.9144,118.9663,74.9491z"/><path d="M295.7231,150.4577c-0.8298-0.3157-1.6829-0.5329-2.5525-0.6727c1.4719,2.0844,2.3452,4.6201,2.3452,7.3603   c0,1.0071-0.129,1.9827-0.35,2.9234c6.0961-0.5308,8.5438,2.2773,9.605,5.1305   C306.3545,169.4569,309.9915,155.8848,295.7231,150.4577z"/><path d="M270.1311,122.8992l-21.4795,21.4463h32.4426c0.3989-1.6374,0.6338-3.3389,0.6338-5.0992   c0-7.5161-3.863-14.1222-9.7056-17.9656C271.3857,121.9158,270.7389,122.4531,270.1311,122.8992z"/><path d="M163.9275,117.9539c14.97-1.3251,25.5209,8.2168,34.7372,16.0668l4.3573-10.4201c1.376-3.2847,4.5635-5.4062,8.123-5.4062   c1.167,0,2.3076,0.2295,3.3916,0.6826c4.4766,1.8721,6.5957,7.0371,4.7236,11.5137l-5.1157,12.2332l15.7056-15.6809   c-2.5681-3.6058-2.8018-6.5895-3.1843-8.9998c0.6045-3.041,1.0869-5.9785,1.2051-8.0713c0.2061-0.0337,0.4092-0.1006,0.6006-0.2124   c0.834-0.4883,1.1143-1.5601,0.626-2.394c-0.3877-0.6616-1.1406-0.9668-1.8525-0.8247   c-3.1182-5.3887-12.0703-10.5962-17.3076-1.6416C189.0642,92.2405,165.24,81.9108,165.24,81.9108l-0.0157,0.0185   c-0.7838-0.308-1.6187-0.5185-2.4922-0.6209c-0.0834-0.0098-0.1639-0.0278-0.2482-0.0356l-0.1396-0.0129   c-0.4497,1.4645-1.2773,2.8323-2.4938,3.9323L143.873,99.6409l2.0002,0.1844l2.6353,0.2431l2.3003,0.2122   C148.8087,107.7117,151.1152,115.3738,163.9275,117.9539z"/><path d="M208.6721,148.0877l1.1929-1.1911l7.2737-17.3932c1.3848-3.312-0.1777-7.1196-3.4893-8.5044s-7.1182,0.1777-8.5049,3.4888   l-9.7246,23.2554h-49.3428c-3.5898,0-6.5,2.9102-6.5,6.5s2.9102,6.5,6.5,6.5h53.6699c2.0869,0,3.9985-1.0087,5.2068-2.636   C204.6731,154.4487,205.9734,150.7825,208.6721,148.0877z"/><path d="M140.2153,79.2189l-21.459-1.9792c-5.0117-0.46-9.5898,2.877-10.6807,7.7935l-0.1257,0.5677l12.629,11.3757   L140.2153,79.2189z"/><path d="M114.701,115.369l-11.1279-10.0233l-10.0297,45.2469c-1.1953,5.3921,2.207,10.7319,7.5986,11.9272   c0.7285,0.1616,1.4561,0.2388,2.1738,0.2388c4.5859,0,8.7197-3.1748,9.7529-7.8379l8.2742-37.3252   c-0.2493,0.0213-0.5,0.0347-0.7523,0.0347C118.411,117.6302,116.3192,116.8275,114.701,115.369z"/><path d="M158.3075,83.4862c2.6631-2.4082,2.8691-6.5186,0.4619-9.1812c-2.4082-2.6631-6.5186-2.8687-9.1807-0.4614l-29.0068,26.231   L94.996,77.0282c-2.6689-2.4023-6.7764-2.189-9.1807,0.4795c-2.4023,2.667-2.1875,6.7773,0.4795,9.1797l29.9453,26.9727   c1.2363,1.1138,2.7939,1.6704,4.3506,1.6704c1.5615,0,3.1221-0.5596,4.3594-1.6787L158.3075,83.4862z"/><path d="M293.2161,157.1453c0-5.7988-4.7012-10.5-10.5-10.5h-39.623l25.541-25.5015c4.9683-3.5613,7.3389-9.5074,3.1865-18.6676   c-0.6997-1.5433-1.3219-3.0113-1.9094-4.4451c-0.3951,0.0537-0.7942,0.0901-1.1997,0.0901h-0.002   c-2.0039,0-3.9658-0.6943-5.5254-1.9556c-3.7734-3.0483-4.3633-8.6001-1.3135-12.375l2.7827-3.4436   c-1.3477-8.4591-0.2415-14.1516,0.7244-19.0356l-12.4241-1.7537c-4.8037-0.6777-8.1621-5.1377-7.4844-9.9424   c0.6084-4.3169,4.3496-7.5718,8.7012-7.5718c0.4131,0,0.8311,0.0293,1.2422,0.0874l8.1077,1.1442   c-4.9817-8.9266-14.2434-10.4781-21.7783-6.4698c-1.0259,8.9207-4.7695,12.0427-7.5723,14.488   c-3.8429,1.6322-7.696,3.4257-9.7791,4.8375c-0.3091-0.2745-0.7114-0.4464-1.1573-0.4464c-0.9664,0-1.75,0.7835-1.75,1.75   c0,0.6024,0.3046,1.1333,0.7678,1.4481c-2.5753,6.5334-0.7031,17.944,13.4445,13.5123   c6.6924,24.0505,4.0527,40.4476,3.2705,48.0564c-0.021,0.2068-0.0044,0.4077,0.0342,0.6053l-28.7031,28.6583   c-3.0059,3.0015-3.9072,7.519-2.2832,11.4443c1.624,3.9258,5.4541,6.4858,9.7021,6.4858h65   C288.5149,167.6453,293.2161,162.9441,293.2161,157.1453z"/><path d="M271.079,35.3876c15.1984,1.4307,17.9277-12.3525,14.6271-9.2316c-3.3008,3.121-9.3212,4.8049-19.9901-8.1354   c-9.0382-10.9623-17.2621-11.5358-23.6742-9.2911c1.5579,2.4443,2.6243,5.096,3.2004,7.8331   C252.6266,18.946,260.1968,34.3632,271.079,35.3876z"/><path d="M237.9543,7.1008c-7.9524-8.8177-21.5474-9.519-30.3652-1.5665c-8.8176,7.9525-9.519,21.5475-1.5664,30.3652   c7.9524,8.8177,21.5474,9.5191,30.3652,1.5666C245.2056,29.5135,245.907,15.9186,237.9543,7.1008z"/><path d="M255.0913,44.4084c-3.5635-0.5034-6.8438,1.9736-7.3447,5.5278c-0.501,3.5547,1.9736,6.8428,5.5283,7.3442l29.5996,4.1777   L263.6597,85.236c-2.2559,2.7925-1.8223,6.8848,0.9707,9.1411c1.2021,0.9722,2.6465,1.4448,4.0811,1.4443   c1.8955,0,3.7754-0.8252,5.0596-2.4146l26.4219-32.6973c1.4707-1.8208,1.8496-4.2915,0.9912-6.4692   c-0.8584-2.1772-2.8213-3.7256-5.1387-4.0522L255.0913,44.4084z"/></g></svg>