<?xml version="1.0" ?><svg id="Layer_1" style="enable-background:new 0 0 232.568 226.3;" version="1.1" viewBox="0 0 232.568 226.3" xml:space="preserve" xmlns="http://www.w3.org/2000/svg" xmlns:xlink="http://www.w3.org/1999/xlink"><g><path d="M58.978,11.02c-2.879-1.311-4.772,0.499-4.772,0.499s0.123-2.618-2.754-3.929c-2.88-1.313-12.626,0.128-2.695,15.883   C67.162,20.632,61.856,12.331,58.978,11.02z"/><path d="M202.805,66.422c-1.084-4.519-2.02-8.42-5.357-12.261c-5.674-6.533-11.443-7.753-15.293-7.635   c-5.002,0.16-9.772,2.746-13.085,7.094l-0.366,0.48l0.188,0.574c2.605,7.964,0.768,12.043-0.708,15.321l-0.004,0.01   c-2.996,3.298-5.144,5.908-6.4,7.776c-1.656-0.139-3.128,1.215-3.128,2.891c0,1.195,0.717,2.219,1.753,2.661   c0.426,3.823,2.499,8.455,6.342,10.386c1.895,0.952,4.861,1.549,8.757-0.411l-0.234,4.89l-21.709,20.126   c-1.499,1.389-2.367,3.278-2.444,5.32s0.646,3.992,2.035,5.49c1.443,1.557,3.489,2.449,5.612,2.449c1.934,0,3.78-0.725,5.199-2.04   l24-22.25c0.646-0.6,1.18-1.305,1.582-2.079c5.383,8.84,8.294,16.34,10.412,22.61l-19.535,30.878   c-1.24,1.959-1.863,4.22-1.801,6.54l1.328,49.717c0.17,6.359,5.282,11.339,11.639,11.339h0.002l0.316-0.004   c3.11-0.083,6.003-1.372,8.144-3.63c2.141-2.258,3.274-5.215,3.191-8.326l-1.233-46.173l27.583-43.601   c1.083-1.712,1.698-3.687,1.784-5.726c1.95-4.391,2.438-11.058-5.884-18.276C207.187,84.69,204.757,74.561,202.805,66.422z    M229.187,118.09l-0.101,0.218l-0.005,0.24c-0.037,1.706-0.533,3.361-1.436,4.787l-27.957,44.192l1.252,46.873   c0.067,2.497-0.843,4.87-2.561,6.682s-4.04,2.848-6.541,2.914l-0.25,0.003c-0.001,0-0.001,0-0.002,0   c-5.101,0-9.203-3.997-9.34-9.101l-1.328-49.717c-0.05-1.861,0.45-3.676,1.445-5.248l20.12-31.803l-0.174-0.519   c-2.203-6.582-5.574-15.455-12.137-25.733l-1.713-2.682l-0.397,3.158c-0.157,1.248-0.749,2.403-1.665,3.253l-24,22.25   c-0.992,0.92-2.283,1.427-3.635,1.427c-1.507,0-2.901-0.608-3.925-1.713c-2.005-2.164-1.877-5.555,0.286-7.561l22.398-20.765   l0.491-10.24l-1.9,1.279c-3.141,2.114-5.945,2.578-8.333,1.378c-3.166-1.591-4.985-5.884-5.146-9.303l-0.05-1.055l-1.055-0.041   c-0.324-0.012-0.578-0.273-0.578-0.594c0-0.415,0.417-0.747,0.854-0.538l0.938,0.448l0.54-0.888c1.089-1.79,3.35-4.575,6.72-8.277   l0.123-0.135l0.154-0.342c1.518-3.37,3.584-7.957,0.984-16.39c2.869-3.515,6.834-5.593,10.964-5.725   c4.795-0.154,9.46,2.213,13.483,6.844c2.968,3.416,3.801,6.89,4.856,11.289c2.029,8.458,4.555,18.986,23.414,35.342   C229.906,107.439,231.658,112.751,229.187,118.09z"/><path d="M169.47,45.3c12.489,0,22.65-10.161,22.65-22.65c0-1.016-0.069-2.037-0.208-3.051c3.609,1.092,4.221,5.983,4.853,13.446   c0.584,6.91,1.247,14.742,6.115,19.475c4.326,4.205,8.683,5.513,12.202,5.513c2.705,0,4.914-0.773,6.23-1.598   c1.887-1.183,1.867-2.269,1.688-2.811c-0.154-0.466-0.647-1.222-2.226-1.102c-2.006,0.16-3.619-0.347-4.939-1.552   c-2.751-2.509-4.197-7.954-4.297-16.184c-0.283-23.348-15.95-24.523-23.305-24.795C184.001,3.723,177.033,0,169.47,0   c-12.489,0-22.65,10.161-22.65,22.65S156.98,45.3,169.47,45.3z M169.47,2.3c6.976,0,13.39,3.528,17.157,9.438l0.325,0.51   l0.605,0.021c6.951,0.241,21.416,0.741,21.68,22.545c0.109,9.018,1.76,14.858,5.047,17.855c1.441,1.314,3.176,2.039,5.17,2.162   c-0.672,0.319-1.575,0.627-2.679,0.793c-2.393,0.359-7.174,0.22-12.292-4.755c-4.252-4.133-4.876-11.51-5.427-18.019   c-0.675-7.982-1.313-15.522-8.506-15.778l-1.468-0.052l0.301,1.438c0.29,1.383,0.437,2.793,0.437,4.191   c0,11.221-9.129,20.35-20.35,20.35s-20.35-9.129-20.35-20.35S158.249,2.3,169.47,2.3z"/><path d="M138.589,225.67c1.787,0,3.603-0.385,5.326-1.198c6.244-2.946,8.917-10.396,5.971-16.639l-27.333-57.927   c-2.064-4.375-6.467-7.166-11.305-7.166H65.712c-5.327-10.181-8.475-22.334-10.839-33.175l-15.801-1.296   c-5.659-0.464-9.887-5.447-9.423-11.107c0.435-5.303,4.951-9.457,10.282-9.457c0.271,0,0.543,0.011,0.817,0.032l22.039,1.808   l55.825-9.658c4.354-0.753,7.272-4.893,6.519-9.247s-4.889-7.276-9.247-6.519L33.759,78.329c-0.338,0.059-0.665,0.144-0.985,0.242   c-8.313,2.052-16.896,11.022-15.823,25.704c1.677,21.224,5.496,33.872,16.61,53.28c5.059,7.456,10.596,9.96,15.948,10.092   c0.481,0.056,0.968,0.093,1.465,0.093h52.349l23.952,50.761C129.409,223.022,133.902,225.67,138.589,225.67z"/><polygon points="16.179,224.674 22.146,225.293 26.638,181.984 62.728,181.984 67.219,225.293 73.187,224.674 68.475,179.234    71.558,179.234 71.558,173.234 25.84,173.234 5.782,100.767 0,102.368 20.995,178.222  "/><path d="M42.438,40.945c-0.542-2.779,1.147-5.628,3.844-6.487l0.743-0.237c-3.875-3.162-8.822-5.061-14.214-5.061   c-12.202,0-22.129,9.716-22.483,21.833l32.821-6.404L42.438,40.945z"/><path d="M44.977,53.959l-0.711-3.644l-33.353,6.507C13.247,66.76,22.162,74.16,32.811,74.16c10.126,0,18.689-6.69,21.512-15.892   l-3.346,0.258C48.155,58.744,45.519,56.738,44.977,53.959z"/><path d="M47.235,53.518c0.316,1.619,1.921,2.841,3.566,2.714l11.584-0.891c1.645-0.127,2.733-1.555,2.417-3.175l-3.319-17.013   c-0.316-1.62-1.861-2.534-3.433-2.033l-11.069,3.528c-1.572,0.501-2.6,2.236-2.284,3.856L47.235,53.518z"/><path d="M40.568,90.029c-4.398-0.345-8.267,2.916-8.628,7.319c-0.36,4.403,2.916,8.267,7.319,8.628l85.334,7   c0.223,0.018,0.443,0.026,0.663,0.026c4.122,0,7.621-3.165,7.965-7.346c0.36-4.403-2.916-8.267-7.319-8.628L40.568,90.029z"/><path d="M123.173,58.086c-2.735-1.097-5.438,0.1-5.552,0.151c-0.503,0.228-0.726,0.82-0.498,1.323   c0.228,0.503,0.821,0.727,1.323,0.498c0.02-0.01,2.06-0.889,3.982-0.117c1.246,0.5,2.218,1.604,2.891,3.279   c0.157,0.391,0.532,0.628,0.929,0.628c0.124,0,0.25-0.023,0.372-0.072c0.513-0.206,0.761-0.788,0.556-1.301   C126.292,60.274,124.945,58.798,123.173,58.086z"/><path d="M118.175,55.29c0.034-0.013,3.366-1.26,6.48,0.17c2.041,0.937,3.582,2.828,4.581,5.62c0.146,0.409,0.531,0.664,0.941,0.664   c0.112,0,0.226-0.019,0.337-0.059c0.52-0.186,0.791-0.758,0.604-1.278c-1.19-3.328-3.091-5.607-5.651-6.774   c-3.896-1.776-7.85-0.271-8.017-0.207c-0.513,0.201-0.767,0.778-0.567,1.292C117.082,55.231,117.661,55.488,118.175,55.29z"/><path d="M132.063,115.781c-0.548,0.07-0.936,0.571-0.866,1.119c0.064,0.505,0.495,0.874,0.991,0.874   c0.042,0,0.085-0.002,0.128-0.008c2.354-0.3,4.123-1.231,5.258-2.766c1.753-2.371,1.276-5.288,1.254-5.411   c-0.093-0.544-0.615-0.916-1.155-0.816c-0.544,0.094-0.91,0.611-0.816,1.155c0.003,0.022,0.339,2.218-0.892,3.882   C135.168,114.89,133.855,115.553,132.063,115.781z"/><path d="M132.24,121.195c0.046,0.52,0.482,0.912,0.995,0.912c0.029,0,0.059-0.001,0.089-0.004c3.521-0.312,6.206-1.577,7.981-3.76   c2.702-3.323,2.244-7.528,2.223-7.705c-0.064-0.548-0.567-0.94-1.107-0.875c-0.548,0.063-0.941,0.559-0.88,1.106   c0.004,0.035,0.372,3.573-1.8,6.228c-1.422,1.739-3.64,2.752-6.594,3.014C132.598,120.16,132.191,120.645,132.24,121.195z"/></g></svg>