<?xml version="1.0" ?><svg enable-background="new 0 0 264.3943 244.7879" id="Layer_1" version="1.1" viewBox="0 0 264.3943 244.7879" xml:space="preserve" xmlns="http://www.w3.org/2000/svg" xmlns:xlink="http://www.w3.org/1999/xlink"><g><path d="M162.7908,93.0576c3.5703-2.8975,6.9424-5.634,12.2021-6.7107c1.9043-0.3904,3.7705-0.5881,5.5459-0.5881   c0.2174,0,0.4297,0.0115,0.6447,0.0173c0.0097-0.0532,0.0132-0.1082,0.0218-0.1617c-3.4156-2.3425-6.1745-5.5449-7.9873-9.2715   c-0.2807,0.0036-0.5637,0.0204-0.8489,0.054l-3.4642,0.4112c-1.9662,6.2486-4.1979,13.2246-9.3198,17.2188l2.3532-0.2793   C162.2258,93.5156,162.5106,93.285,162.7908,93.0576z"/><ellipse cx="106.1751" cy="33.5147" rx="22.5" ry="22.5" transform="matrix(0.1116 -0.9937 0.9937 0.1116 61.0159 135.2842)"/><path d="M91.7353,110.8024c-2.4287-0.9312-4.3994-2.7278-5.5488-5.0591L69.3974,71.7252   c-2.5137-5.0933-0.415-11.2815,4.6777-13.7947c1.4326-0.7068,2.9639-1.0649,4.5518-1.0649c3.9531,0,7.4941,2.2004,9.2432,5.7427   l9.5587,19.3681l17.9149,14.8066c1.4414,1.1912,3.2461,1.8335,5.0967,1.8335c0.3135,0,0.6279-0.0183,0.9434-0.0557l18.882-2.2411   c-0.0281-0.0161-0.0628-0.0339-0.0899-0.0497c-2.2628-1.319-4.5556-3.653-3.5713-5.8904c0.4636-1.0551,1.7621-2.0514,3.8946-1.3893   c1.6196,0.5026,2.9694,0.3976,4.248-0.3317c1.6757-0.9553,3.9423-3.4479,5.9622-9.691l-27.8119,3.301L85.1611,51.0794   c-0.467-0.3859-0.9667-0.7039-1.4853-0.9669c-1.8121-1.0945-3.8214-1.7183-5.9633-1.7057   c-8.7985,0.05-19.641,7.6051-20.8958,23.0383c-0.4923,6.5308-0.6562,12.2877-0.4193,17.741L44.2771,61.8384   c-0.6641-2.3483-1.6577-4.5561-2.915-6.4798c-0.2809-0.4974-0.6095-0.954-0.9767-1.368   c-2.6495-3.3949-6.2082-5.6074-10.2325-5.5839c-8.7985,0.05-19.641,7.6051-20.8958,23.0383   c-1.6004,21.2303,0.2318,34.3148,8.235,55.1986c3.9993,8.4508,9.3257,11.7137,14.8057,12.5196l12.4014,39.694l-10.79,50.8323   c-1.4336,6.7532,2.8789,13.3896,9.6318,14.8232c0.875,0.1858,1.748,0.2751,2.6084,0.2751   c5.7773-0.0002,10.9668-4.0291,12.2148-9.907l11.4697-54.0327c0.4453-2.0984,0.3438-4.2759-0.2959-6.3232L54.004,124.8036   c-0.1482-0.6875-0.3286-1.417-0.541-2.19l-13.7691-5.1768c-2.5713-0.967-4.6836-2.9631-5.7959-5.4763L17.69,75.2945   c-2.2959-5.1946,0.0625-11.2886,5.2568-13.5847c1.3223-0.585,2.7217-0.8816,4.1592-0.8816c4.0771,0,7.7764,2.4089,9.4258,6.1372   l14.459,32.7109l38.5596,14.4968c5.3154,1.9985,8.0146,7.9497,6.0166,13.2659c-1.502,3.9939-5.377,6.6775-9.6426,6.6775   c-1.2373,0-2.4561-0.2224-3.624-0.6609l-17.0481-6.4096c3.9761,8.1453,9.2151,11.3245,14.6052,12.1172l12.4014,39.694   l-10.79,50.8323c-1.4336,6.7532,2.8789,13.3896,9.6318,14.8232c0.875,0.1858,1.748,0.2751,2.6084,0.2751   c5.7773-0.0002,10.9668-4.0291,12.2148-9.907l11.4697-54.0327c0.4453-2.0984,0.3438-4.2759-0.2959-6.3232l-15.5339-49.7208   c-0.2883-1.3378-0.6962-2.8307-1.2303-4.5035c-0.9233-2.2895-1.7083-4.6783-2.3989-7.1212L91.7353,110.8024z"/><ellipse cx="22.5054" cy="22.5055" rx="22.5" ry="22.5" transform="matrix(0.5101 -0.8601 0.8601 0.5101 -8.3321 30.3821)"/><path d="M83.1099,131.3025c0.9277,0.3486,1.8789,0.5139,2.8145,0.5139c3.2363,0,6.2832-1.9785,7.4893-5.1868   c1.5547-4.1357-0.5371-8.7488-4.6729-10.3037l-39.4629-14.8367L34.4283,67.8958c-1.7881-4.0425-6.5137-5.8687-10.5518-4.0825   c-4.041,1.7864-5.8691,6.5103-4.083,10.5513l16.208,36.6655c0.8691,1.9648,2.4912,3.4978,4.502,4.2539L83.1099,131.3025z"/><path d="M170.883,64.3485c0.1993-2.9138,0.9207-5.669,2.062-8.1845c-7.1893,0.342-15.2231,3.9805-18.7686,18.911   c-3.8749,16.3176-10.0212,17.4589-14.3595,16.1119c-4.3383-1.347,4.1857,9.8231,17.1983,1.8412   c8.6751-5.3212,9.2748-20.5764,13.8188-27.0079C170.8332,65.4661,170.8446,64.9096,170.883,64.3485z"/><ellipse cx="194.6272" cy="65.9733" rx="21.5" ry="21.5" transform="matrix(0.8948 -0.4464 0.4464 0.8948 -8.9825 93.8179)"/><path d="M188.9324,90.0378c-3.4688-1.8682-8-2.5601-13.4785-1.4377c-11.5621,2.3667-12.8013,13.5613-36.7656,18.1447l4.3478,1.6672   c5.3037,2.0337,7.9629,8.0024,5.9297,13.3049c-1.5166,3.9563-5.3828,6.6145-9.6191,6.6145c-1.2607,0-2.5-0.2305-3.6855-0.6851   l-25.4172-9.7466c-2.6128,9.1762,4.0238,22.2839,9.4854,26.7526l29.668,34.884l-7.4951,53.1541   c-0.8096,5.7424,3.1895,11.0537,8.9316,11.8633c0.4971,0.0701,0.9912,0.104,1.4795,0.104   c5.1484-0.0002,9.6436-3.7903,10.3838-9.0354l8.1533-57.8271c0.4189-2.9724-0.4541-5.9819-2.3984-8.2686l-28.3574-33.3438   c7.085-3.6074,16.3281-7.3071,28.2041-9.9016c2.5105,13.5698,12.1824,11.3184,17.1957,6.6425l-13.1915-20.14   c-2.6582-4.0593-1.5195-9.5247,2.5391-12.1833c1.4395-0.9414,3.1045-1.439,4.8164-1.439c2.9805,0,5.7344,1.4871,7.3672,3.978   l4.1932,6.402c0.1909-0.2484,0.3702-0.4951,0.5848-0.7466l21.1689,17.4548c1.1729,0.9673,2.6377,1.4849,4.1348,1.4849   c0.3818,0,0.7656-0.0337,1.1475-0.1021l40.7861-7.3179c3.5342-0.634,5.8848-4.0125,5.25-7.5459   c-0.6338-3.5334-4.0137-5.884-7.5449-5.25l-37.8252,6.7866l-28.1406-23.2031C190.2117,90.6333,189.5857,90.2837,188.9324,90.0378z"/><path d="M185.1017,104.4005c-1.9688-3.0034-5.9951-3.842-8.999-1.876c-3.0029,1.967-3.8428,5.9958-1.876,8.999l21.6328,33.0276   c1.0459,1.5967,2.7402,2.6528,4.6348,2.8887l41.1191,5.1191c0.2725,0.0339,0.543,0.0505,0.8105,0.0505   c3.2324,0,6.0332-2.408,6.4424-5.6978c0.4434-3.5623-2.085-6.8098-5.6475-7.2532l-38.1328-4.7473L185.1017,104.4005z"/><path d="M136.4844,125.4989c0.9424,0.3613,1.9102,0.5325,2.8623,0.5325c3.2178,0,6.251-1.9546,7.4717-5.1379   c1.582-4.1252-0.4805-8.752-4.6055-10.334l-41.002-15.7227L85.8076,63.6263c-1.9561-3.9626-6.7529-5.5876-10.7148-3.6333   c-3.9619,1.9553-5.5879,6.7524-3.6328,10.7144l16.7891,34.0183c0.8906,1.8054,2.4297,3.2083,4.3096,3.9292L136.4844,125.4989z"/></g></svg>