<?xml version="1.0" ?><svg enable-background="new 0 0 263.2667 205.0026" id="Layer_1" version="1.1" viewBox="0 0 263.2667 205.0026" xml:space="preserve" xmlns="http://www.w3.org/2000/svg" xmlns:xlink="http://www.w3.org/1999/xlink"><g><path d="M116.3977,107.877c-0.0021-0.7474,0.0688-1.4997,0.2321-2.2475c0.5869-2.688,2.1855-4.9863,4.501-6.4719l28.0097-17.9658   c0.1254-0.3752,0.2242-0.7606,0.293-1.1536l3.6986-21.0521c0.3612,0.6908,0.7224,1.3901,1.0831,2.0939l-3.644-21.137   c-0.4678-2.7109,0.1484-5.4419,1.7354-7.6897c1.5869-2.2476,3.9541-3.7429,6.665-4.2104c0.582-0.0999,1.1729-0.1506,1.7588-0.1506   c5.0215,0,9.2871,3.5962,10.1416,8.551l7.4209,43.0474c0.7041,4.0891-1.0967,8.179-4.5889,10.4194l-7.2704,4.6635   c0.4044,1.4878,0.8235,2.7899,1.2635,3.9168l-1.4485,3.209l-15.2789,33.8477c-1.9951,4.418-1.2549,9.5906,1.8975,13.2725   l43.2656,50.5322c2.4727,2.8877,5.9756,4.3706,9.501,4.3706c2.877,0,5.7676-0.9875,8.124-3.0051   c5.2441-4.49,5.8555-12.3809,1.3652-17.6248l-38.0996-44.499l11.9774-26.5348l8.3461-18.4899   c1.8152-3.3231,2.7183-7.6941,2.0925-13.5538c-4.0576-21.9937-9.3153-34.1146-21.749-51.3973   c-9.1165-12.5158-22.3077-13.3105-29.842-8.7664c-2.6953,1.6249-4.4213,4.2764-5.2876,7.3973   c-0.1223,0.3686-0.228,0.7459-0.2972,1.1399l-8.1602,46.4419l-32.6172,33.3486c-0.5069,0.5182-0.9205,1.0914-1.2581,1.6953   c0.9286,0.0562,1.8793,0.0982,2.888,0.0982C106.2646,109.9722,110.5453,109.6444,116.3977,107.877z"/><path d="M70.282,186.5477c0.1908,0.0317,0.3669,0.0784,0.5604,0.1072c3.2166,0.4595,6.2335,0.8145,9.1394,1.0832l-5.5816-4.1817   L70.282,186.5477z"/><path d="M58.037,167.528c-0.3896-2.7234,0.3037-5.436,1.9531-7.6377c1.9355-2.5825,5.0195-4.1243,8.251-4.1243   c2.2393,0,4.373,0.7112,6.168,2.0569l2.6932,2.0177l0.9611-0.6981l0.0446-8.403c-2.45-0.0405-4.802-0.0845-6.9905-0.1062   c-10.3066-1.006-21.3342,4.8576-21.8706,13.6378c-0.2491,4.0956,1.123,8.7353,4.1874,12.761l6.5702-4.7723   C58.9697,170.8891,58.2876,169.275,58.037,167.528z"/><path d="M95.6755,156.9053l-0.0359,6.7855c-0.0146,2.7893-1.3701,5.4336-3.6279,7.0732l-0.1669,0.1212l14.3691,10.765   l15.5714,1.8483c1.5233-0.4334,3.0733-0.8875,4.6826-1.3842c0.8752-0.3448,1.6929-0.7086,2.4678-1.0859   c-0.2752-1.4627-0.3008-2.9772-0.0264-4.4818l5.7117-31.318l-3.0994,0.0858c-0.0347,0.001-0.0679,0.0068-0.1025,0.008   c-2.21-0.1548-5.0968,0.2181-8.9319,1.1664c-3.0427,0.9972-6.2278,1.7695-9.4867,2.3695c-0.257,1.7615-0.8666,3.1174-1.5355,4.1201   c-2.0479,3.0674-5.8477,4.8267-10.4258,4.8267C99.1637,157.8053,97.3086,157.4801,95.6755,156.9053z"/><path d="M252.4911,152.6954l-63.1924-8.8076c-0.6855-0.0957-1.3779-0.1328-2.0713-0.1152l-2.6786,0.0742l23.9363,27.9565   l40.5549,5.6519c0.5859,0.082,1.166,0.1221,1.7412,0.1221c6.1377-0.001,11.4932-4.5244,12.3643-10.7764   C264.0985,159.963,259.329,153.6476,252.4911,152.6954z"/><polygon points="164.9375,166.4535 157.3689,157.6137 155.7567,166.4535  "/><ellipse cx="22.5006" cy="167.0823" rx="22.5" ry="22.5" transform="matrix(0.9366 -0.3503 0.3503 0.9366 -57.1104 18.4725)"/><path d="M166.9068,168.7535h-13.9079l2.4423-13.3912l-4.3212-5.047c-3.7158-4.3401-4.5977-10.5085-2.2461-15.7148l10.3937-23.0261   c-1.0886-3.5226-2.75-6.7908-5.0643-9.1559l-21.9495,14.079c-1.6641,1.0671-3.585,1.6311-5.5537,1.6311   c-3.5303,0-6.7744-1.772-8.6777-4.7402c-0.6371-0.9931-1.08-2.0697-1.3453-3.1846c-17.3956,5.1143-24.1412-1.4081-33.9438,2.45   c-13.0186,5.1213-14.9053,16.5176-9.4414,24.8704c1.8531,0.0447,3.4596,0.2329,4.8834,0.5168l0.0404-7.6245   c0.0244-4.8264,3.9717-8.7534,8.7988-8.7534c4.8994,0.0259,8.8262,3.9941,8.8008,8.8464l-0.1269,23.9472   c6.4283,2.8173,19.6837,0.531,13.5937-14.1223c11.7773-4.4568,21.8252-6.3743,29.876-7.1653l-7.9863,43.7903   c-0.5084,2.7872,0.2026,5.6453,1.9216,7.8816l16.2816,1.9326c1.8571,0.2206,3.5351,0.9325,4.9348,1.98h29.7211L166.9068,168.7535z"/><path d="M76.3041,83.4362c7.5507-2.3775,21.0308,11.4612,32.3591,8.4554c14.755-3.9151,12.5479-17.7916,10.5305-13.7216   s-7.0835,7.7326-21.5702-0.718c-13.1536-7.673-21.3035-4.4745-26.5158,0.4305C73.0888,79.4083,74.8493,81.2702,76.3041,83.4362z"/><ellipse cx="56.5613" cy="96.716" rx="21.5" ry="21.5" transform="matrix(0.2732 -0.9619 0.9619 0.2732 -51.9288 124.6992)"/><path d="M73.0302,159.6635c-3.5332-2.6477-8.5488-1.9304-11.1992,1.606c-2.1931,2.9269-2.072,6.863,0.0383,9.6359l13.2855-9.6501   L73.0302,159.6635z"/><path d="M105.329,183.8615L89.8971,172.3l-13.5493,9.8417L97.455,197.955c1.127,0.844,2.4561,1.3757,3.8535,1.5417l45.9082,5.4495   c0.3203,0.0378,0.6387,0.0564,0.9531,0.0564c3.9971,0,7.4521-2.9905,7.9346-7.0576c0.5205-4.3877-2.6143-8.3665-7.001-8.8875   L105.329,183.8615z"/><path d="M90.6601,168.9032c1.6738-1.2158,2.6689-3.1558,2.6797-5.2246l0.1758-33.1812c0.0186-3.5898-2.876-6.5154-6.4658-6.5344   c-0.0117,0-0.0234,0-0.0352,0c-3.5732,0-6.4805,2.8877-6.499,6.4656l-0.1582,29.8904l-31.1367,22.6165   c-2.9043,2.1096-3.5488,6.1746-1.4385,9.0791c1.2715,1.751,3.2539,2.6804,5.2637,2.6804c1.3252,0,2.6611-0.4036,3.8154-1.2415   L90.6601,168.9032z"/><circle cx="116.0005" cy="22.506" r="22.5"/><path d="M119.9589,112.1469c1.5273,2.3818,4.1064,3.6816,6.7412,3.6816c1.4785,0,2.9746-0.4097,4.3115-1.2671l41.4502-26.5872   c2.7061-1.7361,4.1104-4.9241,3.5645-8.093l-7.4209-43.0471c-0.751-4.354-4.8838-7.2734-9.2432-6.5247   c-4.3535,0.7507-7.2754,4.8889-6.5244,9.2429l6.5195,37.8186l-36.9844,23.7227   C118.6542,103.4791,117.5732,108.4279,119.9589,112.1469z"/></g></svg>