<?xml version="1.0" ?><svg enable-background="new 0 0 220.0582 190.8909" id="Layer_1" version="1.1" viewBox="0 0 220.0582 190.8909" xml:space="preserve" xmlns="http://www.w3.org/2000/svg" xmlns:xlink="http://www.w3.org/1999/xlink"><g><path d="M45.8676,49.5662c3.6094,0,6.8145,2.1631,8.1641,5.5098c0.8799,2.1797,0.8574,4.5713-0.0625,6.7354   c-0.9199,2.1631-2.627,3.8389-4.8066,4.7178l-12.8162,5.169c1.5651,5.8398,2.7687,13.2542,0.1771,25.3613l1.4174,3.371   c0.9111,2.167,0.9238,4.5596,0.0361,6.7354c-0.049,0.12-0.1093,0.2328-0.163,0.3499c7.5089,2.119,20.5302,5.5938,27.2072,6.2018   c-0.7018-5.0202-1.2116-11.1919-0.9766-18.5101c0.529,0.7098,1.1833,1.3224,1.9613,1.7685l22.2795,12.7732   c3.0764-4.3213,7.3143-7.3561,12.7432-7.3561c0.168,0,0.339,0.0192,0.5079,0.0251c-0.2046-0.1518-0.4169-0.2963-0.6434-0.4261   L74.4209,86.8153l-3.7542-9.2752c8.8057-0.0655,10.106-7.5105,8.3974-13.0642c0.4238-0.2421,0.7484-0.6526,0.8522-1.1687   c0.1905-0.9475-0.4232-1.8701-1.3707-2.0606c-0.3174-0.0638-0.6295-0.0308-0.9147,0.0682   c-0.0726-0.1136-0.1436-0.2302-0.2188-0.3384c-0.9553-1.373-6.3821-3.3959-11.7545-5.1258   c-2.7882-2.021-6.4271-4.5583-8.4008-11.8981c-0.0496-0.0175-0.0995-0.0315-0.149-0.0493   c-2.1876-0.7862-4.1852-1.8665-5.9741-3.1727c-6.9775-0.4871-13.788,3.4631-16.4976,12.6799l7.9424-3.2036   C43.6322,49.7821,44.7387,49.5662,45.8676,49.5662z"/><path d="M8.5214,170.0775c-5.6948,1.0938-9.4248,6.5972-8.3311,12.292c0.9653,5.0259,5.3647,8.5215,10.2998,8.5215   c0.6567,0,1.3232-0.062,1.9922-0.1904l22.8995-4.3978c-1.0721-1.871-1.6942-4.0313-1.6942-6.3379   c0-7.0581,5.7422-12.7998,12.7998-12.7998h31.4827c-0.0247-0.1135-0.0393-0.228-0.0679-0.3409l-9.9661-39.3857   c-5.5071-7.0258-6.1005-10.4362-33.6545-16.0155c-0.3347,0.1957-0.6788,0.3784-1.0421,0.5311   c-0.3664,0.154-0.7411,0.2726-1.1191,0.3752c-3.4434,12.9019,5.462,18.0822,15.1579,19.0775l7.5355,29.7802L8.5214,170.0775z"/><path d="M44.2167,10.1932c-7.6699-0.8499-17.3207,1.1464-22.3743,17.4464C16.8758,43.6587,10.6665,44.383,6.4289,42.7464   s3.5136,10.083,17.0349,2.997c10.4209-5.4611,10.9696-24.8961,18.2198-28.1367c0.2314-1.3898,0.5828-2.7781,1.0759-4.1501   C43.1691,12.3169,43.6583,11.2283,44.2167,10.1932z"/><ellipse cx="65.1568" cy="21.5059" rx="21.5" ry="21.5" transform="matrix(0.986 -0.167 0.167 0.986 -2.6766 11.1839)"/><path d="M83.4872,120.2471l-15.7695-2.9672c-0.0421-0.0079-0.0823,0.0046-0.1237,0.0052   c-1.4667,0.0242-2.4215,5.2998-0.9274,5.5809l2.2956,0.4319l13.412,2.5236C82.6009,124.0099,82.9715,122.1259,83.4872,120.2471z"/><path d="M32.348,109.8338c3.3096-1.3916,4.8643-5.2021,3.4727-8.5117L24.3559,74.0545l23.9463-9.6582   c3.3291-1.3428,4.9395-5.1309,3.5967-8.46s-5.1318-4.9395-8.46-3.5967l-30.0635,12.126c-1.6143,0.6514-2.8994,1.9219-3.5684,3.5293   c-0.6699,1.6064-0.666,3.4141,0.0078,5.0186l14.0215,33.3477c1.0459,2.4863,3.457,3.9824,5.9951,3.9824   C30.6713,110.3436,31.5248,110.1795,32.348,109.8338z"/><path d="M84.4113,129.3181c-0.2524,1.3706-0.2388,2.8131,0.0947,4.2576l8.2822,35.8892H46.4875c-5.7988,0-10.5,4.7012-10.5,10.5   s4.7012,10.5,10.5,10.5h59.5c3.2002,0,6.2246-1.459,8.2168-3.9634c1.9922-2.5039,2.7334-5.7798,2.0146-8.8975l-8.6045-37.2866   c7.9712,1.8782,17.6235,5.1299,28.5703,10.9509c1.7007,12.5859,11.6579,15.2939,17.4607,12.813l-4.7302-20.3767   c-0.5313-2.2896-0.1396-4.6494,1.1035-6.644c1.2432-1.9951,3.1895-3.3862,5.4795-3.9175c0.6563-0.1523,1.3271-0.229,1.9951-0.229   c4.1133,0,7.6357,2.8008,8.5664,6.811l2.65,11.4156c0.437,0.0194,0.8644,0.0317,1.3286,0.071   c5.9685-7.2639,5.7421-17.9171-4.6558-24.5637c-3.8726,0.2366-7.6697-0.1748-11.0082-2.0477   c-0.799-0.4482-1.5131-0.9164-2.1901-1.3921c-8.6525-0.0847-19.4462,0.7719-40.578-14.4595   C93.6535,95.8085,84.7004,116.8831,84.4113,129.3181z"/><path d="M163.8195,140.2451c-0.8115-3.4966-4.3008-5.6724-7.8018-4.8618c-3.4971,0.8115-5.6738,4.3047-4.8623,7.8013l9.75,42   c0.6846,2.9453,3.3086,5.0303,6.332,5.0303h43.25c3.5898,0,6.5-2.9102,6.5-6.5s-2.9102-6.5-6.5-6.5h-38.0859L163.8195,140.2451z"/><path d="M155.5,122.5948c10.2606,5.7566,26.8504-4.3821,33.5206-0.0723c1.2912-0.564,2.6465-1.0266,4.0654-1.3615   c1.1787-0.2782,2.3579-0.4618,3.5301-0.5582c-3.4704-6.8925-10.4066-13.8932-26.8256-9.2401   c-16.1359,4.5729-20.1292-0.2368-21.0683-4.6813S142.1867,115.1254,155.5,122.5948z"/><circle cx="198.5533" cy="144.3244" r="21.5"/></g></svg>