<?xml version="1.0" ?><svg enable-background="new 0 0 504.2372 348.4092" id="Layer_1" version="1.1" viewBox="0 0 504.2372 348.4092" xml:space="preserve" xmlns="http://www.w3.org/2000/svg" xmlns:xlink="http://www.w3.org/1999/xlink"><g><g><path d="M131.4503,334.9658c-0.5205,6.8838,4.6387,12.8857,11.5225,13.4072c0.3203,0.0234,0.6387,0.0361,0.9561,0.0361    c6.4746-0.001,11.9541-4.9951,12.4512-11.5586l4.5-59.5c0.0957-1.2676-0.0029-2.543-0.292-3.7812l-1.2842-5.5057l-24.6823,24.9723    L131.4503,334.9658z"/><path d="M152.7025,239.7592l-1.4127-6.0572c-0.0077-0.8878-0.0385-1.8323-0.0988-2.8546    c-0.8455-6.3063-0.7217-13.0005-0.0974-19.6406l-19.5132-26.8898c-3.3359-4.5977-2.3096-11.0508,2.2871-14.3862    c1.7715-1.2847,3.8604-1.9639,6.043-1.9639c1.1162,0,2.2078,0.1964,3.2444,0.5416l-3.6847-13.0822    c-7.1323,1.3047-14.6863,6.6569-18.3514,17.3156c-6.8048,20.1739-8.2677,33.3047-5.6816,55.5196    c1.9534,10.0526,6.9886,14.4727,12.7262,16.3469l3.7675,16.1548l20.6223-20.865    C152.6009,239.8498,152.6539,239.8068,152.7025,239.7592z"/><path d="M220.3548,265.9948l-0.2842,0.2339l-0.333,0.1582c-0.209,0.0991-5.2061,2.4355-12.8926,2.4355c-0.001,0-0.001,0-0.002,0    c-7.3269-0.0006-16.8059-2.0761-26.875-9.6677v6.5912h5.4165v80.2948h6.5v-12.17h89.9265v12.17h6.5v-80.2948h5.417v-8.8333h7.333    v-5h-69.3147C226.6607,260.7228,220.6966,265.7135,220.3548,265.9948z"/><path d="M85.3927,334.5387v-3.6832l-29.25-9v-21.0535h4.2502v-1.77c14.8483-0.9787,26.0001-5.1194,26.0001-10.0803    c0-4.8073-46.7701-5.5519-61.2662-2.2345L13.916,256.8613c4.7802,7.458,9.7062,11.687,13.0236,10.4413    c5.3257-1.9998-17.6995-63.3194-23.0251-61.3196c-4.3409,1.6299-4.5862,12.1287-1.086,25.1248    c-0.3956-0.0533-0.8073-0.024-1.2064,0.1255c-1.293,0.4854-1.9473,1.9268-1.4619,3.2197L21.0177,290    c0.0578,0.1537,0.1331,0.295,0.216,0.4298c1.9601,4.2881,12.3138,7.7225,25.6592,8.6021v1.77h4.2498v21.0535l-29.25,9v3.6833    c-1.8741,0.9244-3.1665,2.8486-3.1665,5.0795c0,3.1296,2.537,5.6666,5.6667,5.6666c3.1296,0,5.6666-2.537,5.6666-5.6666    c0-2.226-1.2866-4.1467-3.1539-5.0735l24.2371-7.4576v7.4515c-1.8741,0.9244-3.1665,2.8486-3.1665,5.0795    c0,3.1296,2.537,5.6666,5.6667,5.6666c3.1296,0,5.6666-2.537,5.6666-5.6666c0-2.2311-1.2926-4.1553-3.1668-5.0797v-7.4514    l24.2373,7.4576c-1.8672,0.9268-3.1538,2.8475-3.1538,5.0734c0,3.1296,2.5371,5.6666,5.6667,5.6666    c3.1295,0,5.6665-2.537,5.6665-5.6666C88.5594,337.3873,87.2669,335.463,85.3927,334.5387z"/><rect height="18.6948" width="55.0737" x="240.0499" y="228.4736"/><rect height="2.183" width="43.48" x="247.9173" y="199.4226"/><rect height="2.183" width="43.4799" x="243.7764" y="223.508"/><rect height="2.183" width="43.48" x="247.9173" y="218.6909"/><rect height="2.183" width="43.4799" x="243.7764" y="213.8738"/><rect height="2.183" width="43.48" x="247.9173" y="209.0568"/><rect height="2.183" width="43.4799" x="243.7764" y="204.2397"/><path d="M176.6983,256.5058c-5.0833-4.4056-10.2706-10.2807-15.3706-18.0604l-1.3997,0.194    c-2.1777,0.3018-4.1943,1.3125-5.7393,2.8755l-41.2012,41.686c-3.8828,3.9282-3.8457,10.2598,0.083,14.1421    c1.9492,1.9263,4.4893,2.8877,7.0293,2.8877c2.5781,0,5.1562-0.9917,7.1123-2.9702l38.8193-39.2759L176.6983,256.5058z"/><path d="M191.8775,223.011c0.3627,2.0081,0.6093,3.9601,0.7771,5.8582l-11.6526,2.3416l-18.3884,3.6953    c26.7601,42.6051,55.8352,28.7718,55.8352,28.7718s6.6208-5.4471,11.7146-15.1007c1.3682-2.5928,2.6233-5.4917,3.613-8.6675    c1.4817-4.0667,0.8435-8.6246-3.1506-13.5329c-3.132-3.0899-5.6604-6.0218-7.7019-8.8104    c-1.5391,1.3283-3.4365,2.1707-5.5007,2.4156L191.8775,223.011z"/><path d="M194.0648,174.4503c0.5176-0.0928,1.0439-0.1401,1.5664-0.1401c4.2578,0,7.8965,3.0459,8.6533,7.2427    c0.416,2.3135-0.0928,4.6504-1.4346,6.5811c-1.3418,1.9302-3.3545,3.2222-5.668,3.6387l-26.9568,4.8505    c0.3383,2.7762,1.5634,5.7879,3.6013,7.7838l41.1709-4.8818c0.01-0.0012,0.02-0.0006,0.0298-0.0018    c-1.5898-9.99,1.2029-17.6865-2.7719-24.4755c-7.066-12.0738-19.382-11.7381-27.5474-4.615    c0.2124,2.1382,0.2198,4.0153,0.0852,5.6859L194.0648,174.4503z"/><path d="M211.6451,143.8712c3.1975,7.3092,4.9338,18.9556,12.37,23.3507c13.1417,7.7673,21.4813-3.541,17.1658-2.123    c-4.3156,1.418-10.4799,0.3776-14.6217-15.8743c-3.3163-13.0124-9.9274-17.3168-16.348-18.3417    c1.2269,2.9971,1.8383,6.2408,1.7595,9.5757C211.9433,141.6129,211.8322,142.7523,211.6451,143.8712z"/><path d="M172.3094,154.3754c0.1074,0.1176,0.1995,0.2437,0.3098,0.3595c8.1953,8.5924,21.8047,8.9143,30.3971,0.7189    s8.9143-21.8046,0.7189-30.3971c-5.1604-5.4104-12.4661-7.5349-19.3154-6.3254c2.2,3.7018,3.4683,8.0193,3.4683,12.6292    C187.888,141.7771,181.4298,150.7079,172.3094,154.3754z"/><path d="M147.4085,142.3282c3.9199,0,7.4004,2.6382,8.4648,6.4155l1.2112,4.3004c1.9119,0.5283,3.9235,0.8164,6.0034,0.8164    c12.4276,0,22.5-10.0733,22.5-22.5c0-12.4268-10.0724-22.5-22.5-22.5c-12.4258,0-22.5,10.0732-22.5,22.5    c0,4.2928,1.2034,8.304,3.2893,11.7168c0.3667-0.1603,0.7429-0.306,1.1387-0.4175    C145.7991,142.4401,146.6029,142.3282,147.4085,142.3282z"/><path d="M158.2972,198.6276c-3.9209,0-7.4014-2.6377-8.4658-6.415l-5.8712-20.8452c-2.6569-1.5548-6.0905-1.4983-8.7421,0.4252    c-3.5762,2.5947-4.3711,7.5972-1.7764,11.1733l27.083,37.3213c1.5156,2.0884,3.9307,3.3013,6.4736,3.3013    c0.3125,0,0.6279-0.0181,0.9434-0.0557l49.2109-5.835c4.3867-0.52,7.5225-4.4985,7.002-8.8862    c-0.5205-4.3882-4.4971-7.5239-8.8867-7.0024l-44.5498,5.2822l-6.7764-9.3378l-4.0811,0.7343    C159.346,198.5807,158.8197,198.6276,158.2972,198.6276z"/><path d="M152.0452,191.589c0.8008,2.8428,3.3906,4.7388,6.252,4.7388c0.3818,0,0.7686-0.0337,1.1562-0.1035l37.3213-6.7153    c3.5332-0.6357,5.8818-4.0156,5.2461-7.5483c-0.6367-3.5332-4.0117-5.8818-7.5488-5.2466l-31.5137,5.6704l-9.2988-33.0166    c-0.9736-3.4551-4.5566-5.4678-8.0195-4.4941c-3.4551,0.9731-5.4668,4.563-4.4941,8.0186L152.0452,191.589z"/><path d="M210.6002,75.8591c-4.2949-1.9522-7.1173,0.749-7.1173,0.749s0.1808-3.9043-4.1112-5.8574    c-4.2959-1.9551-18.8312,0.2031-4.0039,23.6913C222.8159,90.1871,214.8929,77.8121,210.6002,75.8591z"/><path d="M185.5216,108.2852l0.2363,1.9863c10.415-1.2363,12.834-11.5039,12.8574-11.6074l-1.9512-0.4375    C196.6436,98.3164,194.547,107.2139,185.5216,108.2852z"/></g><g><path d="M374.5008,47.153V14.951h16.3883l48.6403-5.3589h-70.3909v32.7447C371.346,43.3762,373.2152,45.0489,374.5008,47.153z"/><path d="M378.6143,267.1327c-0.0762-0.1296-0.1523-0.2587-0.2245-0.3911h-3.889V253.738l-5.3623-20.0569v36.8593h-31.3574v6    h40.8333V267.1327z"/><path d="M367.1187,57.0402c0.4921,1.288,0.8574,2.5932,1.1157,3.9026c3.46-2.0933,5.0417-6.4176,3.5474-10.3286    c-1.2295-3.2178-4.1982-5.2524-7.4248-5.4595c0.0576-1.146-0.1123-2.3213-0.5479-3.4619    c-1.6807-4.3984-6.6094-6.6021-11.0078-4.9214c-1.2089,0.4619-2.2444,1.1752-3.0867,2.0491    c-1.04-0.924-2.2882-1.5788-3.6306-1.9102c-1.6292-0.4022-3.3918-0.333-5.0781,0.3113c-2.8643,1.0944-4.7882,3.5679-5.3247,6.3733    c0.2358-0.0989,0.47-0.2004,0.7104-0.2923C348.6505,38.6188,362.4347,44.781,367.1187,57.0402z"/><path d="M354.6617,164.0461l23.9526,89.591V84.9139c-3.085-0.1016-7.0996,0.0571-11.8379,0.8932l0.5823,15.3151l-7.9165-4.4    l3.2831-10.0635c-0.5175,0.1252-1.0416,0.2586-1.5726,0.4003c-2.2826,0.6094-4.6826,1.3709-7.1909,2.3293    c-3.0914,1.1812-5.8643,2.4747-8.3502,3.8093l9.1571,5.3102l-2.9653,8.5579l-9.7786-11.8013    c-5.1184,3.1757-8.6812,6.3836-10.9364,8.7486l1.274-9.304c0.4873-3.5566-2.001-6.834-5.5576-7.3213    c-3.5518-0.4893-6.834,2.001-7.3213,5.5576l-6.2744,45.7979c-0.4346,3.167,1.5,6.1797,4.5605,7.1045    c0.623,0.1885,1.2559,0.2783,1.8789,0.2783c2.4385,0,4.7432-1.3789,5.8516-3.6709l12.0005-24.8154    c5.6648,6.421,12.0979,14.7538,13.9015,21.2188c1.5825,5.674,1.6952,9.7761,1.9098,13.9931c0.1423,2.8,0.332,5.6534,1.0244,9.0489    C354.368,162.6118,354.4703,163.33,354.6617,164.0461z M364.0606,115.8177c1.0508-0.4015,2.228,0.1249,2.6294,1.1756    c0.4016,1.0508-0.1248,2.228-1.1755,2.6295s-2.228-0.1249-2.6294-1.1756C362.4835,117.3965,363.0099,116.2192,364.0606,115.8177z     M359.7383,104.5053c1.0507-0.4015,2.228,0.1249,2.6295,1.1756c0.4014,1.0508-0.1249,2.228-1.1757,2.6295    c-1.0507,0.4015-2.2279-0.1249-2.6295-1.1756C358.1612,106.084,358.6875,104.9068,359.7383,104.5053z"/><path d="M325.8636,58.4513c3.2301-0.9156,6.5557,0.3646,8.406,2.944l4.0228-1.1404c0.2214-3.1666,2.3802-6.0017,5.6104-6.9174    c3.2301-0.9156,6.5557,0.3646,8.4059,2.944l10.2988-2.9195c-5.4905-8.0061-15.927-11.5285-25.3949-7.9109    c-6.3624,2.431-10.8981,7.5582-12.814,13.5806C324.8575,58.7936,325.3468,58.5978,325.8636,58.4513z"/><path d="M364.9703,57.8611c-0.3171-0.83-0.6853-1.625-1.0903-2.3912l-10.4875,2.973c0.0254,0.0798,0.0573,0.1559,0.0803,0.2371    c1.1674,4.118-1.2245,8.4025-5.3425,9.5699c-4.118,1.1674-8.4026-1.2245-9.5698-5.3425c-0.0231-0.0812-0.0359-0.1627-0.0562-0.244    l-3.1511,0.8933c0.0254,0.0798,0.0574,0.1559,0.0803,0.2371c1.1675,4.118-1.2244,8.4025-5.3424,9.5699    c-1.8649,0.5286-3.7609,0.3215-5.389-0.4394c0.0347,0.0947,0.0645,0.19,0.1006,0.2845    c4.2382,11.092,16.6658,16.6482,27.7578,12.41C363.6523,81.3807,369.2085,68.9532,364.9703,57.8611z M348.2105,82.8552    c-2.0051,1.7249-5.8485,0.5449-8.5845-2.6356s-3.3285-7.157-1.3235-8.8818c2.0051-1.7249,5.8485-0.5449,8.5845,2.6356    S350.2155,81.1304,348.2105,82.8552z"/><path d="M326.3751,60.2552c-3.1213,0.8848-4.9348,4.1334-4.05,7.2546c0.885,3.1221,4.1334,4.9348,7.2546,4.05    c3.1211-0.8848,4.9351-4.1326,4.0499-7.2546C332.7447,61.184,329.4962,59.3705,326.3751,60.2552z"/><path d="M344.4142,55.1415c-3.1211,0.8848-4.9348,4.1334-4.0499,7.2546c0.8851,3.1221,4.1334,4.9348,7.2545,4.0499    c3.1212-0.8848,4.9351-4.1325,4.05-7.2546C350.784,56.0702,347.5352,54.2567,344.4142,55.1415z"/><path d="M504.2372,272.101V9.5922L382.6143,19.9763V282.485L504.2372,272.101z M394.5321,118.7444l8.0391-2.6797v50.9082    l-8.0391,2.6792V118.7444z"/><polygon points="312.3458,33.8115 298.0968,39.666 311.0714,44.1045 298.2579,56.3232 316.6739,53.7295 316.256,50.7588     307.086,52.0498 316.7179,42.8662 306.6143,39.4102 317.7657,34.8271 306.7159,24.3135 321.252,26.1924 318.2091,12.9834     330.0431,21.9248 332.8849,9.2227 339.586,23.5137 347.2032,17.2998 346.3302,25.0088 349.3106,25.3467 351.0118,10.3213     340.67,18.7578 331.8731,0 328.1329,16.7217 313.4317,5.6143 317.3614,22.665 298.0011,20.1611   "/><path d="M298.7831,88.1553c-1.4849,0.6207-2.0186,2.1929-1.4966,3.4415c0.5652,1.3516,1.9086,2.0987,3.6311,1.3786    c1.5865-0.6633,2.0186-2.1929,1.4678-3.5102C301.8209,88.115,300.4383,87.4634,298.7831,88.1553z"/><path d="M291.151,69.6129c-1.5867,0.6632-1.7882,1.6979-1.3926,2.6444l1.5947,3.8145l5.3994,10.8314l2.8021-1.1714    l-3.9144-11.4521l-1.5667-3.7473C293.6361,69.4857,292.7718,68.9352,291.151,69.6129z"/><path d="M309.8827,79.5101c-0.9033-2.1607-0.6627-2.8164,0.7708-5.081c1.7441-2.7527,2.0178-4.8503,0.9595-7.382    c-0.9739-2.3297-3.7175-4.4343-8.3096-2.5146c-2.3296,0.9739-4.4976,2.7129-5.614,3.9332l2.0466,4.8956l3.7925-1.2692    l-0.8184-1.9574c-0.1975-0.4725-0.1416-0.8138,0.1338-1.008c0.3827-0.3197,0.9226-0.5454,1.4967-0.7854    c1.3159-0.5502,2.4288-0.2618,2.994,1.0898c0.7338,1.7555-0.02,2.7048-1.0205,4.3914c-1.4033,2.3327-2.0077,3.7359-0.5519,6.4579    l1.2527,2.3325l3.5453-1.4821L309.8827,79.5101z"/><path d="M313.1876,84.9495c-0.5782-1.3832-1.9485-2.0013-3.5679-1.3243c-1.4863,0.6213-2.0468,2.1255-1.4966,3.4415    c0.5649,1.3517,1.927,2.0506,3.5823,1.3586C313.292,87.7621,313.7102,86.1995,313.1876,84.9495z"/></g></g></svg>