<?xml version="1.0" ?><svg enable-background="new 0 0 232.6592 224.63" id="Layer_1" version="1.1" viewBox="0 0 232.6592 224.63" xml:space="preserve" xmlns="http://www.w3.org/2000/svg" xmlns:xlink="http://www.w3.org/1999/xlink"><g><path d="M162.4496,101.084c2.9927,1.1117,5.8929,2.9883,8.58,5.6188c3.8379,3.7544,5.1895,7.8818,6.6201,12.2515   c1.6533,5.0488,3.5749,10.899,9.9375,18.2275c2.8276-1.7069,3.952-5.3145,2.4998-8.3583l-16.2344-34.0288   c-3.2634,2.9634-7.2927,4.974-11.6439,5.7842L162.4496,101.084z"/><path d="M19.085,88.1837c-3.5615,0.4541-6.0791,3.71-5.624,7.2705c0.1355,1.0617,0.5399,2.0152,1.107,2.8403   c3.8116-3.9213,6.575-7.439,8.6245-10.6356L19.085,88.1837z"/><path d="M76.9465,66.6226c0.3668-2.1797,1.297-4.1199,2.606-5.7137c-0.5511,1.0817-0.9506,2.2635-1.1627,3.524   c-0.4998,2.9703,0.1227,5.8669,1.5507,8.2676l6.402,2.7108l27.72-28.9033c-0.683-0.1348-1.3638-0.2711-2.0736-0.3905   c-19.7021-3.3154-31.6592,2.6313-31.6592,2.6313s0.0081,0.0236,0.0114,0.0331c-1.1751,0.5042-2.2151,1.3559-2.9445,2.5219   L67.3508,67.3696l9.762,4.1335C76.7393,69.9498,76.6646,68.2976,76.9465,66.6226z M89.0496,70.7437   c-0.226,1.3433-1.4982,2.249-2.8416,2.0229c-1.3433-0.226-2.249-1.4982-2.023-2.8416c0.2261-1.3433,1.4983-2.249,2.8416-2.023   C88.3699,68.1282,89.2757,69.4004,89.0496,70.7437z"/><path d="M69.2676,105.0109c-0.4235,1.196-0.4695,2.4319-0.2111,3.585l1.7655-0.3135c0.7119-0.1265,1.4385-0.1904,2.1582-0.1904   c0.134,0,0.2655,0.0117,0.3986,0.0159c1.0298-2.8293,2.3171-5.116,3.6603-7.21C73.8062,100.0494,70.404,101.8018,69.2676,105.0109z   "/><path d="M27.2038,141.0074c-2.16,0-4.7946-0.5231-7.5641-1.4747l11.6452,25.0441L1.8581,205.8541   c-3.2061,4.4971-2.1592,10.7412,2.3379,13.9473c1.7598,1.2549,3.7871,1.8584,5.7959,1.8584   c3.123-0.0005,6.2002-1.4595,8.1514-4.1963l32.8066-46.0186c2.0889-2.9302,2.4424-6.7578,0.9248-10.021l-10.6486-22.9007   l-10.5594,1.8753C29.7155,140.8029,28.5524,141.0074,27.2038,141.0074z"/><path d="M26.4715,31.9192c-6.3903,2.037-12.5091,7.4009-13.3495,21.3499c-1.0086,16.741-6.8668,18.9232-11.3722,18.3428   c-4.5054-0.5803,5.8139,8.9561,17.2586-1.1462c8.4216-7.4338,5.0775-25.0844,10.2143-30.9089   c-0.1158-0.204-0.2349-0.4053-0.3454-0.614C27.6799,36.682,26.8899,34.3131,26.4715,31.9192z"/><path d="M59.9718,46.8047c10.4935-5.5571,14.4952-18.5687,8.9381-29.0621C63.3527,7.2491,50.3411,3.2474,39.8477,8.8045   s-14.4952,18.5687-8.9381,29.0622C36.4667,48.3602,49.4783,52.3619,59.9718,46.8047z M46.0065,36.3768   c8.3388,2.1354,18.725-3.572,18.725-3.572C57.9434,48.8419,46.0065,36.3768,46.0065,36.3768z"/><path d="M146.9262,38.2563c-1.0239-11.7556-5.6491-17.2841-10.9418-19.8464c0.4412,3.8917-0.0978,7.8508-1.6484,11.5643   c-0.4886,1.1698-1.0703,2.2787-1.7233,3.3311c2.0458,6.9624,2.5973,17.0376,8.8883,22.2986   c0.9522,0.7963,1.8916,1.4509,2.8151,2.0042c2.3294-1.611,4.9359-2.7961,7.6962-3.496   C149.6604,51.6911,147.6857,46.9758,146.9262,38.2563z"/><path d="M120.9291,1.626c-10.7002-4.4664-22.9959,0.5846-27.4642,11.2845c-4.4688,10.7017,0.5846,22.9959,11.2864,27.4645   c10.7001,4.4666,22.9944-0.5874,27.4626-11.2872C136.6804,18.3882,131.6273,6.0921,120.9291,1.626z M98.9378,24.1717   c5.3558,6.7388,17.0807,8.4639,17.0807,8.4639C100.9218,41.3162,98.9378,24.1717,98.9378,24.1717z"/><path d="M93.7276,144.5829l2.0079-11.9323c-3.4371-3.4942-3.3444-6.0949-9.1615-10.1791L93.7276,144.5829z"/><path d="M79.4353,180.3258l-7.8963-24.4073l-9.5423,56.7063c-0.916,5.4468,2.7549,10.604,8.2021,11.5205   c5.4443,0.9165,10.6045-2.7549,11.5205-8.2017l4.7169-28.0309C83.1735,186.5671,80.5746,183.8467,79.4353,180.3258z"/><path d="M127.1042,58.3365L94.8474,91.9698c-1.6514,1.7217-3.9668,2.709-6.3535,2.709c-1.1836,0-2.3379-0.2344-3.4297-0.6968   l-0.8088-0.3425c-2.6489,5.3562-6.2308,8.7933-8.53,14.7656c4.1588,0.9468,7.5925,4.0035,8.9511,8.2014l0.2435,0.7526   c4.7836,2.6276,10.0219,5.0048,13.6979,5.2666c7.1859,0.5117,22.3718-5.9916,27.0754-8.0989   c-0.8084-7.1141-3.9086-12.0211-3.1936-20.7057c0.1651-2.0142,0.7519-4.2723,1.6154-6.6432   c-1.4818,0.324-3.0464,0.3844-4.6338,0.1173c-5.396-0.908-9.3654-5.2231-10.0791-10.3705c1.4687,3.9731,4.9552,7.0756,9.432,7.829   c6.6564,1.1201,12.9605-3.368,14.0806-10.0244c0.2121-1.2605,0.2215-2.5079,0.0547-3.7103   c-0.0045-0.0329-0.0133-0.0646-0.0181-0.0975l0.8098-0.8189l1.0564,1.1091c0.6742-2.6133,1.8061-5.1541,3.4201-7.5046   c1.0284-1.4976,2.2181-2.8485,3.528-4.0511l-0.1532-0.1608c-0.039-0.041-0.0818-0.0757-0.1217-0.1155   c-0.4503-0.5671-0.986-1.0506-1.5838-1.4341c-1.6375-1.3793-5.087-3.959-10.3996-6.4554   C129.716,53.9266,128.9257,56.4372,127.1042,58.3365z M122.7995,80.0453c-1.3433-0.226-2.249-1.4982-2.023-2.8416   c0.2261-1.3433,1.4983-2.249,2.8416-2.023c1.3433,0.2261,2.249,1.4983,2.0229,2.8416   C125.415,79.3657,124.1428,80.2714,122.7995,80.0453z"/><path d="M104.8648,154.3184v60.0535c0,5.5234,4.4766,10,10,10c5.5195,0,10-4.4766,10-10v-54.4888L104.8648,154.3184z"/><path d="M99.9074,133.0947c0.2332,0.8901,0.6179,2.3351,1.1131,4.1266c1.1528-0.55,2.431-0.8604,3.7639-0.8604   c0.7969,0,1.5918,0.1094,2.3643,0.3242l17.7161,4.9294v-13.709c0.1924-0.9595,0.3809-1.9702,0.5615-3.0464   c0.415-2.4649,0.5485-4.2604,0.4681-5.555C104.7631,125.2964,106.0562,128.6921,99.9074,133.0947z"/><path d="M86.6691,69.5094c-0.548-0.0922-1.067,0.2773-1.1592,0.8253c-0.0922,0.548,0.2773,1.067,0.8253,1.1592   c0.548,0.0922,1.067-0.2773,1.1592-0.8253S87.2171,69.6016,86.6691,69.5094z"/><path d="M123.4299,76.8166c-0.548-0.0922-1.067,0.2773-1.1592,0.8253c-0.0922,0.548,0.2773,1.067,0.8253,1.1592   c0.548,0.0922,1.067-0.2773,1.1592-0.8253S123.9779,76.9088,123.4299,76.8166z"/><path d="M222.6592,204.63h-43.8525l17.2297-20.1616l3.493-4.0874c0.4905-0.574,0.8975-1.19,1.2363-1.8307   c8.1373-6.6391,13.0953-16.8534,0.4819-26.1173c-30.4719-22.3801-21.9961-34.4691-31.8259-44.0869   c-6.9993-6.8504-14.571-7.459-20.3334-4.3282l-6.8552,2.8382l-14.4456,5.9808c0.2896,1.844,0.4591,3.8217,0.3846,6.0445   c0.1338,1.5732-0.0225,3.6567-0.4775,6.3594c-0.1071,0.6373-0.2177,1.2457-0.3295,1.8414l15.1079-6.255l2.4036-0.9951   c-0.1522,2.6256-0.8943,4.6522-1.5198,6.4105c-1.1047,1.431-2.1938,2.8867-3.1686,4.2639   c-1.075,1.5188-2.0099,2.9399-2.6583,4.1126c-0.2003-0.0589-0.4129-0.0872-0.6334-0.0693   c-0.9634,0.0782-1.6809,0.9225-1.6027,1.8859c0.062,0.7638,0.6082,1.3658,1.3109,1.5464c0.1966,2.5891,1.3216,5.586,3.1908,7.7867   l0.201,0.0559l9.2734-28.3345c1.1865-3.6274,4.5479-6.0649,8.3623-6.0649c0.9287,0,1.8506,0.1475,2.7393,0.439   c4.6104,1.5088,7.1338,6.4883,5.625,11.1001l-7.8969,24.1299c10.1833,10.9456,15.894,20.9,19.411,28.2657l-1.6384,1.9172   l-26.3682,30.8556c-2.5352,2.9678-3.1133,7.1377-1.4795,10.6826c1.6338,3.5439,5.1797,5.8145,9.082,5.8145h65.5527   c5.5225,0,10-4.4775,10-10S228.1817,204.63,222.6592,204.63z"/><path d="M180.5273,84.4561c6.2598,4.9388-0.0307,21.8498,7.4895,31.0823c9.6409,11.836,21.3792,4.1133,16.8395,3.9498   c-4.5396-0.1634-9.9626-3.2732-8.2232-19.954c1.8873-18.099-7.4298-23.3011-15.1562-25.244   C181.9049,77.7485,181.5765,81.2025,180.5273,84.4561z"/><path d="M140.1342,65.0091c-6.7219,9.7883-4.2361,23.1725,5.5521,29.8944s23.1724,4.2361,29.8943-5.5521   s4.2362-23.1724-5.5521-29.8944C160.2402,52.735,146.8561,55.2208,140.1342,65.0091z M143.2431,82.475   c6.6689,5.4426,18.4921,4.6294,18.4921,4.6294C148.8351,98.8029,143.2431,82.475,143.2431,82.475z"/><path d="M82.488,117.3146c-1.5381-4.7524-6.3467-7.6411-11.2637-6.7676l-31.6631,5.623   c2.9805-5.6973,6.9902-12.1167,12.5039-18.9819c11.999,11.0596,18.6797-1.0093,18.0664-8.0347   c-0.02-0.2281-0.4047-0.896-0.9889-1.913L48.405,78.4596c-2.165-0.9165-3.8428-2.6211-4.7256-4.7993   c-0.8828-2.1792-0.8643-4.5713,0.0527-6.7358c1.3809-3.2622,4.5635-5.3701,8.1074-5.3701c1.1807,0,2.334,0.2354,3.4277,0.6987   l7.267,3.077c0.1119-1.855,0.4341-3.7343,1.0465-5.6063c-6.0488-7.9385-17.4219-9.9644-26.5947,0.5972   c-9.0195,10.3813,0.4062,21.7456-28.1553,46.5171c-21.0859,18.2881,13.7744,35.0698,21.1445,31.3472l36.166-6.4229l15.4824,47.8555   c1.3691,4.2319,5.292,6.9248,9.5127,6.9248c1.0195-0.0005,2.0576-0.1577,3.0801-0.4883c5.2549-1.7002,8.1367-7.3384,6.4365-12.5928   L82.488,117.3146z"/><path d="M54.3698,64.3707c-3.3027-1.3999-7.1201,0.145-8.5195,3.4507c-1.4004,3.3062,0.1455,7.1206,3.4512,8.52l36.6602,15.5229   c0.8184,0.3467,1.6787,0.5146,2.5322,0.5146c1.7363,0,3.4414-0.6958,4.6934-2.001l32.2568-33.6333   c2.4844-2.5908,2.3984-6.7056-0.1924-9.1904c-2.5898-2.4834-6.7061-2.3989-9.1904,0.1924L86.905,78.1471L54.3698,64.3707z"/><path d="M163.8108,122.2491c1.1162-3.4116-0.7441-7.0825-4.1562-8.1992c-3.4092-1.1177-7.083,0.7446-8.1992,4.1558l-9.957,30.4243   l-34.9668-9.729c-3.458-0.9634-7.042,1.061-8.0039,4.52c-0.9629,3.4585,1.0605,7.042,4.5195,8.0044l40.9541,11.3945   c0.582,0.1616,1.168,0.2393,1.7451,0.2393c2.7441,0,5.2812-1.75,6.1748-4.4795L163.8108,122.2491z"/></g></svg>