<?xml version="1.0" ?><svg enable-background="new 0 0 124.269 232.6059" id="Layer_1" version="1.1" viewBox="0 0 124.269 232.6059" xml:space="preserve" xmlns="http://www.w3.org/2000/svg" xmlns:xlink="http://www.w3.org/1999/xlink"><g><path d="M14.7547,202.525c-1.2037,5.3906,2.1898,10.7354,7.5804,11.939c1.1622,0.2595,2.3198,0.2935,3.437,0.1515L15.134,200.7658   L14.7547,202.525z"/><path d="M22.0041,173.6898c0.2715,0.0685,0.5421,0.142,0.8098,0.229l0.2715,0.0884c0.0339,0.012,0.0688,0.0212,0.1028,0.0334   l13.1965,4.2964c0.494-1.2156,1.0168-2.3779,1.5366-3.5222c1.6523-3.6372,3.2129-7.0728,3.6416-12.1104   c0.4281-5.0339-0.7125-10.4192-2.1631-14.949l-13.417,2.6949l-4.9659,23.0315c0.1871,0.0313,0.3729,0.0718,0.5587,0.1117   C21.7192,173.6239,21.8621,173.6544,22.0041,173.6898z"/><path d="M82.6533,159.1172c0.3428,0.1129,0.708,0.204,1.1062,0.2673c2.2695,0.3604,2.9648,1.874,2.8711,3.061   c-0.1298,1.6473-1.603,2.6951-3.5029,3.2245c0.6775,3.511,1.9161,6.2708,3.2214,9.1438c0.5198,1.1445,1.0427,2.3069,1.5369,3.5227   l13.1855-4.2926c0.0454-0.0164,0.0923-0.0291,0.1379-0.0449l0.2461-0.0802c0.2471-0.0803,0.4969-0.1469,0.7472-0.2114   c0.1688-0.043,0.3385-0.0818,0.5096-0.1177c0.1796-0.0383,0.3589-0.0776,0.5396-0.1079l-4.9592-22.9991l-13.4309-2.6979   C83.7559,151.2445,82.8352,155.1996,82.6533,159.1172z"/><path d="M101.9337,214.464c5.3906-1.2036,8.7841-6.5483,7.5804-11.939l-0.3793-1.7588l-10.6383,13.8492   C99.6137,214.7575,100.7714,214.7235,101.9337,214.464z"/><path d="M93.423,42.338c-0.5377-0.4879-1.1364-0.8636-1.7666-1.139c-1.9031-1.1262-5.9491-3.2198-11.9917-4.8353   c-4.2981,4.9227-10.5854,7.936-17.5125,7.936c-1.7744,0-3.5576-0.2061-5.2998-0.6113c-4.9246-1.1472-9.1155-3.7908-12.2158-7.3331   c-6.0591,1.6162-10.1152,3.7147-12.0225,4.843c-0.6311,0.2756-1.2303,0.6514-1.7683,1.1398L2.132,68.3976   c-2.6221,2.3799-2.8574,6.4199-0.5293,9.0879l26.4219,30.2754c1.248,1.4301,2.9843,2.1751,4.7434,2.2174l-22.2229,30.6068   c-0.0256,0.0353-0.0459,0.0728-0.0706,0.1084c-0.0552,0.0793-0.1069,0.1606-0.1581,0.2426   c-0.0555,0.0887-0.1102,0.1775-0.1605,0.2682c-0.042,0.0757-0.0804,0.1533-0.1191,0.231   c-0.0499,0.0999-0.0994,0.1993-0.1432,0.3009c-0.032,0.0741-0.0598,0.1497-0.0889,0.225   c-0.0409,0.1067-0.0818,0.2131-0.1163,0.3212c-0.0251,0.0782-0.0457,0.1578-0.0675,0.2372   c-0.0292,0.1064-0.0587,0.2126-0.0819,0.3201c-0.0189,0.0867-0.0325,0.1746-0.0476,0.2625   c-0.0173,0.1025-0.0354,0.2048-0.0474,0.308c-0.0107,0.0918-0.0162,0.1844-0.0227,0.2771   c-0.0072,0.1022-0.0146,0.2041-0.0165,0.3063c-0.0017,0.0908,0.0013,0.182,0.0038,0.2733   c0.0029,0.1073,0.0065,0.2145,0.0151,0.3214c0.0068,0.0845,0.0173,0.1692,0.0278,0.2539c0.0143,0.1157,0.0305,0.231,0.0515,0.3456   c0.0063,0.0349,0.0085,0.0695,0.0155,0.1044c0.002,0.0099,0.0063,0.0186,0.0084,0.0284c0.5845,2.8342,3.0784,4.7909,5.8676,4.7909   c0.3926,0,0.79-0.0386,1.1885-0.1187l24.3541-4.8917c1.8101,5.0983,3.4407,11.642,2.9176,17.7985   c-0.8815,10.3654-6.2366,14.505-7.4943,24.2161c-0.3478,1.2712-0.5449,3.1698-0.5449,5.9061   c0,18.3319,24.2225,11.4132,24.2225,11.4132h4.1953c0,0,24.2207,6.9187,24.2207-11.4132c0-2.7345-0.1971-4.631-0.5449-5.9043   c-1.1199-8.6615-5.493-12.9027-7.0519-21.0673c-0.3174,0.0225-0.6361,0.0367-0.9543,0.0367c-0.001,0-0.001,0-0.002,0   c-2.6797,0-9.4746-0.8931-14.6855-9.1665c-3.8477-6.1099-2.6074-14.1094-1.5137-21.1675c0.4232-2.7294,0.8313-5.3773,0.8872-7.5922   c-0.7949-0.0271-1.606-0.0459-2.4531-0.0459c-11.6298,0-18.2568,2.6587-21.7699,4.8816c-0.1284,0.0173-0.2567,0.0315-0.3855,0.0574   l-17.621,3.5394l-0.3995-2.2657l17.5674-3.5286c0.0099-0.002,0.0177,0.0175,0.0272,0.0208   c0.7134-0.4297,1.5266-0.8655,2.4448-1.293c-2.9998-5.1521-3.9105-11.1544-2.5527-16.9865   c2.4717-10.6069,11.7939-18.0146,22.6719-18.0146c1.7744,0,3.5576,0.2056,5.3008,0.6113   c12.5088,2.9126,20.3164,15.46,17.4043,27.9702c-0.5381,2.3102-1.418,4.4565-2.5513,6.4197   c0.9233,0.4302,1.7407,0.8687,2.4572,1.3008l17.4258,3.5l-0.3995,2.2657l-17.621-3.5394c-0.0608-0.0122-0.1212-0.0168-0.182-0.0271   c-0.8131-0.5178-1.7974-1.0588-2.9733-1.5864c0.0927,2.8895-0.2224,6.1713-1.0834,9.9264   c-2.1992,9.5898-1.1045,13.9072,0.2012,15.8403c0.106,0.1569,0.2344,0.2808,0.3518,0.4203   c0.3833-4.4578,1.5793-8.8457,2.8738-12.4972l24.2094,4.8627c0.3984,0.0801,0.7959,0.1187,1.1885,0.1187   c2.7892,0,5.2831-1.9567,5.8676-4.7909c0.0021-0.0099,0.0065-0.0186,0.0084-0.0284c0.0078-0.0391,0.0104-0.0778,0.0175-0.1167   c0.0188-0.1044,0.0334-0.2091,0.0466-0.3142c0.0121-0.0952,0.0239-0.1899,0.0314-0.2847c0.0074-0.0956,0.0105-0.1912,0.0134-0.2872   c0.0031-0.1025,0.0063-0.2047,0.0043-0.3065c-0.0018-0.0901-0.0085-0.1799-0.0144-0.27c-0.007-0.1047-0.0134-0.2094-0.0258-0.3129   c-0.0106-0.0907-0.0267-0.1805-0.0416-0.2709c-0.0167-0.1001-0.0325-0.2002-0.0542-0.2991   c-0.0208-0.0953-0.0472-0.1897-0.0728-0.2844c-0.0249-0.0913-0.0486-0.1826-0.0776-0.2725   c-0.0313-0.0974-0.0682-0.1931-0.1047-0.2893c-0.0328-0.0862-0.0648-0.1721-0.1013-0.2566   c-0.0402-0.0923-0.0852-0.1829-0.1302-0.2737c-0.0431-0.0868-0.0861-0.1733-0.1332-0.2579   c-0.0461-0.0829-0.0963-0.1641-0.1469-0.2454c-0.0557-0.0897-0.1124-0.1783-0.1727-0.265   c-0.0227-0.0328-0.0414-0.0674-0.0649-0.0999l-22.2163-30.5992c1.8088-0.0028,3.6074-0.7561,4.8901-2.225l26.4229-30.2754   c2.3281-2.668,2.0928-6.708-0.5293-9.0879L93.423,42.338z M45.8425,60.8825c1.3621,0,2.4663,1.1042,2.4663,2.4664   c0,1.3622-1.1042,2.4665-2.4663,2.4665c-1.3623,0-2.4666-1.1042-2.4666-2.4665C43.3759,61.9868,44.4802,60.8825,45.8425,60.8825z    M47.9116,73.5155c-1.6084,0-3.1405-0.3188-4.5471-0.8835c0.458,2.4811,0.6611,4.8046,0.49,6.8179   c-0.7178,8.4433-4.4033,12.757-6.4255,19.3146L15.5891,73.7404l21.6194-19.621c0.0918,0.2112,0.1833,0.4217,0.2754,0.636   c-0.0568,0.1574-0.1221,0.3107-0.1724,0.4711c-0.364,1.1581-0.5619,2.3899-0.5619,3.6682c0,6.75,5.4719,12.2219,12.2219,12.2219   c4.5397,0,8.4926-2.4807,10.6002-6.1549C58.0136,69.9191,53.3834,73.5155,47.9116,73.5155z M80.8933,63.349   c0,1.3622-1.1042,2.4665-2.4664,2.4665s-2.4664-1.1042-2.4664-2.4665c0-1.3622,1.1042-2.4664,2.4664-2.4664   S80.8933,61.9868,80.8933,63.349z M86.8403,98.7631c-2.0217-6.5574-5.7075-10.871-6.4236-19.3132   c-0.1714-2.0135,0.0316-4.3372,0.4895-6.8185c-1.407,0.5651-2.9395,0.8841-4.5486,0.8841c-5.4718,0-10.1023-3.5966-11.6603-8.5541   c2.1078,3.6744,6.0607,6.1552,10.6005,6.1552c6.75,0,12.2219-5.4719,12.2219-12.2219c0-1.2783-0.1979-2.51-0.5619-3.6682   c-0.0504-0.1602-0.1156-0.3134-0.1722-0.4706c0.092-0.2143,0.1836-0.4247,0.2754-0.636l21.6189,19.6206L86.8403,98.7631z"/><path d="M82.5827,25.76c2.629-11.2925-4.3945-22.5796-15.6854-25.2085C55.6042-2.0773,44.3171,4.944,41.6864,16.2371   c-2.6309,11.2949,4.3925,22.5801,15.6875,25.2109C68.6667,44.077,79.952,37.0529,82.5827,25.76z"/><path d="M45.7565,64.5393c0.5557,0,1.0061-0.4505,1.0061-1.0062s-0.4504-1.0062-1.0061-1.0062   c-0.5558,0-1.0063,0.4505-1.0063,1.0062S45.2008,64.5393,45.7565,64.5393z"/><path d="M77.5065,63.533c0,0.5557,0.4504,1.0062,1.0061,1.0062c0.5558,0,1.0063-0.4505,1.0063-1.0062s-0.4506-1.0062-1.0063-1.0062   C77.957,62.5268,77.5065,62.9773,77.5065,63.533z"/><path d="M48.7876,207.9706c-3.8236-0.2051-7.0027-1.1338-9.4648-2.7695c-3.8535-2.5581-5.8066-6.6563-5.8066-12.1797   c0-2.7441,0.1914-4.8247,0.584-6.3525c0.3113-2.3196,0.8413-4.3308,1.4751-6.1764l-13.3872-4.3583   c-0.0098-0.0032-0.0195-0.0063-0.0293-0.0095l-0.0576-0.0188c-0.0868-0.0283-0.1743-0.0449-0.2615-0.0708   c-0.2167-0.0638-0.4333-0.1279-0.6536-0.177c-0.1716-0.0386-0.343-0.0634-0.5148-0.0925   c-0.1442-0.0244-0.2875-0.0533-0.4325-0.0714c-0.2031-0.0255-0.4053-0.0375-0.6077-0.0504   c-0.1182-0.0073-0.2356-0.019-0.3538-0.0223c-0.2061-0.0057-0.4102,0.0009-0.6147,0.0079   c-0.1204,0.0042-0.2402,0.0046-0.3605,0.0131c-0.1903,0.0135-0.3783,0.0377-0.5665,0.0621   c-0.1372,0.0173-0.2744,0.0322-0.411,0.0554c-0.1669,0.0286-0.3309,0.0667-0.4955,0.1035   c-0.1558,0.0347-0.3115,0.0675-0.4661,0.1097c-0.1467,0.0404-0.2902,0.0895-0.4347,0.1364   c-0.1656,0.0536-0.3312,0.1055-0.4945,0.168c-0.1406,0.054-0.2771,0.1169-0.415,0.177c-0.158,0.0688-0.3164,0.1349-0.4717,0.2124   c-0.1592,0.0793-0.3123,0.1697-0.467,0.2573c-0.1256,0.0713-0.2529,0.1375-0.3765,0.2147   c-0.2157,0.1349-0.4229,0.2828-0.6282,0.434c-0.0527,0.0389-0.1086,0.071-0.161,0.1111c-0.0055,0.0043-0.0101,0.0092-0.0156,0.0134   c-0.7828,0.6028-1.4816,1.323-2.0637,2.1482c-0.1071,0.1514-0.199,0.3103-0.2968,0.4666c-0.0752,0.1201-0.157,0.2347-0.2273,0.3589   c-0.1648,0.2898-0.3137,0.5869-0.4476,0.8895c-0.007,0.0157-0.012,0.0328-0.0189,0.0486   c-0.1257,0.2882-0.2383,0.5812-0.3359,0.8785c-0.0034,0.0107-0.0084,0.0205-0.012,0.0313   c-0.0337,0.1039-0.0543,0.2085-0.0845,0.3126c-0.0575,0.1987-0.1169,0.3967-0.1621,0.5984   c-0.0403,0.1793-0.0667,0.3588-0.0968,0.5383c-0.0228,0.1368-0.0504,0.2725-0.0675,0.41c-0.0261,0.207-0.0385,0.4128-0.0514,0.6193   c-0.0072,0.1146-0.0184,0.2286-0.0217,0.3434c-0.0057,0.2079,0.0009,0.4139,0.0081,0.6204   c0.004,0.1187,0.0045,0.2372,0.0128,0.3558c0.0134,0.1912,0.038,0.3799,0.0624,0.569c0.0175,0.1366,0.0321,0.2729,0.0552,0.4089   c0.0287,0.1672,0.0668,0.3315,0.1038,0.4965c0.0345,0.1556,0.0674,0.3113,0.1096,0.4657c0.0403,0.1465,0.0894,0.2894,0.1361,0.4336   c0.0537,0.166,0.1055,0.332,0.1683,0.496c0.0538,0.1406,0.1169,0.2769,0.1771,0.4149c0.0687,0.1576,0.1345,0.3159,0.2119,0.4709   c0.0803,0.1611,0.1718,0.3164,0.2606,0.4731c0.0702,0.1233,0.1349,0.2483,0.2108,0.3696c0.1401,0.2242,0.2935,0.4399,0.4512,0.6528   c0.0334,0.0452,0.0608,0.093,0.0951,0.1377l0.0233,0.0304c0.0142,0.0182,0.0278,0.0367,0.042,0.0548l28.3478,36.9055   c1.9697,2.564,4.9365,3.9092,7.9375,3.9092c2.126,0,4.2686-0.6753,6.085-2.0698c4.3799-3.3643,5.2031-9.6421,1.8389-14.022   L48.7876,207.9706z"/><path d="M90.1704,186.6713c0.3936,1.5293,0.584,3.6094,0.584,6.3501c0,5.5239-1.9531,9.6221-5.8057,12.1807   c-2.4631,1.6357-5.6433,2.5642-9.4683,2.7688l-6.5621,8.5427c-3.3643,4.3799-2.541,10.6577,1.8389,14.0225   c1.8164,1.395,3.959,2.0698,6.085,2.0698c3,0,5.9678-1.3452,7.9375-3.9087l28.3573-36.9167   c0.0074-0.0095,0.0146-0.019,0.022-0.0286l0.0348-0.0454c0.0514-0.0669,0.0929-0.1383,0.1425-0.2062   c0.1377-0.1893,0.2747-0.3789,0.3987-0.577c0.0869-0.1385,0.1616-0.2813,0.241-0.4225c0.0781-0.1393,0.1597-0.2765,0.2311-0.4194   c0.0848-0.1693,0.1572-0.3422,0.2317-0.5148c0.0532-0.1233,0.1097-0.2449,0.1581-0.3704c0.0681-0.1771,0.1245-0.3566,0.1819-0.5361   c0.042-0.1306,0.0867-0.26,0.1233-0.3925c0.046-0.1674,0.0818-0.3358,0.1188-0.5045c0.0337-0.1525,0.0692-0.304,0.0958-0.4583   c0.0251-0.1479,0.0415-0.2963,0.0599-0.4448c0.0223-0.1775,0.0457-0.3545,0.0585-0.5338c0.0092-0.1305,0.0101-0.2609,0.0142-0.3915   c0.0063-0.1948,0.0129-0.3894,0.0076-0.5856c-0.0034-0.1273-0.0157-0.2535-0.024-0.3805c-0.0127-0.1945-0.024-0.3884-0.0483-0.5834   c-0.0188-0.1515-0.0487-0.3009-0.0743-0.4514c-0.0286-0.1661-0.0525-0.3322-0.0897-0.4982   c-0.0488-0.2192-0.1125-0.4348-0.1761-0.6506c-0.0261-0.0886-0.0432-0.1777-0.072-0.2661   c-0.0029-0.009-0.0071-0.0175-0.0101-0.0266c-0.1027-0.3135-0.2198-0.6226-0.3536-0.9255   c-0.0006-0.0015-0.0012-0.0028-0.0017-0.0042c-0.1343-0.3037-0.2837-0.6016-0.4489-0.8923   c-0.0715-0.1262-0.1547-0.2427-0.2312-0.3647c-0.0961-0.1533-0.1862-0.3096-0.2911-0.4583   c-0.5837-0.8279-1.2847-1.5499-2.0703-2.1541c-0.0035-0.0028-0.0066-0.006-0.0101-0.0088   c-0.0338-0.0259-0.0699-0.0463-0.1039-0.0718c-0.2249-0.1678-0.4539-0.3293-0.6914-0.4775   c-0.1102-0.0691-0.2241-0.1277-0.3362-0.1919c-0.1675-0.0957-0.3336-0.193-0.5061-0.2789   c-0.1477-0.0736-0.2983-0.1361-0.4482-0.2018c-0.145-0.0636-0.2887-0.1296-0.4368-0.1864c-0.1599-0.0613-0.322-0.1118-0.484-0.1644   c-0.147-0.0479-0.2928-0.0978-0.4421-0.1389c-0.155-0.0425-0.3114-0.0753-0.4677-0.1101   c-0.1633-0.0365-0.3259-0.0743-0.4915-0.1028c-0.1405-0.0239-0.2814-0.0391-0.4224-0.0569   c-0.1837-0.0234-0.3669-0.0474-0.5525-0.0605c-0.1283-0.009-0.2563-0.0098-0.3845-0.0139   c-0.1959-0.0063-0.3914-0.0129-0.5886-0.0076c-0.1309,0.0034-0.2607,0.016-0.3911,0.0247   c-0.1899,0.0127-0.3793,0.0234-0.5696,0.0472c-0.1624,0.0201-0.3228,0.0518-0.4839,0.0797   c-0.1549,0.0271-0.3098,0.0488-0.4646,0.0836c-0.2415,0.0536-0.4792,0.1226-0.7166,0.194   c-0.0685,0.0208-0.1375,0.0334-0.2058,0.0557l-0.0461,0.0151c-0.0162,0.0054-0.0326,0.0104-0.0488,0.0159l-13.377,4.355   C89.3293,182.3383,89.8596,184.3502,90.1704,186.6713z"/><path d="M77.6545,140.8523c4.5872-20.0073-6.9644-25.4568-14.7512-27.8452l0.5475-2.2371   c6.1051,1.8672,15.189,5.7748,17.1642,16.9769c0.8557-1.5955,1.5378-3.3145,1.9681-5.1617   c2.629-11.2925-4.3945-22.5797-15.6855-25.2086c-11.293-2.6288-22.5801,4.3925-25.2108,15.6855   c-1.2883,5.5307-0.2502,11.0524,2.4592,15.5635c4.1418-1.561,9.9587-2.8109,17.9902-2.8109c0.8057,0,1.5813,0.0166,2.343,0.0408   c-0.1479-1.035-0.4458-1.8934-0.9648-2.4989c-0.5818-0.6798-1.5138-1.1083-2.827-1.2957l0.5438-2.2223   c12.9658,2.1594-1.5166,24.0308,5.931,35.8556c8.1354,12.9171,20.7231,6.674,16.2367,5.9615   C78.9126,160.9435,73.9063,157.1994,77.6545,140.8523z"/></g></svg>