<?xml version="1.0" ?><svg data-name="Layer 1" id="fadd8509-3899-47da-a5df-aa054173d6b3" viewBox="0 0 5 5" xmlns="http://www.w3.org/2000/svg"><title/><g><path d="M3.64852,1.72606c.12374-.02684.18168.11045.20564.20809.05.20392.10579.40572.1633.60768.0568.19944.1143.39871.16671.59935a2.22648,2.22648,0,0,1,.05622.25825c.01279.09286-.00821.21915.06973.28621.024.02065-.00513.0639-.03267.04636-.109-.06945-.08251-.21915-.098-.33031a4.4595,4.4595,0,0,0-.15385-.58284c-.05088-.18018-.10269-.36018-.15153-.54093-.02509-.09282-.04835-.18628-.0646-.28109-.01779-.10381-.01835-.25117-.15839-.25572C3.64286,1.74084,3.63945,1.728,3.64852,1.72606Z"/><path d="M3.26485,2.8123a1.27787,1.27787,0,0,1,.08878-.10317.68579.68579,0,0,0,.09376-.16441c.03194-.07626.04411-.16146.06923-.24049a.7085.7085,0,0,1,.038-.35791.01141.01141,0,0,1,.02139.00481,1.38308,1.38308,0,0,0,.05281.52334,2.164,2.164,0,0,0,.24328.48839.45532.45532,0,0,1,.079.18134c.00911.0719-.04235.119-.04584.18506-.00584.11028.10734.148.16557.21949.042.05158.03838.18619.11349.19718a.00976.00976,0,0,1-.00175.0192.10847.10847,0,0,1-.1056-.07679.36281.36281,0,0,0-.08367-.128,1.18633,1.18633,0,0,1-.09954-.08786.17335.17335,0,0,1-.044-.16831.386.386,0,0,0,.03908-.13984.36874.36874,0,0,0-.075-.1655,2.12891,2.12891,0,0,1-.275-.58027.87266.87266,0,0,1-.044.16589.41907.41907,0,0,1-.20627.25661C3.27307,2.84615,3.25528,2.82721,3.26485,2.8123Z"/><path d="M2.9012,2.3726a2.53759,2.53759,0,0,1,.33945-.37292.93985.93985,0,0,1,.33315-.2566c.00783-.00284.01562.00863.009.01436A4.23229,4.23229,0,0,0,3.2676,2.07a2.39887,2.39887,0,0,1-.33283.33377C2.91607,2.41691,2.88873,2.39239,2.9012,2.3726Z"/><path d="M2.05469,2.68414a1.33489,1.33489,0,0,1,.337.23379,1.75609,1.75609,0,0,1,.23919.3088.34955.34955,0,0,0,.177.01739,1.02665,1.02665,0,0,0,.21156-.08968l.00524.00632a.36715.36715,0,0,1-.332.15064,1.24561,1.24561,0,0,0,.27182.25242.63981.63981,0,0,1,.121.09674c.03.03364.05036.07489.08209.10707a.47726.47726,0,0,0,.09408.06481c.01653.01028.01483.044-.00939.04176-.15-.01361-.1744-.17924-.28674-.25058a1.247,1.247,0,0,1-.3081-.24655c-.09842-.1175-.16644-.25616-.27087-.36913a4.265,4.265,0,0,0-.34762-.3015C2.02695,2.69594,2.041,2.67771,2.05469,2.68414Z"/><path d="M2.98034,3.938c.062.028.10932.05877.17554.01845a.39221.39221,0,0,1,.0916-.04676.00857.00857,0,0,1,.00869.01392c-.03643.04193-.05514.09588-.11713.10576a.28116.28116,0,0,1-.1775-.0552A.0204.0204,0,0,1,2.98034,3.938Z"/><path d="M2.56316,3.52785c.02656.01227.02608.02754.04149.04975.0387.05577.07116.03767.11633.06884a.4272.4272,0,0,1,.084.10553.70777.70777,0,0,1,.0757.13409c.0019.00452-.00419.00688-.00729.00455a.72787.72787,0,0,1-.11855-.11539c-.01177-.014-.02734-.036-.03992-.0492-.053-.05555-.045-.02843-.09212-.04409-.06132-.02036-.058-.0866-.07994-.13724C2.53761,3.53256,2.55309,3.5232,2.56316,3.52785Z"/><path d="M1.65559,2.69267a.021.021,0,0,1,.04018-.00149.56578.56578,0,0,0,.13566.23387,2.58856,2.58856,0,0,0,.20649.17622c.15124.12164.30392.24169.46023.35675.0063.00464-.00118.01486-.00785.01116a4.02482,4.02482,0,0,1-.55863-.37261C1.81576,3.00411,1.626,2.864,1.65559,2.69267Z"/><path d="M1.71213,2.64068A.31766.31766,0,0,1,1.83688,2.523c.02793-.01506.06222.02073.03719.04527a.32058.32058,0,0,1-.15051.08619A.00986.00986,0,0,1,1.71213,2.64068Z"/><path d="M3.01771,3.08529c.04842-.043.11637-.03521.17366-.06147a.32573.32573,0,0,0,.15738-.15942c.00444-.00961.01753-.00333.01635.006a.30062.30062,0,0,1-.3317.24917C3.01792,3.11843,3.00306,3.09827,3.01771,3.08529Z"/><path d="M2.32262,1.882c.00034-.01263.01736-.02411.02743-.01257a2.38574,2.38574,0,0,1,.1447.2042c.07078.1012.20225.14208.2913.22609a.00421.00421,0,0,1-.00375.00715A.78922.78922,0,0,1,2.594,2.23056a.28048.28048,0,0,1-.11728-.08394c-.01535-.02478-.0153-.059-.0308-.08428a.70829.70829,0,0,0-.07957-.0812A.1402.1402,0,0,1,2.32262,1.882Z"/><path d="M1.84646,2.07669a.20734.20734,0,0,0,.27108-.05775.20666.20666,0,0,0-.08787-.23112c-.00425-.00335.00074-.00946.00523-.00743a.20485.20485,0,0,1,.12429.28951c-.06.09895-.26219.13169-.32832.02357C1.8251,2.084,1.83619,2.07016,1.84646,2.07669Z"/><path d="M1.9424,1.573a.69.69,0,0,0,.08628-.00079A.548.548,0,0,1,1.959,1.33191.82627.82627,0,0,0,1.8744.9774c-.00414-.00531.004-.01091.00868-.00714.174.14068.0861.42027.1911.59825.03362-.00307.06723-.00665.10082-.00863.06832-.004.09887-.01114.13824.04443.03662.05169.13807.19381.02513.22675a.01612.01612,0,0,1-.01874-.0226.1312.1312,0,0,0-.01632-.13521c-.03942-.05776-.07873-.05151-.13976-.05115a.625.625,0,0,1-.223-.02862C1.93062,1.58988,1.92942,1.57215,1.9424,1.573Z"/><path d="M2.678,2.47928c.04133-.00251.07989.02152.12226.02111.03352-.00032.0749-.01312.10188.011a.01941.01941,0,0,1,.004.023c-.023.03348-.06871.02826-.1058.01982l.00945.00828c.03712.03311.07988.06274.11522.09675a.39314.39314,0,0,1,.06627.17678c.00189.00743-.00656.017-.01417.01175-.0535-.03655-.06183-.09032-.08857-.14513-.03583-.07346-.12672-.11487-.18392-.17607a.09369.09369,0,0,1-.03639-.029A.01211.01211,0,0,1,2.678,2.47928Z"/><path d="M1.97074,2.31679a1.20739,1.20739,0,0,1,.32528.04992,1.30436,1.30436,0,0,1,.32594.10444.00557.00557,0,0,1-.00234.01044A1.198,1.198,0,0,1,2.31481,2.431a1.37118,1.37118,0,0,0-.34261-.0748A.01971.01971,0,0,1,1.97074,2.31679Z"/><path d="M1.73158,2.05885c.04485.008.07987.05355.10777.08623a.86421.86421,0,0,1,.10534.1247.01.01,0,0,1-.01053.0148.27124.27124,0,0,1-.11929-.07975.32654.32654,0,0,1-.04374-.05275c-.01677-.02693-.02184-.05591-.04852-.07616C1.71419,2.06954,1.72265,2.05725,1.73158,2.05885Z"/><path d="M1.45972,1.9c.00709-.02732.05435-.02613.05173.00474a.29655.29655,0,0,0,.046.20573,1.22213,1.22213,0,0,0,.12154.154l.11022.12464a.28758.28758,0,0,0,.15708.08672,3.17321,3.17321,0,0,0,.36132.073.50564.50564,0,0,1,.27591.10076.00871.00871,0,0,1-.00776.01477c-.13272-.02769-.265-.05666-.39853-.08238-.07124-.01371-.1421-.02861-.21237-.04673A.56871.56871,0,0,1,1.79842,2.481c-.04253-.02779-.0632-.08248-.09431-.12081-.04511-.05558-.10213-.09957-.14828-.15416A.37164.37164,0,0,1,1.45972,1.9Z"/><path d="M2.61617,2.69633a.223.223,0,0,1,.05748.0464.50616.50616,0,0,1,.05018.05675c.00944.01281-.00786.03089-.02126.02288A.22615.22615,0,0,1,2.60085,2.709.01094.01094,0,0,1,2.61617,2.69633Z"/><path d="M2.83581,2.72866a.00667.00667,0,0,1,.011-.0034.74235.74235,0,0,1,.06572.10049.28.28,0,0,1,.04235.1079c.00254.01672-.02141.02107-.02947.009C2.88773,2.886,2.8172,2.8019,2.83581,2.72866Z"/><path d="M2.76287,2.77971a.01089.01089,0,0,1,.01789-.00556.6472.6472,0,0,1,.06092.0727.23867.23867,0,0,1,.0445.085.0137.0137,0,0,1-.02465.01111C2.8264,2.89692,2.75226,2.84626,2.76287,2.77971Z"/><path d="M1.91975,1.945a.01783.01783,0,0,1,.0161-.01339.08434.08434,0,0,0,.02885-.01094A.01437.01437,0,0,1,1.986,1.9358a.03768.03768,0,0,1-.02.02765.04087.04087,0,0,1-.03746.00049A.01731.01731,0,0,1,1.91975,1.945Z"/><path d="M1.28151,1.54349a.17582.17582,0,0,1,.01-.0348A.16328.16328,0,0,1,1.30507,1.475c.00363-.00553.01362-.00636.01543.00144a.10793.10793,0,0,1-.01585.07547A.01248.01248,0,0,1,1.28151,1.54349Z"/><path d="M.98581,1.90285c.03936-.02853.08537-.04814.12316-.07877.08-.06482.04528-.12569.04573-.21028a.13633.13633,0,0,1,.08418-.1358c.008-.00335.01771.00774.01255.01512a.1957.1957,0,0,0-.0435.11871c.00085.03692.015.07272.013.11A.22783.22783,0,0,1,1.145,1.868c-.0539.05159-.12832.07589-.17538.1356a.30617.30617,0,0,0-.04384.25924c.005.02193-.026.03937-.03807.01716A.29509.29509,0,0,1,.98581,1.90285Z"/><path d="M.99358,2.32415c.05947-.07515-.006-.13907-.00887-.21453a.1513.1513,0,0,1,.054-.11965c.04146-.03862.09607-.0583.1376-.09644a.25838.25838,0,0,0,.07618-.21482l.0035-.00107a.21211.21211,0,0,1-.0724.28965.63907.63907,0,0,0-.10874.07364.18155.18155,0,0,0-.035.15657.14538.14538,0,0,1-.032.13987A.00972.00972,0,0,1,.99358,2.32415Z"/><path d="M1.29208,1.6766a.1926.1926,0,0,0,.07138.01676.0083.0083,0,0,1,.00463.01523.07554.07554,0,0,1-.09188-.00946A.014.014,0,0,1,1.29208,1.6766Z"/><path d="M1.31119,2.02344c.0389-.07237-.01294-.202.08657-.23885a.009.009,0,0,1,.01048.01264c-.03744.07783.01065.16254-.02344.24049-.04232.09674-.152.14027-.14787.2606.00049.01431-.023.01934-.02562.00428C1.19046,2.18045,1.2576,2.12312,1.31119,2.02344Z"/><path d="M1.07431,2.15521c.03881-.09289.14466-.13429.18563-.22458.00456-.01006.02294-.00677.0219.00493a.24725.24725,0,0,1-.07328.1487.25124.25124,0,0,0-.056.32006.00838.00838,0,0,1-.01424.0088A.29068.29068,0,0,1,1.07431,2.15521Z"/><path d="M.6911,1.67311c.15662-.05335.29456.147.43555.02224a.00393.00393,0,0,1,.00634.00447.15723.15723,0,0,1-.15391.09431C.87666,1.78767.80024,1.69218.696,1.70242.67856,1.70414.67548,1.67843.6911,1.67311Z"/><path d="M.78454,1.76143c.038.016.07353.03549.11006.0544a.25915.25915,0,0,0,.12073.02222.01952.01952,0,0,1,.00634.038.14413.14413,0,0,1-.12909.00267.461.461,0,0,1-.113-.11031A.00435.00435,0,0,1,.78454,1.76143Z"/><path d="M1.35281,2.16784c.02374-.0251.06887-.04164.072-.08032.00054-.00655.01058-.00972.01241-.00208a.10712.10712,0,0,1-.01407.08036c-.01756.02957-.04807.05108-.05951.08424a.0213.0213,0,0,1-.04186-.00384A.09689.09689,0,0,1,1.35281,2.16784Z"/><path d="M.907,1.60261a.2326.2326,0,0,0,.098.01856.46753.46753,0,0,1,.10948-.009.00952.00952,0,0,1,.00487.01565c-.05137.05078-.18322.06061-.22005-.01448C.897,1.60857.90056,1.60031.907,1.60261Z"/><path d="M1.36632,1.44835a.18453.18453,0,0,1,.04008-.0422c.00563-.00384.012.00306.00935.00868A.18616.18616,0,0,1,1.38,1.461C1.37149,1.4698,1.3592,1.45774,1.36632,1.44835Z"/><path d="M1.43926,1.48076c.002-.03693.04376-.08587.08444-.07081.00814.003.00781.01391.00336.01943a.22254.22254,0,0,1-.036.02594.2823.2823,0,0,0-.03148.033A.01186.01186,0,0,1,1.43926,1.48076Z"/><path d="M1.45024,1.35389A.98313.98313,0,0,1,1.84385.98441c.00664-.00325.01482.00473.00883.01075-.0626.063-.13409.11687-.1983.17836-.06449.06176-.11912.13423-.18577.19331C1.45956,1.37485,1.44378,1.36589,1.45024,1.35389Z"/><path d="M1.66156,1.3738c.02138-.02688.04892-.04781.07234-.07292a.24377.24377,0,0,0,.02841-.03779.9623.9623,0,0,1,.02624-.13322.00841.00841,0,0,1,.01653.00151c.015.1508.01036.30734.01878.45912.00089.01613-.02021.0172-.02588.00431a.593.593,0,0,1-.04157-.26369.25385.25385,0,0,1-.07838.06272A.01315.01315,0,0,1,1.66156,1.3738Z"/><path d="M2.4409,2.247a1.114,1.114,0,0,0,.11048.07393c.01625.01115.06925.0398.04871.06649-.02212.02874-.07589-.01106-.09551-.02525a.44684.44684,0,0,1-.086-.09683C2.40818,2.25194,2.429,2.23647,2.4409,2.247Z"/><path d="M1.80216,2.761a.06562.06562,0,0,1,.045.005c.007.0049.01056.01721.00082.02206a.06625.06625,0,0,1-.04819-.00089A.01329.01329,0,0,1,1.80216,2.761Z"/><path d="M3.67069,1.87714a.09191.09191,0,0,1,.04893.03678c.00875.01245-.007.02714-.01948.021a.09117.09117,0,0,1-.04309-.04307C3.65361,1.88368,3.66284,1.8752,3.67069,1.87714Z"/><path d="M1.45294,1.77827a.38779.38779,0,0,1,.19878-.049.22136.22136,0,0,1,.14744.08225.00864.00864,0,0,1-.01176.01265c-.09958-.07338-.226.00426-.33349-.01976A.01362.01362,0,0,1,1.45294,1.77827Z"/><path d="M1.7,1.57169a.0049.0049,0,0,1,.009.00083c.01141.036.04839.05045.08028.06483a.29933.29933,0,0,0,.11568.03645.00434.00434,0,0,1,.00141.00845.15805.15805,0,0,1-.08217.01222.27381.27381,0,0,1-.07708-.02781C1.71261,1.64847,1.68091,1.61259,1.7,1.57169Z"/></g></svg>