<?xml version="1.0" ?><svg id="Layer_1" style="enable-background:new 0 0 226.589 342.896;" version="1.1" viewBox="0 0 226.589 342.896" xml:space="preserve" xmlns="http://www.w3.org/2000/svg" xmlns:xlink="http://www.w3.org/1999/xlink"><g><path d="M88.9,273.336l5.1-6.988v-68.535c-0.134,0.158-0.27,0.32-0.396,0.471l-0.511,0.606c-1.632,1.926-3.997,3.021-6.505,3.021   c-0.197,0-0.393-0.014-0.588-0.027V320h8v-28.5c-0.871-0.361-1.703-0.828-2.482-1.395C86.173,286.203,84.998,278.682,88.9,273.336z   "/><path d="M94,171.434V66.311c-4.001-1.031-6.915-1.639-8-1.855v116.48c0.374-0.443,0.759-0.9,1.161-1.379   C89.142,177.209,91.465,174.449,94,171.434z"/><path d="M86.586,47.408c0.51,0,1.023,0.047,1.529,0.139c0.472,0.086,2.614,0.494,5.885,1.258V0h-8v47.435   C86.194,47.422,86.389,47.408,86.586,47.408z"/><rect height="20" width="180" y="322.896"/><ellipse cx="118.628" cy="105.636" rx="20.995" ry="20.995" transform="matrix(0.9859 -0.1675 0.1675 0.9859 -16.0196 21.3652)"/><path d="M226.224,185.225c-0.994-3.564-3.909-6.313-7.526-7.092l-19.781-4.26c-5.001-5.328-12.872-13.205-22.656-21.295   c-8.6-7.111,10.523-42.395-18.706-38.072c1.917-4.59,2.877-9.098,2.876-13.49c0-0.002,0-0.002,0-0.002   c0.01-10.563-5.52-19.25-12.639-25.699c-10.757-9.754-25.592-15.895-37.865-19.969c-12.268-4.025-21.977-5.795-22.168-5.83   c-3.533-0.645-6.918,1.697-7.561,5.23c-0.644,3.531,1.699,6.916,5.231,7.561v-0.002c0,0,0.199,0.035,0.655,0.127   c3.421,0.666,19.731,4.172,34.62,11.018c7.442,3.397,14.484,7.652,19.316,12.402c4.871,4.82,7.394,9.654,7.41,15.162l0,0   c-0.002,4.74-1.92,10.719-7.801,18.266c-4.627,5.922-12.493,15.525-20.947,25.725c-4.423,5.336-9.005,10.832-13.375,16.057   c-6.367,7.609-12.287,14.65-16.615,19.785c-4.328,5.137-7.055,8.357-7.061,8.365c-2.32,2.74-1.978,6.842,0.763,9.16   c1.221,1.035,2.712,1.539,4.194,1.539c1.847,0,3.681-0.781,4.967-2.301c0.023-0.031,19.754-23.342,37.118-44.287   c1.39-1.676,2.763-3.336,4.11-4.969c5.351,3.465,12.03,8.971,14.198,15.869c3.122,9.93-5.614,10.617-3.872,25.555   c0.436,3.736,1.247,6.867,2.277,9.549l-19.339,26.5l-35.533,48.688c-3.255,4.463-2.278,10.719,2.182,13.973   c1.778,1.299,3.843,1.924,5.888,1.924c3.086,0,6.128-1.422,8.086-4.105l36.1-49.465l29.926-41.008   c4.026-2.842,9.012-4.723,14.896-3.938l3.268,0.703c0.207,0.061,0.408,0.104,0.616,0.17c1.264,0.404,2.408,0.629,3.446,0.705   l0.975,0.209l-24.871,23.451c-4.019,3.789-4.206,10.117-0.416,14.137c1.967,2.086,4.619,3.139,7.276,3.139   c2.461,0,4.927-0.902,6.859-2.723l38.707-36.5C226.143,192.646,227.219,188.789,226.224,185.225z"/></g></svg>