<?xml version="1.0" ?><svg id="Layer_1" style="enable-background:new 0 0 364.672 262.106;" version="1.1" viewBox="0 0 364.672 262.106" xml:space="preserve" xmlns="http://www.w3.org/2000/svg" xmlns:xlink="http://www.w3.org/1999/xlink"><g><path d="M173.816,155.896l0.851-4.707c3.052,1.632,9.329,4.758,16.915,7.272H164.05v4h37.698l-0.565-1.42   c3.626,0.733,7.35,1.192,11.016,1.192c1.54,0,3.096-0.007,4.657-0.014c13.654-0.062,27.772-0.123,32.366,4.45   c0.662,0.659,1.077,1.406,1.294,2.241c-0.449,2.547-1.739,4.938-3.309,7.814c-3.591,6.575-8.508,15.579-8.508,34.806   c0,16.614-1.643,25.497-5.149,30.102v-61.616h5.417v-8.833h7.333v-5H117.873v5h7.334v8.833h5.416v80.295h6.5v-12.17h9.457v-55.444   h81.333v52.791c-0.936,0.279-1.934,0.47-3,0.587v-50.378H149.58v64.667h75.333v-7.302c1.062-0.117,2.064-0.294,3-0.545v7.795h5.636   v-10.825c5.279-4.895,7.149-15.123,7.149-33.753c0-19.145,4.779-28.09,8.268-34.622c2.085-3.903,3.732-6.986,3.732-10.878   c0-0.494-0.046-0.971-0.136-1.43c0.08-0.578,0.136-1.166,0.136-1.779c0-1.878-0.677-3.504-2.011-4.833   c-5.13-5.108-19.072-5.046-33.842-4.984c-1.558,0.007-3.111,0.014-4.647,0.014c-4.379,0-8.89-0.682-13.217-1.711l-17.253-43.36   l8.284-45.8l-6.396-1.157l-16.196,89.547L173.816,155.896z M175.126,148.654c3.703,1.91,11.229,5.485,19.984,7.945l0.378,0.951   c-9.38-2.732-17.382-6.787-20.445-8.438L175.126,148.654z M187.997,218.068c1.277,0.095,2.483,0.43,3.582,0.959l-3.582,6.204   V218.068z M186.497,225.231l-3.582-6.204c1.098-0.529,2.305-0.865,3.582-0.959V225.231z M184.448,228.78l-6.204,3.582   c-0.529-1.098-0.865-2.305-0.96-3.582H184.448z M177.285,227.28c0.095-1.277,0.43-2.483,0.96-3.582l6.204,3.582H177.285z    M185.198,230.079l-3.586,6.211c-1.03-0.704-1.921-1.595-2.625-2.625L185.198,230.079z M186.497,230.829v7.163   c-1.277-0.095-2.483-0.43-3.582-0.96L186.497,230.829z M187.997,230.829l3.582,6.204c-1.098,0.53-2.305,0.865-3.582,0.96V230.829z    M192.881,236.289l-3.586-6.211l6.211,3.586C194.802,234.694,193.911,235.585,192.881,236.289z M196.249,232.361l-6.204-3.582   h7.163C197.114,230.056,196.779,231.263,196.249,232.361z M190.046,227.28l6.204-3.582c0.529,1.098,0.864,2.305,0.959,3.582   H190.046z M195.506,222.395l-6.211,3.586l3.586-6.211C193.911,220.474,194.802,221.365,195.506,222.395z M181.612,219.77   l3.586,6.211l-6.211-3.586C179.691,221.365,180.582,220.474,181.612,219.77z M224.913,251.058v-2.994   c1.062-0.114,2.064-0.287,3-0.533v2.892C226.976,250.724,225.977,250.931,224.913,251.058z M233.55,246.325v-1.76   c0.843-0.765,1.597-1.665,2.272-2.708C235.175,243.652,234.419,245.125,233.55,246.325z M212.199,159.22   c1.539,0,3.096-0.007,4.656-0.014c13.705-0.057,27.88-0.121,32.422,4.401c0.392,0.39,0.68,0.816,0.909,1.265   c-5.485-4.764-19.014-4.719-33.339-4.655c-1.557,0.007-3.111,0.014-4.647,0.014c-3.939,0-7.988-0.562-11.911-1.441l-0.398-1.001   C203.919,158.662,208.096,159.22,212.199,159.22z M194.158,154.205c-8.37-2.524-15.469-5.966-18.657-7.621l4.883-26.997   L194.158,154.205z"/><path d="M130.3,161.106v1.354h27v-4h-24.374C132.216,159.499,131.322,160.392,130.3,161.106z"/><path d="M55.487,194.698c2.029,0.054,3.81,0.055,5.352-0.127h31.103l4.398,54.898c0.524,6.542,5.995,11.503,12.446,11.502   c0.334,0,0.672-0.013,1.012-0.041c6.882-0.551,12.013-6.577,11.462-13.458l-5.319-66.4c-0.52-6.496-5.943-11.502-12.46-11.502   H80.798l-0.376,0.094c-0.822,0.206-1.666,0.31-2.51,0.31c-0.976,0-1.928-0.143-2.84-0.404H68.32   c0.086-1.741,0.223-3.489,0.401-5.239l-18.355-33.734c-2.714-4.989-0.863-11.256,4.125-13.97c1.507-0.821,3.206-1.254,4.914-1.254   c3.78,0,7.25,2.061,9.056,5.378l9.63,17.696l7.533,8.672l27.615-6.934c0.821-0.206,1.665-0.31,2.509-0.31   c0.967,0,1.928,0.136,2.854,0.403l8.667,2.5c2.644,0.763,4.832,2.509,6.162,4.917c0.605,1.096,0.989,2.271,1.167,3.474   c2.902-0.009,5.697-1.594,7.108-4.357c2.009-3.935,0.448-8.754-3.487-10.763l-9.792-5c-1.889-0.964-4.082-1.138-6.098-0.488   l-23.344,7.542l-14.506-16.699c-0.359-0.08-0.718-0.164-1.076-0.26c-6.978-1.874-12.461-6.564-15.56-12.518   c-0.911,0.035-1.831-0.049-2.743-0.294c-2.288-0.614-4.154-2.067-5.451-3.998c-7.153,1.053-14.864,6.108-18.927,16.571   c-7.59,19.892-9.567,32.955-7.854,55.254C35.364,192.372,46.326,194.456,55.487,194.698z"/><path d="M1.622,145.504c-1.292,0.485-1.947,1.927-1.461,3.219l20.857,55.547c0.057,0.153,0.132,0.293,0.214,0.427   c1.956,4.29,12.312,7.726,25.661,8.605v1.77h4.25v21.054l-29.25,9v3.684c-1.874,0.924-3.167,2.849-3.167,5.08   c0,3.13,2.537,5.667,5.667,5.667c3.13,0,5.667-2.537,5.667-5.667c0-2.226-1.287-4.147-3.154-5.074l24.238-7.458v7.452   c-1.874,0.924-3.167,2.849-3.167,5.08c0,3.13,2.537,5.667,5.667,5.667c3.13,0,5.667-2.537,5.667-5.667   c0-2.231-1.292-4.155-3.167-5.079v-7.452l24.238,7.458c-1.867,0.927-3.154,2.847-3.154,5.074c0,3.13,2.537,5.667,5.667,5.667   c3.13,0,5.667-2.537,5.667-5.667c0-2.231-1.292-4.155-3.167-5.079v-3.684l-29.25-9v-21.054h4.25v-1.77   c14.848-0.979,26-5.119,26-10.08c0-4.807-46.77-5.552-61.266-2.234l-11.211-29.856c4.78,7.458,9.706,11.687,13.024,10.442   c5.326-2-17.699-63.319-23.025-61.32c-4.341,1.63-4.586,12.128-1.086,25.124C2.432,145.324,2.021,145.354,1.622,145.504z"/><path d="M78.261,99.52c-1.176,4.379-4.349,7.616-8.025,8.717c2.864,5.082,7.685,9.055,13.764,10.687   c12.002,3.223,24.343-3.893,27.565-15.895c3.223-12.002-3.892-24.342-15.895-27.565c-9.766-2.622-19.757,1.602-24.876,9.734   c0.164,0.035,0.328,0.058,0.492,0.102C76.837,86.79,79.966,93.17,78.261,99.52z M104.062,94.03c1.588,0,2.875,1.287,2.875,2.875   s-1.287,2.875-2.875,2.875s-2.875-1.287-2.875-2.875S102.474,94.03,104.062,94.03z M91.187,94.03c1.588,0,2.875,1.287,2.875,2.875   s-1.287,2.875-2.875,2.875s-2.875-1.287-2.875-2.875S89.599,94.03,91.187,94.03z"/><path d="M69.269,84.996c0.977-2.252,2.306-4.359,3.994-6.235c0.038-0.042,0.07-0.089,0.108-0.131   c4.133-4.525,9.781-7.17,15.903-7.448l-0.09-1.998l0.091,1.998c9.649-0.451,18.194,5.181,21.952,13.496   c3.233,5.527,4.346,12.29,2.558,18.947c-0.175,0.651-0.381,1.285-0.603,1.909c3.002-0.82,5.638-3.496,6.621-7.155   c1.137-4.233-0.297-8.441-3.263-10.442c-2.9-12.367-14.281-21.33-27.446-20.752v0c-11.596,0.526-21.169,8.345-24.481,18.82   C66.077,85.299,67.663,84.932,69.269,84.996z"/><path d="M65.696,106.112c4.334,1.164,8.965-2.055,10.343-7.188c1.379-5.134-1.017-10.239-5.351-11.403   c-4.334-1.164-8.965,2.055-10.343,7.189C58.967,99.843,61.363,104.948,65.696,106.112z M69.16,91.769   c2.2,0.591,3.44,3.097,2.768,5.597s-2.999,4.048-5.2,3.457c-2.2-0.591-3.44-3.097-2.768-5.597   C64.632,92.726,66.959,91.178,69.16,91.769z"/><path d="M126.63,144.989l-8.667-2.5c-1.356-0.392-2.795-0.416-4.165-0.073l-31.82,7.99l-15.537-28.555   c-2.113-3.881-6.974-5.315-10.851-3.204c-3.881,2.112-5.315,6.97-3.204,10.851l18.5,34c1.425,2.618,4.147,4.177,7.026,4.177   c0.646,0,1.301-0.079,1.949-0.241l35.74-8.975l6.595,1.902c4.239,1.226,8.68-1.224,9.903-5.469   C133.325,150.648,130.876,146.214,126.63,144.989z"/><path d="M332.939,157.737c-10.122,0.793-16.62,5.557-20.331,9.517l-2.808,22.534l9.967,60.96c0.246,1.508,0.179,2.995-0.142,4.4   c0.902-1.25,1.519-2.732,1.724-4.37L332.939,157.737z"/><path d="M304.029,166.881c-4.029-4.128-10.852-9.044-20.924-9.884c0.532,4.219,1.132,7.672,1.789,10.609l14.15,86.531   c0.762,4.66,4.793,7.97,9.365,7.969c0.51,0,1.025-0.04,1.543-0.125c5.178-0.848,8.689-5.732,7.844-10.91L304.029,166.881z"/><path d="M314.603,69.018c0.607-0.086,1.214-0.187,1.823-0.328c3.383-0.788,6.372-2.364,8.844-4.473   c-0.451-2.321-0.679-4.285-0.793-5.638c0.881-0.38,1.623-0.859,2.209-1.432c0.192,3.56,1.904,23.165,16.441,30.771   c16.018,8.381,25.188-5.504,20.171-3.563c-5.017,1.941-12.371,1.089-18.265-17.878c-5.141-16.543-14.275-20.637-22.499-20.832   c-0.398-0.839-0.759-1.617-1.07-2.295c0.147-0.002,0.291-0.013,0.439-0.013c3.915,0,7.448,0.793,10.599,2.349   c-0.091-0.734-0.217-1.471-0.389-2.208c-2.631-11.293-13.918-18.314-25.211-15.685c-11.291,2.629-18.314,13.916-15.686,25.209   c0.762,3.271,2.267,6.169,4.272,8.593C300.031,67.088,307.207,70.071,314.603,69.018z"/><path d="M221.605,124.102c-0.365,1.31-0.66,2.853-0.665,4.44c0,1.922,0.451,3.966,1.859,5.624c0.575,0.683,0.785,1.388,0.79,2.199   c0.049,2.271-2.063,5.232-3.16,6.473c-0.358,0.421-0.579,0.645-0.582,0.645c-0.389,0.394-0.383,1.027,0.009,1.416   c0.196,0.192,0.45,0.288,0.704,0.288c0.259,0,0.518-0.1,0.713-0.299c0.026-0.099,4.229-4.115,4.317-8.522   c0.006-1.194-0.367-2.448-1.268-3.495c-1.004-1.182-1.38-2.699-1.383-4.328c-0.002-1.478,0.322-2.991,0.702-4.258   c3.708-0.353,7.09-4.432,7.876-9.838c0.798-5.497-1.365-10.442-4.926-11.74l0.211-4.141c3.675-0.93,6.331-5.629,6.096-11.179   c-0.186-4.378-2.123-8.074-4.768-9.745c0.922-1.485,1.753-3.344,1.791-5.276c0.007-1.194-0.367-2.447-1.267-3.493   c-1.006-1.184-1.382-2.702-1.384-4.331c-0.001-0.625,0.069-1.255,0.165-1.874c0.031,0.008,0.06,0.019,0.093,0.026   c12.953,3.019,32.622,6.922,52.11,12.74c0.349,0.104,0.695,0.212,1.043,0.316c0.365,1.059,0.757,2.205,1.168,3.433   c-4.459,4.686-5.496,11.691-2.07,17.085c2.029,3.194,5.237,5.215,8.791,5.909c1.38,5.917,2.242,11.324,1.961,14.897   c-0.777,9.941-6.207,14.17-7.716,23.067c4.024,2.291,13.708,7.061,24.605,7.061c10.896,0,20.579-4.768,24.605-7.06   c-1.511-8.897-6.937-13.126-7.72-23.068c-0.488-6.22,1.099-13.953,2.836-20.209c0.893,0.688,1.76,1.383,2.575,2.091   c7.641,6.653,11.605,13.525,11.629,21.595c0,5.544-1.932,12.139-7.023,20.045c0.349,1.923,0.914,5.265,1.297,8.638   c0.051,0.036,0.098,0.076,0.151,0.11c1.015,0.665,2.155,0.982,3.283,0.982c1.955,0,3.872-0.954,5.023-2.71   c6.213-9.463,9.27-18.508,9.27-27.065c0.024-12.442-6.556-22.797-15.797-30.688c-9.287-7.978-21.438-14.103-34.479-19.159   c-26.043-10.06-55.955-15.749-72.815-19.696c-3.227-0.754-6.454,1.253-7.205,4.479c-0.583,2.496,0.487,4.984,2.492,6.335   c-0.159,0.866-0.267,1.784-0.269,2.719c-0.002,1.922,0.45,3.966,1.857,5.626c0.577,0.682,0.788,1.384,0.792,2.198   c0.031,1.416-0.778,3.1-1.659,4.468c-0.485-0.115-0.984-0.169-1.492-0.147c-4.23,0.179-4.85,4.979-4.591,11.068   c0.219,5.149,1.002,9.559,3.792,10.694l-0.209,4.086c-2.892,0.847-4.119,5.152-4.861,10.253   C218.079,118.442,218.139,123.048,221.605,124.102z"/><polygon points="155.68,114.9 169.817,112.772 158.235,104.392 159.573,108.912 124.833,100.464 124.205,103.049 158.944,111.497     "/><path d="M282.402,23.835c12.971-24.166-1.496-25.282-5.589-23.059c-4.093,2.223-3.643,6.055-3.643,6.055s-2.97-2.465-7.061-0.243   C262.014,8.811,255.069,21.552,282.402,23.835z"/></g></svg>