<?xml version="1.0" ?><svg enable-background="new 0 0 150.9099 230.6233" id="Layer_1" version="1.1" viewBox="0 0 150.9099 230.6233" xml:space="preserve" xmlns="http://www.w3.org/2000/svg" xmlns:xlink="http://www.w3.org/1999/xlink"><g><path d="M29.5735,146.8573l-24.318,70.1342c-1.8091,5.2188,0.9541,10.915,6.1724,12.7246c1.0845,0.376,2.1895,0.5547,3.2764,0.5547   c4.1416,0,8.0146-2.5938,9.4478-6.7266l21.7886-62.8394c-2.898-1.9286-6.3083-4.3811-9.6055-7.1965   C33.6513,151.2165,31.4237,148.9983,29.5735,146.8573z"/><path d="M56.5119,127.1416c-1.5461,0.2565-3.2648,0.392-5.0939,0.392c-3.5051,0-7.5573-0.5031-11.3986-1.6754   c-0.0891,0.8241-0.2922,1.6489-0.6286,2.4514c-1.0162,2.4238,3.9789,8.769,12.5328,15.1404l5.3466-15.4199   C57.0105,127.7405,56.7577,127.4443,56.5119,127.1416z"/><path d="M136.5209,204.9509l0.6262-0.272c0.9561-0.4153,1.8138-0.9625,2.5626-1.6104c9.7395-6.4004,17.6595-17.9709,3.5294-28.3489   c-30.4719-22.3801-21.9961-34.469-31.8259-44.0869c-4.2936-4.2021-8.8026-6.0522-12.9779-6.1362l-19.2692,38.6882   c1.9863,6.416,8.7324,12.6705,17.8455,2.9961c9.4474,9.4907,15.475,18.3721,19.5007,25.6533l-45.1772,19.6162   c-4.3467,1.8877-6.772,6.5674-5.8081,11.207s5.0522,7.9658,9.791,7.9658h65.5527c5.5229,0,10-4.4775,10-10s-4.4771-10-10-10   h-17.4146l8.3179-3.6116C133.2878,206.5005,134.8987,205.8049,136.5209,204.9509z"/><path d="M103.2901,99.2665c2.4836,3.2374,3.171,7.5357,1.9141,11.3566c4.811,5.566,5.7762,19.5282,14.4422,24.8809   c12.9878,8.0222,21.5464-3.1213,17.204-1.7878c-4.3425,1.3336-10.4852,0.1731-14.3094-16.1564   c-3.6876-15.7467-12.3992-18.968-19.8635-19.0013C102.8859,98.7903,103.0991,99.0176,103.2901,99.2665z"/><path d="M88.2849,95.2679c-4.7286-3.7067-10.9662-5.4069-17.2855-4.2029l10.9389,5.4907L88.2849,95.2679z"/><path d="M60.6631,125.9735c-0.4949,0.22-1.0455,0.4141-1.6299,0.5897c2.2308,2.4736,5.0051,4.4004,8.0916,5.6206l4.1672-8.3671   L60.6631,125.9735z"/><path d="M58.4518,149.5974l-0.8325,0.4524c-1.0888-0.6592-2.1926-1.3643-3.2948-2.1016   c-9.649-6.4543-19.1548-15.5176-17.0548-20.5278c0.3214-0.7668,0.4782-1.5602,0.4982-2.3442   c-3.5352-1.3718-6.7359-3.3831-8.9692-6.1794c-1.5339,0.632-2.8271,1.8476-3.5192,3.4982   c-2.625,6.2651-2.5801,16.4448,12.5488,29.3643c4.2239,3.6064,8.6401,6.6063,11.8619,8.6342   c1.4008,0.8817,2.566,1.5751,3.3957,2.0547c0.111-1.5541,0.5155-3.1119,1.2521-4.5908L58.4518,149.5974z"/><path d="M4.4784,30.1624c-4.7486,6.3564-8.563,16.1807,4.1114,28.994c11.7943,11.9236,9.5099,17.7426,6.071,20.7106   c-3.4389,2.968,10.5499,1.6473,10.6642-13.6179C25.411,54.7894,9.386,45.3508,9.0674,37.5474   C7.1441,35.4458,5.5725,32.965,4.4784,30.1624z"/><ellipse cx="26.6408" cy="21.5058" rx="21.5" ry="21.5" transform="matrix(0.9636 -0.2674 0.2674 0.9636 -4.7806 7.9071)"/><path d="M55.5558,46.5845c1.752,0,3.4482,0.5181,4.9053,1.4985c1.9502,1.3115,3.2734,3.3042,3.7246,5.6108   c0.4521,2.3066-0.0215,4.6514-1.334,6.6021L49.4376,80.2422l15.3521,7.7059c1.0288-4.5167,2.4044-9.3782,4.2894-14.6039   C83.333,79.0096,85.752,66.784,83.2627,60.1947c0.5605-0.4614,0.8008-1.2378,0.5332-1.9561   c-0.3369-0.9058-1.3438-1.3672-2.25-1.0303c-0.207,0.0767-0.3877,0.1924-0.5449,0.3306c-2.0664-1.5024-5.4453-3.3804-8.8242-5.1235   c-2.6123-2.6479-6.1123-6.041-6.4688-15.0132c-8.4375-5.333-19.8027-3.2686-24.7207,9.8281   c-1.9235,5.1208-1.0585,9.3741-0.4593,14.7227l7.7202-11.4794C49.8859,48.0386,52.6183,46.5845,55.5558,46.5845z"/><path d="M102.4824,111.2118c1.7041-3.4204,1.3086-7.5132-1.0176-10.5454c-2.3262-3.0317-6.1816-4.4717-9.9219-3.7129   l-6.8574,1.3914c2.7669,2.5974,3.636,6.8036,1.8488,10.3641c-1.5029,2.9937-4.5186,4.8535-7.8701,4.8535   c-1.3584,0-2.7227-0.3237-3.9434-0.9365L34.838,92.6064c-1.1374,2.5034-2.4606,5.1673-4.0294,8.0365   c-12.4639,22.7954,20.0508,27.4756,29.1357,23.1294l15.5059-3.146l-19.0537,38.2563c-2.4619,4.9434-0.4502,10.9468,4.4932,13.4092   c1.4316,0.7134,2.9521,1.0513,4.4502,1.0508c3.6738,0,7.21-2.0322,8.959-5.5439L102.4824,111.2118z"/><path d="M75.7531,110.5703c0.9355,0.4697,1.9307,0.6924,2.9111,0.6924c2.3799,0,4.6738-1.313,5.8145-3.5854   c1.6104-3.2085,0.3145-7.1147-2.8936-8.7251L46.0714,81.126l14.8721-22.1138c2.0039-2.979,1.2129-7.0176-1.7666-9.021   c-2.9766-2.0024-7.0166-1.2134-9.0205,1.7661L31.1652,79.9961c-1.042,1.5493-1.3672,3.4722-0.8936,5.2783   c0.4746,1.8057,1.7021,3.3208,3.3711,4.1582L75.7531,110.5703z"/></g></svg>