<?xml version="1.0" ?><svg id="Layer_1" style="enable-background:new 0 0 252.937 298.327;" version="1.1" viewBox="0 0 252.937 298.327" xml:space="preserve" xmlns="http://www.w3.org/2000/svg" xmlns:xlink="http://www.w3.org/1999/xlink"><g><path d="M31.604,36.177c0-7.613-5.384-13.965-12.552-15.464V0h-6.5v20.713C5.384,22.212,0,28.564,0,36.177   c0,8.727,7.075,15.802,15.802,15.802S31.604,44.904,31.604,36.177z M15.802,46.103c-5.482,0-9.926-4.444-9.926-9.926   s4.444-9.926,9.926-9.926s9.926,4.444,9.926,9.926S21.284,46.103,15.802,46.103z"/><path d="M221.968,169.848l-5.341-8.057l-8.581,5.689c0.379,0.474,0.714,0.989,0.993,1.543c0.425,0.843,0.701,1.734,0.839,2.641   l5.484-3.636l2.855,4.306l-18.336,12.156l-2.264-3.415l-6.731-2.219l-0.097,0.064l5.341,8.057l-8.682,5.756l22.287,33.617   l43.201-28.641l-22.287-33.617L221.968,169.848z"/><path d="M132.511,286.559c-0.52,5.775,3.74,10.879,9.516,11.399c0.321,0.028,0.638,0.043,0.954,0.043   c5.374,0,9.954-4.104,10.445-9.56l5.71-63.414l-21.511,4.739L132.511,286.559z"/><path d="M173.476,229.148l2.341,41.91c0.297,5.324,4.708,9.442,9.976,9.442c0.188,0,0.376-0.005,0.566-0.016   c5.514-0.308,9.735-5.028,9.427-10.542l-2.583-46.25c-0.117-2.093-0.889-4.078-2.179-5.689l-24.453,5.387L173.476,229.148z"/><path d="M160.144,164.477l-9.147-35.159c-1.222-4.695,1.604-9.51,6.3-10.732c0.435-0.113,0.878-0.192,1.319-0.238   c4.353-0.449,8.312,2.301,9.413,6.539l5.194,19.96c11.876,3.232,13.734-8.713,11.132-14.646c-0.645-1.471-5.221-4.329-9.956-6.977   c-1.585-1.958-3.128-4.561-3.798-8.748l33.579-19.077c1.595-0.906,2.733-2.445,3.133-4.236l8.88-39.802   c6.618-1.885,11.469-7.963,11.469-15.186c0-7.613-5.384-13.965-12.552-15.464V0h-6.5v20.713   c-7.168,1.499-12.552,7.851-12.552,15.464c0,5.57,2.889,10.457,7.243,13.271l-8.048,36.074l-4.445,2.526   c-3.025,9.671-12.066,16.708-22.72,16.708c-1.905,0-3.756-0.231-5.533-0.656l-7.208,4.095c-4.044,1.627-7.695,5.179-10.094,11.033   c-5.217,12.724,7.353,20.468-11.764,53.086c-0.055,0.094-0.101,0.185-0.154,0.278c-0.846,1.478-1.498,2.898-1.97,4.26   c-0.592,1.374-1.541,3.727-2.512,6.753l2.287,2.613c3.74,4.275,3.306,10.794-0.969,14.534c-1.358,1.189-2.996,1.985-4.741,2.338   c-0.109,8.469,1.895,17.394,8.543,24.411l57.5-12.667c0,0-23.83-18.687-27.113-33.564c0.19-2.004,0.439-4.129,0.759-6.36   c0.201-1.401,0.432-2.844,0.695-4.327C163.006,169.622,160.889,167.351,160.144,164.477z M201.934,36.177   c0-5.482,4.444-9.926,9.926-9.926s9.926,4.444,9.926,9.926c0,3.78-2.113,7.065-5.222,8.741c-0.74-2-2.443-3.596-4.679-4.095   c-2.658-0.593-5.292,0.533-6.753,2.636C203.169,41.646,201.934,39.059,201.934,36.177z"/><path d="M201.844,179.452c2.47-0.255,4.682-1.921,5.51-4.432c1.124-3.41-0.728-7.085-4.138-8.209l-29.157-9.613l-8.256-31.732   c-0.903-3.474-4.441-5.555-7.927-4.654c-3.473,0.904-5.557,4.453-4.653,7.927l9.148,35.16c0.555,2.137,2.158,3.845,4.255,4.537   l32.521,10.722C200.044,179.454,200.961,179.543,201.844,179.452z"/><path d="M144.554,77.392c-7.505,1.794-15.912,6.937-15.156,23.985c0.744,16.755-4.855,19.536-9.396,19.429   c-4.541-0.107,6.717,8.301,17.045-2.941c7.957-8.66,1.918-27.114,7.633-32.623c-0.254-1.392-0.394-2.823-0.394-4.287   C144.287,79.744,144.379,78.555,144.554,77.392z"/><path d="M189.586,80.956c0-11.874-9.626-21.5-21.5-21.5s-21.5,9.626-21.5,21.5c0,11.874,9.626,21.5,21.5,21.5   S189.586,92.83,189.586,80.956z M180.988,92.917c-1.749,3.029-5.041,4.403-7.352,3.068c-2.312-1.335-2.768-4.872-1.019-7.901   s5.041-4.403,7.352-3.068C182.28,86.35,182.737,89.887,180.988,92.917z"/><circle cx="55.445" cy="81.459" r="22.5"/><path d="M73.126,174.362l-16.167-44.333c-1.945-5.335,0.813-11.259,6.147-13.205c1.14-0.416,2.328-0.626,3.531-0.626   c4.31,0,8.198,2.723,9.675,6.774l4.869,13.352c0.173-2.877,0.352-5.618,0.49-8.153c0.605-4.231,0.044-8.635-1.435-12.415   l23.483-10.447c2.258-1.005,3.926-2.997,4.517-5.396l12.199-49.541c5.26-2.565,8.893-7.949,8.893-14.195   c0-7.613-5.384-13.965-12.552-15.464V0h-6.5v20.713c-7.168,1.499-12.552,7.851-12.552,15.464c0,5.278,2.598,9.94,6.574,12.81   L93.638,92.283l-32.087,14.273c-0.072,0.032-0.138,0.072-0.208,0.106c-6.835,2.317-13.502,8.634-15.644,19.623   c-3.95,20.921-3.584,34.128,2.049,55.772c3.591,10.463,9.836,13.916,16.3,14.634l7.411,31.498l-3.583,56.853   c-0.435,6.89,4.799,12.827,11.688,13.262c0.268,0.017,0.534,0.024,0.799,0.024c6.544,0,12.045-5.092,12.463-11.714l3.7-58.7   c0.077-1.225-0.026-2.454-0.308-3.649l-9.483-40.304l-8.218-3.76C76.029,179.061,74.064,176.934,73.126,174.362z M103.6,36.177   c0-5.482,4.444-9.926,9.926-9.926c5.482,0,9.926,4.444,9.926,9.926c0,3.221-1.541,6.075-3.918,7.888   c-1.062-1.729-2.776-3.059-4.902-3.583c-3.102-0.765-6.22,0.401-8.112,2.723C104.716,41.409,103.6,38.923,103.6,36.177z"/><path d="M129.406,187.732l-5.25-6c-0.745-0.852-1.663-1.536-2.692-2.007L89.172,164.95l-15.021-41.191   c-1.513-4.15-6.101-6.291-10.257-4.775c-4.15,1.514-6.288,6.105-4.774,10.256l16.167,44.333c0.733,2.011,2.241,3.644,4.188,4.534   l33.771,15.452l4.119,4.708c1.582,1.808,3.797,2.732,6.023,2.732c1.87,0,3.748-0.652,5.265-1.979   C131.978,196.111,132.315,191.057,129.406,187.732z"/><path d="M154.083,51.643c1.646,0.498,2.953-0.406,3.366-1.773c0.424-1.401-0.227-2.783-1.945-3.303   c-1.54-0.466-2.953,0.406-3.345,1.702C151.735,49.671,152.296,51.102,154.083,51.643z"/><path d="M161.913,33.864l1.177-3.887c0.329-1.086,0.013-2.06-1.669-2.57c-1.646-0.498-2.46,0.171-2.757,1.153l-1.198,3.957   l-2.73,11.791l2.907,0.88L161.913,33.864z"/><path d="M169.568,46.964c0.679-2.241,1.282-2.594,3.829-3.428c3.097-1.013,4.644-2.456,5.439-5.083   c0.732-2.417-0.045-5.786-4.808-7.229c-2.417-0.732-5.196-0.771-6.833-0.54l-1.538,5.078l3.733,1.435l0.615-2.031   c0.148-0.49,0.409-0.718,0.745-0.692c0.499-0.003,1.059,0.167,1.654,0.347c1.365,0.413,2.04,1.344,1.615,2.746   c-0.551,1.821-1.737,2.073-3.582,2.737c-2.567,0.906-3.926,1.603-4.536,4.629l-0.519,2.596l3.678,1.114L169.568,46.964z"/><path d="M165.299,55c1.646,0.498,2.963-0.441,3.356-1.737c0.435-1.435-0.229-2.784-1.909-3.292   c-1.542-0.467-2.932,0.337-3.345,1.702C162.977,53.074,163.582,54.48,165.299,55z"/><path d="M120.125,205.832c-0.022,0.006-2.218,0.335-3.88-0.899c-1.078-0.801-1.738-2.115-1.962-3.907   c-0.068-0.549-0.573-0.934-1.116-0.868c-0.548,0.068-0.937,0.568-0.868,1.116c0.294,2.354,1.221,4.126,2.753,5.265   c1.52,1.129,3.268,1.339,4.356,1.339c0.606,0,1.008-0.065,1.052-0.072c0.544-0.093,0.911-0.609,0.818-1.154   C121.186,206.108,120.674,205.747,120.125,205.832z"/><path d="M119.171,210.516c-0.036,0.004-3.536,0.38-6.206-1.803c-1.745-1.425-2.759-3.65-3.015-6.613   c-0.047-0.551-0.533-0.965-1.082-0.91c-0.55,0.047-0.958,0.532-0.91,1.082c0.303,3.521,1.562,6.21,3.741,7.99   c2.452,2.003,5.389,2.28,6.826,2.28c0.507,0,0.828-0.034,0.874-0.04c0.549-0.063,0.942-0.559,0.879-1.107   C120.216,210.846,119.71,210.449,119.171,210.516z"/></g></svg>