<?xml version="1.0" ?><svg enable-background="new 0 0 314.5309 225.7672" id="Layer_1" version="1.1" viewBox="0 0 314.5309 225.7672" xml:space="preserve" xmlns="http://www.w3.org/2000/svg" xmlns:xlink="http://www.w3.org/1999/xlink"><g><path d="M87.6982,217.8321c2.1719-4.0752,1.9199-9.0156-0.6548-12.8491L61.309,166.6715   c9.9518-6.0159,21.4468-10.3831,31.1428-13.961l-4.9962-14.9413c-0.8721-2.6091-0.6768-5.4021,0.5518-7.864   c1.2275-2.4619,3.3408-4.2983,5.9502-5.1709c1.0596-0.3542,2.1592-0.5337,3.2676-0.5337c4.4346,0,8.3594,2.8274,9.7676,7.0354   l3.8824,11.6108c3.405-3.9179,5.0882-8.7188,3.654-13.2119c-2.6776-8.3807-13.1249-16.4725-28.2283-13.0599   c-20.7382,4.8138-32.6796,10.4719-50.2193,24.3481c-12.0519,11.1238-7.6592,21.3812-2.7429,29.1158   c1.0035,1.5789,1.9267,2.9543,2.8575,4.0823l17.0162,25.332L12.5,199.4537c-6.9038,0-12.5,5.5967-12.5,12.5   c0,6.9038,5.5967,12.5,12.5,12.5l64.167-0.0005C81.2847,224.4532,85.5264,221.9073,87.6982,217.8321z"/><ellipse cx="139.1689" cy="121.4015" rx="22.5" ry="22.5" transform="matrix(0.7931 -0.6091 0.6091 0.7931 -45.1509 109.8887)"/><path d="M151.7289,152.7151c5.0977,0,9.373,3.6594,10.166,8.7014c0.8809,5.6111-2.9658,10.8931-8.5762,11.7749l-10.6638,1.6765   l0.2759,0.6256c0.4653,1.2654,0.9836,2.4352,1.5341,3.4782l11.2904,25.5987h-45.981c-5.5229,0-10,4.4771-10,10s4.4771,10,10,10   h61.3213c3.3799,0,6.5312-1.7075,8.3774-4.5391c1.8457-2.8315,2.1362-6.4038,0.772-9.4966l-14.2158-32.2307   c7.9661-2.1131,18.3789-3.879,31.4833-3.6989c-0.2975,6.4761,1.7329,9.9124,4.5922,11.3776l4.2628-29.5092   c0.6221-4.3,4.3633-7.5422,8.7041-7.5422c0.4199,0,0.8457,0.0305,1.2646,0.0911c4.8018,0.6936,8.1445,5.165,7.4512,9.9673   l-0.7176,4.9668c1.7007-1.5102,4.0155-2.9788,7.3167-4.2674c2.2875-9.7154-3.3726-19.7849-17.3571-20.1594   c-6.3257-0.1703-10.3367,2.8067-16.4492,5.4558c-0.9633,0.4729-1.8978,0.8412-2.7982,1.1183   c-7.0096,2.552-16.9217,4.2253-34.5631,1.2343c-9.2471-1.5678-14.348,1.6366-16.7604,6.7078l7.6609-1.2043   C150.6508,152.7575,151.1928,152.7151,151.7289,152.7151z"/><path d="M221.5112,158.6613c0.5127-3.553-1.9512-6.8494-5.5039-7.3625c-3.5488-0.5127-6.8496,1.9509-7.3633,5.5037l-5.0098,34.679   c-0.3066,2.1267,0.457,4.2681,2.041,5.7202l29.1748,26.7524c1.248,1.1443,2.8213,1.7095,4.3906,1.7092   c1.7578,0,3.5107-0.7092,4.793-2.1069c2.4258-2.646,2.248-6.7576-0.3984-9.1838l-26.6436-24.4314L221.5112,158.6613z"/><path d="M208.4089,116.2394c-0.0373-1.4561,0.0531-2.9348,0.2944-4.424c0.6073-3.7483,2.0683-7.1479,4.1461-10.041   c-7.602,0.6786-16.4224,4.577-18.3652,21.213c-1.9455,16.6581-7.9167,18.5085-12.3825,17.6766s5.3027,9.2679,17.2957-0.1769   C206.0277,135.2654,206.3479,123.9114,208.4089,116.2394z"/><path d="M210.9734,112.1833c-1.899,11.7213,6.0634,22.7628,17.7847,24.6618c1.1437,0.1853,2.2804,0.2738,3.4033,0.277   c-1.1826-3.8204-0.074-8.1542,3.1593-10.9051l17.8749-15.2063c-1.8385-8.36-8.5975-15.1599-17.5605-16.6121   C223.9139,92.4996,212.8724,100.4621,210.9734,112.1833z"/><path d="M104.811,131.9655c-1.4014-4.1899-5.9326-6.4504-10.124-5.05c-4.1904,1.4014-6.4512,5.9341-5.0498,10.1243l11.7803,35.2292   c1.1045,3.3027,4.1904,5.4636,7.582,5.4636c0.4121,0,0.8291-0.032,1.2471-0.0979l42.7148-6.7156   c4.3652-0.686,7.3467-4.7808,6.6611-9.1453c-0.6865-4.365-4.7871-7.3472-9.1455-6.6604l-36.0312,5.6646L104.811,131.9655z"/><ellipse cx="267.487" cy="22.5063" rx="22.5" ry="22.5" transform="matrix(0.8903 -0.4554 0.4554 0.8903 19.0946 124.2757)"/><path d="M295.0629,53.687c1.4375,0,2.8379,0.2966,4.1611,0.8816c2.5166,1.1128,4.4492,3.1387,5.4414,5.7046   c0.9922,2.5662,0.9258,5.365-0.1865,7.8811l-17.6699,39.9631c-0.6221,1.4077-1.5713,2.6807-2.7461,3.6799l-35.3945,30.1104   c-0.5323,0.4529-1.1099,0.8403-1.7153,1.1731l-4.5806,6.5551c-2.3711,3.3931-2.9087,7.7397-1.436,11.6079l21.4985,56.4678   c1.8994,4.9883,6.646,8.0562,11.6846,8.0557c1.478,0,2.9819-0.2642,4.4453-0.8213c6.4517-2.4565,9.6904-9.6777,7.2344-16.1299   l-19.1445-50.2837l20.6036-29.4849c5.5286-0.4547,11.059-3.3742,15.5858-11.5718c9.2926-20.343,11.9388-33.2873,11.6682-54.5762   c-0.288-15.4813-10.6373-23.6992-19.4154-24.2989c-8.7756-0.6011-16.0109,9.5793-16.3419,19.9324   c-0.8201,6.843-1.6121,15.1916-3.0494,23.7562l9.9333-22.4654C287.2866,56.0959,290.9858,53.687,295.0629,53.687z"/><path d="M236.811,127.9687c-3.3652,2.863-3.7725,7.9119-0.9102,11.2771c1.583,1.8601,3.833,2.8167,6.0977,2.8167   c1.832,0,3.6748-0.6265,5.1797-1.9067l35.3945-30.1101c0.917-0.7803,1.6465-1.7573,2.1328-2.8584l17.6699-39.9631   c1.7871-4.0408-0.04-8.7651-4.0811-10.5518c-4.043-1.7869-8.7656,0.0405-10.5518,4.0815l-16.9307,38.29L236.811,127.9687z"/></g></svg>