<?xml version="1.0" ?><svg enable-background="new 0 0 151.6087 239.9926" id="Layer_1" version="1.1" viewBox="0 0 151.6087 239.9926" xml:space="preserve" xmlns="http://www.w3.org/2000/svg" xmlns:xlink="http://www.w3.org/1999/xlink"><g><path d="M122.9356,171.808l-8.0718-35.7891c-2.9683,3.0479-6.3826,4.9773-10.2095,5.7578   c-1.1904,0.2979-2.4053,0.4492-3.6104,0.4492c-0.3691,0-0.7412-0.0137-1.1162-0.043l-0.1641-0.0117   c-0.7734-0.0244-1.5547-0.084-2.3252-0.1777l-6.9741-0.53l8.4858,37.6248c0.2656,1.1807,0.7021,2.3164,1.2949,3.3711   l27.9629,49.7852c2.293,4.084,6.5381,6.3809,10.9102,6.3809c2.0723,0,4.1738-0.5166,6.1094-1.6035   c6.0195-3.3809,8.1582-11.001,4.7773-17.0195L122.9356,171.808z"/><path d="M68.1514,17.7368c-1.3789,3.4014,1.8271,13.9717,7.1836,23.8271l9.5264,3.4277c1.6934-0.0246,3.3403-0.236,4.9233-0.6149   c-2.1204-3.6526-3.3413-7.8894-3.3413-12.4084c0-10.5532,6.6284-19.582,15.9385-23.1569C98.2691,3.4555,91.8047,0,84.5293,0   c-6.9807,0-13.2188,3.1795-17.3457,8.169c0.3491,0.5278,0.6563,1.0886,0.9082,1.684   C69.1641,12.3871,69.1846,15.187,68.1514,17.7368z"/><path d="M47.5332,108.517l25.7168,1.9539c0.1748-3.7224,0.5461-7.4611,1.0374-11.1477L56.7217,80.3725   c-1.8711-2.0176-2.8438-4.6426-2.7393-7.3926c0.1045-2.749,1.2734-5.293,3.291-7.1631c1.9111-1.7705,4.3965-2.7461,7-2.7461   c2.8594,0,5.6133,1.2021,7.5557,3.2979l7.0728,7.6304c0.0413-0.2083,0.0859-0.4277,0.1262-0.6335   c0.7742-2.6857,1.062-5.5132,0.908-8.2535l-15.1294-5.4435c-2.1943-0.7881-4.0752-2.3184-5.2959-4.3086   c-0.5405-0.8823-1.4724-2.451-2.5874-4.5225c-5.4077,2.5154-10.4668,7.5564-13.2625,15.6863   c-5.6934,16.879-7.6355,28.8458-6.6072,45.3096c2.6106-2.1349,5.8958-3.3601,9.3447-3.3601   C46.7754,108.4731,47.1543,108.4877,47.5332,108.517z"/><path d="M53.7178,138.6713l-1.5513,2.2261l10.4614,34.6733l-23.8076,46.1924c-3.1621,6.1367-0.752,13.6748,5.3848,16.8379   c1.832,0.9443,3.7881,1.3916,5.7158,1.3916c4.5313,0,8.9033-2.4717,11.1221-6.7764l26.124-50.6875   c1.4863-2.8838,1.793-6.2314,0.8555-9.3369l-9.8547-32.6626L53.7178,138.6713z"/><path d="M125.584,80.811c0.7432-2.0847,2.1216-3.818,3.8674-5.02c-0.001-0.6871,0.0034-1.36-0.0042-2.0649   c-0.1448-8.7151-3.4824-15.1345-7.938-19.1915c-1.8586,0.8488-3.8384,1.4735-5.9072,1.8422   c1.5547,1.0283,2.8105,2.4558,3.6255,4.1853c1.1719,2.4893,1.3037,5.2861,0.3721,7.875c-1.4668,4.0762-5.3613,6.8145-9.6914,6.8145   c-1.1895,0-2.3623-0.2051-3.4873-0.6104l-12.8105-4.6091c-0.6238,5.2046-1.2451,11.217-2.1484,17.5171l3.6826,3.9729   C108.7324,90.6157,123.5733,86.4496,125.584,80.811z"/><path d="M99.8853,139.8735l0.2192,0.0166c1.3975,0.1077,2.7539-0.0291,4.0391-0.356c4.8228-0.969,9.5549-4.0948,13.5273-11.2551   c3.9006-8.4945,6.625-15.6967,8.4731-22.7599c-14.6384,6.3431-32.3037,6.7542-35.2622,6.7753h-0.0088h-0.0654   c-1.5947,0-3.1511-0.3865-4.5581-1.0815c-0.2778,0.8357-0.5635,1.667-0.8655,2.4869L47.3565,110.81   c-4.4092-0.3398-8.6738,1.6865-11.2031,5.3174L2.2451,164.7885c-3.9463,5.6641-2.5547,13.4551,3.1094,17.4023   c2.1777,1.5166,4.6689,2.2451,7.1357,2.2451c3.9502,0,7.8369-1.8682,10.2666-5.3545l29.8252-42.8027l45.084,3.426   C98.4016,139.7953,99.1421,139.8522,99.8853,139.8735z"/><path d="M107.2007,72.4767c0.8945,0.3223,1.8086,0.4746,2.708,0.4746c3.2783,0,6.3535-2.0313,7.5273-5.2939   c1.4961-4.1572-0.6611-8.7402-4.8193-10.2354l-1.8516-0.6663c-5.6289-0.1073-10.8022-2.0972-14.9187-5.3677l-22.1077-7.9543   c-4.8604-8.7305-9.7549-21.5391-7.7188-26.5615c1.6602-4.0947-0.3135-8.7598-4.4082-10.4199   c-4.0977-1.6621-8.7598,0.3135-10.4199,4.4082c-6.1592,15.1943,7.4834,38.7324,10.2803,43.2969   c0.9512,1.5508,2.4014,2.7314,4.1133,3.3467L107.2007,72.4767z"/><path d="M90.8076,109.9948c0.0195,0,0.0381,0,0.0576,0c4.4883-0.0322,44.082-0.9531,51.9551-23.0381   c1.4844-4.1621-0.6875-8.7383-4.8486-10.2217c-4.1602-1.4824-8.7383,0.6875-10.2217,4.8486   c-2.7012,7.5752-20.4629,11.5898-33.5527,12.2998L70.1426,67.9323c-3.0029-3.2393-8.0644-3.4316-11.3057-0.4287   c-3.2402,3.0039-3.4326,8.0654-0.4287,11.3057l26.5322,28.624C86.4551,109.0671,88.5811,109.9948,90.8076,109.9948z"/><circle cx="111.2432" cy="31.9679" r="22.5"/></g></svg>