<?xml version="1.0" ?><svg id="Layer_1" style="enable-background:new 0 0 205.321 192.675;" version="1.1" viewBox="0 0 205.321 192.675" xml:space="preserve" xmlns="http://www.w3.org/2000/svg" xmlns:xlink="http://www.w3.org/1999/xlink"><g><ellipse cx="96.863" cy="22.504" rx="22.5" ry="22.5" transform="matrix(0.1937 -0.9811 0.9811 0.1937 56.022 113.1734)"/><path d="M109.074,138.981c-1.504,0.815-3.198,1.246-4.9,1.246c-3.787,0-7.26-2.066-9.063-5.394l-14.354-26.49   c-5.066,2.776-8.385,9.17-9.979,15.467l16.563,51.59c1.44,4.487,0.644,9.438-2.133,13.245c-1.213,1.664-2.763,3.014-4.503,4.03   H91.25c3.2,0,6.225-1.459,8.217-3.963c1.992-2.504,2.733-5.78,2.015-8.897l-8.604-37.287c7.971,1.878,17.624,5.13,28.57,10.951   c1.701,12.586,11.658,15.294,17.461,12.813l-4.73-20.377c-0.531-2.29-0.14-4.649,1.104-6.644c1.243-1.995,3.189-3.386,5.479-3.917   c0.656-0.152,1.327-0.229,1.995-0.229c4.113,0,7.636,2.801,8.566,6.811l2.65,11.416c0.437,0.019,0.864,0.032,1.328,0.071   c5.969-7.264,5.742-17.917-4.656-24.564c-3.873,0.237-7.67-0.175-11.008-2.048c-0.799-0.448-1.513-0.916-2.19-1.392   c-6.633-0.065-14.531,0.414-27.375-6.217l3.152,5.817C115.929,130.011,114.067,136.275,109.074,138.981z"/><path d="M149.082,142.455c-0.812-3.497-4.301-5.672-7.802-4.862c-3.497,0.812-5.674,4.305-4.862,7.801l9.75,42   c0.685,2.945,3.309,5.03,6.332,5.03h43.25c3.59,0,6.5-2.91,6.5-6.5s-2.91-6.5-6.5-6.5h-38.086L149.082,142.455z"/><path d="M140.763,124.805c10.26,5.757,26.85-4.382,33.521-0.072c1.291-0.564,2.646-1.027,4.065-1.361   c1.179-0.278,2.358-0.462,3.53-0.558c-3.47-6.892-10.407-13.893-26.826-9.24c-16.136,4.573-20.129-0.237-21.068-4.681   C133.046,104.447,127.449,117.336,140.763,124.805z"/><ellipse cx="183.816" cy="146.534" rx="21.5" ry="21.5" transform="matrix(0.9733 -0.2297 0.2297 0.9733 -28.7469 46.1466)"/><path d="M73.25,192.425c3.993,0,7.747-1.908,10.1-5.135c2.354-3.227,3.022-7.383,1.802-11.186L66.03,116.548   c0.674-8.204,2.981-16.688,5.776-24.723l-13.362-24.66c-2.705-4.994-0.844-11.258,4.149-13.963   c1.503-0.815,3.197-1.246,4.899-1.246c3.787,0,7.261,2.067,9.064,5.394l5.214,9.622c3.837-8.999,2.2-20.267-5.32-23.799   c-7.963-3.742-21.001-1.591-28.778,11.799C37.089,73.446,33.11,86.045,31.344,108.34c-0.036,12.024,5.602,17.25,12.164,19.839   l12.6,39.246H12.5c-6.903,0-12.5,5.596-12.5,12.5c0,6.903,5.597,12.5,12.5,12.5H73.25z"/><path d="M74.534,58.447c-2.105-3.885-6.964-5.327-10.846-3.222c-3.885,2.105-5.327,6.96-3.223,10.845l36.667,67.666   c1.449,2.673,4.2,4.19,7.041,4.19c1.287,0,2.594-0.312,3.805-0.968c3.885-2.105,5.327-6.96,3.223-10.845L74.534,58.447z"/></g></svg>