<?xml version="1.0" ?><svg id="Layer_1" style="enable-background:new 0 0 201.582 302.517;" version="1.1" viewBox="0 0 201.582 302.517" xml:space="preserve" xmlns="http://www.w3.org/2000/svg" xmlns:xlink="http://www.w3.org/1999/xlink"><g><ellipse cx="33.453" cy="150.516" rx="22.493" ry="22.495" transform="matrix(0.0169 -0.9999 0.9999 0.0169 -117.6076 181.4157)"/><path d="M24.695,268.633l-11.843,12.945c-4.661,5.092-4.308,13,0.784,17.661c2.398,2.194,5.422,3.278,8.435,3.278   c3.385,0,6.76-1.368,9.225-4.062l43-47c3.771-4.123,4.344-10.295,1.393-15.04c-2.949-4.743-8.738-6.962-14.104-5.401l-22.157,6.441   c-2.034-11.541-2.131-23.768-2.246-33.795c-9.137-0.053-15.527-1.917-17.282-2.495c-5.263-1.789-8.065-7.479-6.292-12.699   c1.379-4.058,5.184-6.783,9.465-6.783c1.076,0,2.143,0.173,3.168,0.516c0.146,0.046,0.298,0.091,0.514,0.15   c0.452,0.122,1.209,0.313,2.225,0.51c1.873,0.37,4.868,0.806,8.514,0.804c7.213-0.004,14.008-1.65,20.195-4.895   c8.715-4.597,15.924-12.024,22.035-22.704c1.26-2.21,3.313-3.81,5.679-4.561c-3.763-2.054-8.505-0.781-10.707,2.936   c-6.633,11.159-13.661,17.304-20.126,20.848c-6.471,3.524-12.554,4.49-17.506,4.498c-3.25,0.002-5.978-0.434-7.82-0.851   c-0.92-0.21-1.619-0.412-2.047-0.548c-0.214-0.068-0.361-0.119-0.436-0.146v0.001c-0.725-0.285-1.465-0.451-2.201-0.519   c-0.555-0.107-1.119-0.174-1.697-0.192c-8.793-0.286-19.916,6.85-21.76,22.224c-2.41,21.153-1.078,34.299,6.121,55.473   C11.602,265.474,18.146,268.429,24.695,268.633z"/><path d="M58.615,180.536c-7.651,4.011-15.117,5.121-21.121,5.125c-3.686,0.002-6.789-0.426-8.898-0.84   c-1.057-0.206-1.863-0.408-2.371-0.546c-0.254-0.07-0.434-0.123-0.53-0.153c-0.032-0.011-0.056-0.018-0.07-0.022   c-0.013-0.004-0.015-0.005-0.015-0.005l-0.001,0.001c-4.173-1.393-8.689,0.843-10.108,5.013c-1.421,4.182,0.816,8.726,5.001,10.149   h-0.002c0.569,0.185,7.165,2.394,16.995,2.405c0.005,0,0.01,0,0.016,0c7.963,0,18.133-1.502,28.533-6.957   c10.41-5.434,20.857-14.845,29.314-29.728c2.189-3.838,0.85-8.724-2.988-10.911c-3.838-2.188-8.723-0.85-10.911,2.988   C74.285,169.592,66.262,176.504,58.615,180.536z"/><path d="M121.021,277.655c0-8.411-3.791-16.467-14.453-22.864c-8.529-5.213-10.9-7.701-10.9-12.439   c0-4.265,3.199-8.293,9.834-8.293c4.383,0,7.818,1.303,10.07,2.725l2.486-13.387c-2.25-1.421-7.227-2.843-12.557-2.843   c-16.586,0-25.115,10.662-25.115,23.457c0,7.227,4.146,15.638,15.045,22.272c6.752,4.383,10.307,7.227,10.307,13.032   c0,5.213-3.672,9.004-10.898,9.004c-4.383,0-9.951-1.303-13.15-3.081l-2.252,13.387c2.727,1.54,8.887,3.199,15.283,3.199   C110.24,301.823,121.021,292.226,121.021,277.655z"/><path d="M185.232,221.263l-4.027,14.572c-1.066,4.383-2.133,8.174-3.436,13.031h-0.236c-1.185-4.501-2.369-8.648-3.555-12.794   l-4.738-14.809h-12.914h-3.197h-31.514v79.848h30.92h5.094h10.309l4.264-14.453c1.186-4.502,2.369-9.359,3.674-14.454h0.355   c1.303,5.094,2.725,9.596,4.264,14.217l4.976,14.69h16.111l-15.756-40.161l14.926-39.687H185.232z M157.468,287.606h-20.333   v-21.561h18.125v-12.913h-18.125v-18.363h19.191v-4.809l11.137,30.28L157.468,287.606z"/><path d="M102.576,117.697c0.106,0.006,0.212,0.008,0.316,0.008c3.17,0,5.821-2.484,5.988-5.688   c0.785-15.234,4.516-30.068,8.756-41.099c0.799-2.084,1.616-4.032,2.43-5.817c-0.379-1.149-0.592-2.374-0.592-3.649   c0-1.306,0.225-2.557,0.62-3.729c-0.04,0.396-0.062,0.799-0.062,1.206c0,6.698,5.43,12.127,12.127,12.127   c3.863,0,7.296-1.812,9.516-4.626c-1.869,3.948-5.877,6.685-10.535,6.685c-1.174,0-2.304-0.177-3.371-0.499   c0.899,3.866,1.41,7.547,1.205,10.558c-0.004,0.05-0.004,0.104-0.008,0.154c-0.258,3.357-1.188,6.057-2.361,8.509h-0.022   l-2.002,3.766c-1.078,1.871-2.17,3.721-3.062,5.756l-4.067,7.648l-8.619,16.205l1.184,0.274l35.52,8.226l35.517-8.226l1.184-0.274   l-8.619-16.208l-4.065-7.64c-0.894-2.046-1.992-3.903-3.075-5.783l-1.991-3.743h-0.02c-1.174-2.452-2.104-5.152-2.361-8.509   c-0.004-0.05-0.003-0.104-0.006-0.154c-0.215-3.128,0.342-6.978,1.307-11.008c-1.414,0.609-2.971,0.95-4.609,0.95   c-4.657,0-8.664-2.736-10.535-6.683c2.221,2.812,5.654,4.623,9.516,4.623c6.697,0,12.125-5.429,12.125-12.127   c0-0.407-0.021-0.809-0.061-1.206c0.396,1.172,0.619,2.423,0.619,3.729c0,0.708-0.072,1.398-0.193,2.072   c5.338,11.102,10.963,29.513,11.92,48.493c0.167,3.204,2.816,5.69,5.988,5.69c0.105,0,0.211-0.003,0.316-0.008   c3.31-0.173,5.852-2.997,5.68-6.305c-0.882-16.766-4.881-32.619-9.537-44.774c-2.337-6.084-4.828-11.233-7.316-15.223   c-1.253-1.998-2.496-3.71-3.858-5.174c-0.386-0.396-0.772-0.782-1.179-1.154c-0.107-0.098-0.225-0.203-0.354-0.314   c-0.057-0.048-0.113-0.096-0.17-0.143c-2.543-2.148-8.91-6.375-20.502-7.467c-4.196,4.272-10.006,6.854-16.369,6.854   c-1.752,0-3.514-0.203-5.232-0.602c-1.904-0.444-3.702-1.14-5.394-2.016c-2.269,1.163-3.866,2.323-4.884,3.174   c-0.637,0.522-1.205,1.084-1.771,1.667c-2.355,2.551-4.469,5.908-6.648,10.139c-6.424,12.627-12.885,33.014-14.063,55.03   C96.725,114.701,99.267,117.523,102.576,117.697z"/><path d="M169.966,130.554l-22.763,5.272v67.018c0,5.523,4.476,10,10,10c5.52,0,10-4.477,10-10v-46.023v-7.311   C167.355,140.471,168.744,135.838,169.966,130.554z"/><path d="M121.107,130.554c1.221,5.284,2.611,9.917,2.762,18.956v7.332v46.002c0,5.523,4.477,10,10,10c5.521,0,10-4.477,10-10   v-67.018L121.107,130.554z"/><ellipse cx="134.871" cy="20.999" rx="20.995" ry="20.995" transform="matrix(0.2268 -0.9739 0.9739 0.2268 83.8302 147.5927)"/></g></svg>